<?xml version="1.0" standalone="no"?>
<!DOCTYPE svg PUBLIC "-//W3C//DTD SVG 1.1//EN" "http://www.w3.org/Graphics/SVG/1.1/DTD/svg11.dtd" >
<svg>
<metadata>
Created by FontForge 20090622 at Mon May 11 09:48:29 2015
 By deploy user
Copyright &#194;&#169; 2011 Orange Brand Services Limited
</metadata>
<defs>
<font id="OrangeSans55-Roman" horiz-adv-x="628" >
  <font-face 
    font-family="Orange Sans 55 Roman"
    font-weight="400"
    font-stretch="normal"
    units-per-em="1000"
    panose-1="2 11 5 3 4 5 2 2 2 4"
    ascent="785"
    descent="-215"
    x-height="508"
    cap-height="700"
    bbox="-464 -260 1276 1092"
    underline-thickness="50"
    underline-position="-50"
    unicode-range="U+0020-U+FB17"
  />
<missing-glyph horiz-adv-x="500" 
d="M50 512h400v-512h-400v512zM442 8v496h-384v-496h384z" />
    <glyph glyph-name="IJ" unicode="IJ" horiz-adv-x="776" 
d="M185 700v-700h-94v700h94zM373 232q0 -42 6 -74t19.5 -54.5t36.5 -34t59 -11.5q37 0 60 13t35.5 36t16.5 55.5t4 70.5v467h94v-458q0 -69 -11.5 -118.5t-36.5 -81.5t-65.5 -47.5t-97.5 -15.5q-27 0 -63.5 5.5t-70 27.5t-57 65.5t-23.5 118.5v36h94z" />
    <glyph glyph-name="ij" unicode="ij" horiz-adv-x="446" 
d="M76 700h88v-92h-88v92zM164 508v-508h-88v508h88zM288 700h88v-92h-88v92zM376 508v-555q0 -34 -5.5 -60.5t-19 -44.5t-37 -27.5t-58.5 -9.5q-13 0 -30.5 1.5t-26.5 2.5v62q35 6 53 11t26 13.5t9 23t1 39.5v544h88z" />
    <glyph glyph-name="fi" unicode="fi" horiz-adv-x="516" 
d="M355 700h88v-92h-88v92zM110 577q0 66 33 96.5t101 30.5q14 0 34 -1.5t31 -2.5v-62q-32 2 -43.5 1.5t-18.5 -0.5q-18 0 -28 -8t-14.5 -19t-5.5 -23t-1 -20v-61h245v-508h-88v446h-157v-446h-88v446h-94v62h94v69z" />
    <glyph glyph-name="fl" unicode="fl" horiz-adv-x="518" 
d="M355 508v192h88v-700h-88v446h-157v-446h-88v446h-94v62h94v69q0 66 33 96.5t101 30.5q14 0 34 -1.5t31 -2.5v-62q-32 2 -43.5 1.5t-18.5 -0.5q-18 0 -28 -8t-14.5 -19t-5.5 -23t-1 -20v-61h157z" />
    <glyph glyph-name=".notdef" horiz-adv-x="500" 
d="M50 512h400v-512h-400v512zM442 8v496h-384v-496h384z" />
    <glyph glyph-name=".null" horiz-adv-x="0" 
 />
    <glyph glyph-name="nonmarkingreturn" horiz-adv-x="233" 
 />
    <glyph glyph-name="space" unicode=" " horiz-adv-x="233" 
 />
    <glyph glyph-name="exclam" unicode="!" horiz-adv-x="317" 
d="M109 109h99v-109h-99v109zM208 700v-269l-25 -230h-49l-25 230v269h99z" />
    <glyph glyph-name="quotedbl" unicode="&#x22;" horiz-adv-x="426" 
d="M333 508h-52l-40 192h132zM145 508h-52l-40 192h132z" />
    <glyph glyph-name="numbersign" unicode="#" horiz-adv-x="580" 
d="M376 442h-143l-28 -179h143zM309 10l26 168h-143l-26 -168h-68l26 168h-134l13 85h134l28 179h-134l13 85h134l26 167h68l-26 -167h143l26 167h68l-26 -167h134l-13 -85h-134l-28 -179h134l-13 -85h-134l-26 -168h-68z" />
    <glyph glyph-name="dollar" unicode="$" horiz-adv-x="580" 
d="M268 646q-16 0 -38 -4.5t-41.5 -17.5t-33 -36.5t-13.5 -61.5q0 -50 31 -78t95 -40v238zM321 57q32 -1 56.5 10.5t41.5 30t25.5 43.5t8.5 51q0 34 -13.5 56.5t-33.5 36.5t-43 20.5t-42 8.5v-257zM126 208q2 -45 17 -74t36 -46t44.5 -23.5t44.5 -7.5v266q-71 15 -113 36.5
t-64 47.5t-29 55t-7 61q0 60 22.5 97t55 57.5t69.5 27.5t66 7v65h53v-65q26 -1 61 -8.5t66 -27.5t52 -55t19 -91h-86q0 22 -8 43t-22.5 37t-35.5 26t-46 10v-247q75 -13 119 -37.5t66.5 -53.5t29 -60t6.5 -56q0 -66 -25 -105.5t-60.5 -61t-73 -29t-62.5 -8.5v-81h-53v81
q-111 5 -167.5 57t-63.5 163h89z" />
    <glyph glyph-name="percent" unicode="%" horiz-adv-x="917" 
d="M598 193q0 -17 3.5 -41.5t13.5 -47.5t29 -39t51 -16t51 16t29.5 39t13.5 47.5t4 41.5q-1 42 -10.5 70t-24 44.5t-31.5 23t-32 6.5t-32 -6.5t-31.5 -23t-24 -44.5t-9.5 -70zM124 507q0 -17 3.5 -41.5t14 -47.5t29.5 -39t51 -16q31 0 50.5 16t29.5 39t13.5 47.5t4.5 41.5
q-1 42 -10.5 70t-24 44.5t-31.5 23t-32 6.5t-32 -6.5t-31.5 -23t-24.5 -44.5t-10 -70zM650 700h76l-455 -700h-75zM530 193q0 62 18 101.5t44 61.5t54 30t49 8t49 -8t54 -30t44 -61.5t18 -101.5q0 -27 -7 -62t-25.5 -66t-50.5 -52t-82 -21t-82 21t-50.5 52t-25.5 66t-7 62z
M57 507q0 62 18 101.5t44 61.5t54 30t49 8q20 0 48.5 -8t54.5 -30t44 -61.5t18 -101.5q0 -27 -7 -62t-25.5 -65.5t-50.5 -52t-82 -21.5t-82 21.5t-50.5 52t-25.5 65.5t-7 62z" />
    <glyph glyph-name="ampersand" unicode="&#x26;" horiz-adv-x="689" 
d="M320 438q39 14 66.5 46t27.5 77q0 29 -20.5 51t-53.5 22q-14 0 -28 -4t-25.5 -13t-19 -23.5t-7.5 -35.5q0 -36 19 -64.5t41 -55.5zM293 348q-38 -15 -62.5 -34t-39 -40t-20 -43t-5.5 -43q0 -23 8 -46.5t25.5 -43t44 -32t63.5 -12.5q49 0 91.5 21.5t67.5 63.5zM624 306
q-8 -46 -19.5 -84.5t-38.5 -79.5l120 -142h-105l-69 82q-17 -27 -41.5 -46t-53.5 -32t-60 -19t-62 -6q-60 0 -102 19t-68 49t-38 67t-12 73q0 80 44 130t128 88q-24 28 -38 51.5t-21 42t-8.5 33t-1.5 24.5q0 34 13 61t35 45.5t51.5 28t63.5 9.5q38 0 67 -12t48 -31.5
t28.5 -45t9.5 -52.5q0 -33 -12.5 -60.5t-31.5 -49.5t-42 -38t-45 -26l153 -182q10 16 16 37.5t13 65.5h79z" />
    <glyph glyph-name="quotesingle" unicode="'" horiz-adv-x="238" 
d="M145 508h-52l-40 192h132z" />
    <glyph glyph-name="parenleft" unicode="(" horiz-adv-x="371" 
d="M285 700q-68 -132 -95 -243t-27 -199q0 -56 9.5 -113.5t26 -114.5t38.5 -111t48 -103h-66q-46 78 -74.5 138.5t-44 112t-21 97.5t-5.5 94t5.5 94t21 97.5t44 112t74.5 138.5h66z" />
    <glyph glyph-name="parenright" unicode=")" horiz-adv-x="371" 
d="M86 -184q44 85 68.5 155t36.5 125.5t14.5 96t2.5 65.5q0 22 -2.5 61.5t-14.5 96t-36.5 128t-68.5 156.5h66q49 -78 77.5 -143t43.5 -119t19.5 -98.5t4.5 -81.5t-4.5 -81.5t-19.5 -99t-43.5 -119t-77.5 -142.5h-66z" />
    <glyph glyph-name="asterisk" unicode="*" horiz-adv-x="471" 
d="M156 403l-40 30l78 108l-125 40l16 47l126 -40v132h50v-132l125 40l16 -47l-124 -40l78 -108l-41 -30l-79 108z" />
    <glyph glyph-name="plus" unicode="+" horiz-adv-x="608" 
d="M271 388v218h66v-218h218v-66h-218v-218h-66v218h-218v66h218z" />
    <glyph glyph-name="comma" unicode="," horiz-adv-x="317" 
d="M208 109v-140q0 -30 -10 -51t-25 -34.5t-32 -21t-32 -10.5v55q21 2 35.5 20.5t14.5 41.5v31h-50v109h99z" />
    <glyph glyph-name="hyphen" unicode="-" horiz-adv-x="404" 
d="M65 302h274v-70h-274v70z" />
    <glyph glyph-name="period" unicode="." horiz-adv-x="317" 
d="M109 109h99v-109h-99v109z" />
    <glyph glyph-name="slash" unicode="/" horiz-adv-x="436" 
d="M360 700h73l-357 -885h-73z" />
    <glyph glyph-name="zero" unicode="0" horiz-adv-x="590" 
d="M295 58q42 0 71 23.5t47 63t26 92.5t8 113t-8 113t-26 92.5t-47 63t-71 23.5t-71 -23.5t-47 -63t-26 -92.5t-8 -113t8 -113t26 -92.5t47 -63t71 -23.5zM295 -21q-13 0 -36 2.5t-50.5 14t-55.5 34.5t-51 64t-37.5 103.5t-14.5 152.5t14.5 152.5t37.5 103.5t51 64
t55.5 34.5t50.5 14t36 2.5t36 -2.5t50.5 -14t55.5 -34.5t51 -64t37.5 -103.5t14.5 -152.5t-14.5 -152.5t-37.5 -103.5t-51 -64t-55.5 -34.5t-50.5 -14t-36 -2.5z" />
    <glyph glyph-name="one" unicode="1" horiz-adv-x="590" 
d="M135 575h21q31 0 60 9t51.5 25t37 39t18.5 52h66v-700h-94v526h-160v49z" />
    <glyph glyph-name="two" unicode="2" horiz-adv-x="590" 
d="M536 0h-474q0 63 17.5 109t49.5 82t75.5 66t94.5 62l47 30t46.5 38t35.5 51.5t14 69.5q0 66 -39 100t-102 34q-67 0 -106 -38t-39 -101v-26h-92v21q0 24 7.5 61.5t32.5 73.5t72.5 62t127.5 26q54 0 97 -14.5t73.5 -41.5t47 -66.5t16.5 -89.5q0 -49 -12 -84t-39 -65
t-70 -59.5l-104 -68.5q-71 -45 -104 -80t-43 -73h370v-79z" />
    <glyph glyph-name="three" unicode="3" horiz-adv-x="590" 
d="M135 213q1 -6 1.5 -11.5t1.5 -11.5q2 -12 7.5 -35t21 -45.5t43.5 -39t74 -16.5q54 0 86 17t48 40.5t20.5 48.5t4.5 42q0 58 -34.5 92t-93.5 34h-72v76h28q11 0 36.5 2t51.5 13.5t45.5 36t19.5 69.5q0 21 -6 42.5t-21.5 39t-42.5 28.5t-68 11q-12 0 -35 -3t-45.5 -18.5
t-39 -47.5t-16.5 -90h-87q0 15 1.5 38.5t9 49.5t22 52t39.5 47t62.5 34t91.5 13q73 0 117 -22.5t67 -53t30.5 -63t7.5 -53.5q0 -58 -32 -99.5t-83 -55.5v-2q27 -4 51 -17t43 -35.5t30 -53.5t11 -71q0 -51 -18 -91.5t-50.5 -68t-76.5 -42t-96 -14.5q-77 0 -124 23.5
t-73.5 58.5t-36.5 76t-11 76h90z" />
    <glyph glyph-name="four" unicode="4" horiz-adv-x="590" 
d="M358 241v336l-240 -336h240zM28 162v79l329 459h95v-459h110v-79h-110v-162h-94v162h-330z" />
    <glyph glyph-name="five" unicode="5" horiz-adv-x="590" 
d="M143 179q2 -17 9.5 -39t24 -41t43 -32t67.5 -13q18 0 45.5 4t53.5 21t45 51.5t19 96.5q0 46 -13.5 78t-35 51t-49.5 27.5t-56 8.5q-17 0 -37.5 -4t-39.5 -11.5t-35 -19t-25 -26.5h-88l49 369h378v-79h-309l-28 -207q33 29 71.5 41t86.5 12t88.5 -16.5t69.5 -47t45 -75
t16 -100.5q0 -53 -15 -98t-45.5 -79t-78 -53t-112.5 -19q-68 0 -112 20t-70.5 50t-38.5 65t-15 65h92z" />
    <glyph glyph-name="six" unicode="6" horiz-adv-x="590" 
d="M148 224q0 -33 9.5 -63.5t28.5 -54t48.5 -38t69.5 -14.5q39 0 66.5 14.5t45 39t26 55.5t8.5 64q0 32 -9 61t-27.5 50.5t-46.5 34.5t-65 13q-74 0 -114 -45t-40 -117zM446 546q-9 37 -27 57.5t-38 30t-39.5 11t-29.5 1.5q-55 0 -88.5 -25t-51.5 -63.5t-24 -84t-6 -86.5h2
q31 41 77 57.5t94 16.5t89 -16t71.5 -46t47.5 -73.5t17 -99.5q0 -54 -16 -99.5t-47 -78.5t-75.5 -51t-101.5 -18q-58 0 -104.5 17t-79 58.5t-50 111.5t-17.5 175q0 93 15.5 158t39.5 107t54 65.5t59 34.5t54.5 13t41.5 2q15 0 46.5 -3.5t65.5 -20.5t64 -52t41 -99h-84z" />
    <glyph glyph-name="seven" unicode="7" horiz-adv-x="590" 
d="M39 700h511v-64q-35 -39 -63 -76t-51 -75.5t-42.5 -78.5t-37.5 -84q-17 -41 -29 -78.5t-21 -76t-15.5 -79.5t-11.5 -88h-100q10 76 29 152.5t55 161.5q16 37 36.5 76.5t45 79.5t53 78t60.5 73h-419v79z" />
    <glyph glyph-name="eight" unicode="8" horiz-adv-x="590" 
d="M295 54q25 0 51 8.5t47 26.5t34.5 46.5t13.5 67.5q0 22 -6.5 46t-23 44t-45 33.5t-71.5 13.5q-44 0 -72 -13.5t-44.5 -33.5t-23 -44t-6.5 -46q0 -39 13 -67.5t34 -46.5t47 -26.5t52 -8.5zM295 412q34 0 57.5 9.5t38.5 26t21.5 37.5t6.5 45q0 13 -4 33t-17 38.5
t-37.5 31.5t-65.5 13t-65.5 -13t-37.5 -31.5t-17 -38.5t-4 -33q0 -24 6.5 -45t21.5 -37.5t38.5 -26t57.5 -9.5zM186 379q-48 17 -74.5 60.5t-26.5 93.5q0 27 9 60t32.5 61.5t64.5 47.5t104 19t104 -19t64.5 -47.5t32.5 -61.5t9 -60q0 -50 -26.5 -93.5t-74.5 -60.5
q30 -8 53.5 -26t40 -42t25 -53.5t8.5 -59.5q0 -45 -14 -85t-43 -69.5t-73.5 -47t-105.5 -17.5t-105.5 17.5t-73.5 47t-43 69.5t-14 85q0 30 8.5 59.5t25 53.5t40 42t53.5 26z" />
    <glyph glyph-name="nine" unicode="9" horiz-adv-x="590" 
d="M441 476q0 33 -9.5 63.5t-28.5 54t-48.5 38t-69.5 14.5q-39 0 -66.5 -14.5t-45 -39t-26 -55.5t-8.5 -64q0 -32 9 -61t27.5 -51t46.5 -34.5t65 -12.5q74 0 114 45t40 117zM143 154q9 -37 27 -57.5t38 -30t39 -11t30 -1.5q55 0 88.5 25t51.5 63t24 84t6 87h-2
q-31 -41 -77 -57.5t-94 -16.5t-89 16t-71.5 46t-47.5 73.5t-17 99.5q0 54 16 99.5t47 78.5t75.5 51t101.5 18q30 0 60.5 -4.5t58 -18.5t52 -38.5t42 -65t28 -98t10.5 -137.5q0 -83 -12 -143.5t-32 -103t-47 -68.5t-56 -40.5t-59.5 -19.5t-57.5 -5q-15 0 -46.5 3.5
t-65.5 20.5t-64 52t-41 99h84z" />
    <glyph glyph-name="colon" unicode=":" horiz-adv-x="317" 
d="M109 109h99v-109h-99v109zM109 508h99v-109h-99v109z" />
    <glyph glyph-name="semicolon" unicode=";" horiz-adv-x="317" 
d="M208 109v-140q0 -30 -10 -51t-25 -34.5t-32 -21t-32 -10.5v55q21 2 35.5 20.5t14.5 41.5v31h-50v109h99zM109 508h99v-109h-99v109z" />
    <glyph glyph-name="less" unicode="&#x3c;" horiz-adv-x="676" 
d="M558 652l31 -57l-445 -253l445 -253l-31 -57l-495 285v50z" />
    <glyph glyph-name="equal" unicode="=" horiz-adv-x="608" 
d="M555 278v-65h-502v65h502zM555 477v-65h-502v65h502z" />
    <glyph glyph-name="greater" unicode="&#x3e;" horiz-adv-x="676" 
d="M118 32l-31 57l445 253l-445 253l31 57l495 -285v-50z" />
    <glyph glyph-name="question" unicode="?" horiz-adv-x="554" 
d="M56 489q-2 43 7.5 84t34.5 73t69.5 51.5t113.5 19.5q49 0 89 -12t68.5 -35t44 -57t15.5 -77q0 -29 -6.5 -52.5t-19 -44.5t-32 -40.5t-45.5 -41.5q-16 -13 -31 -26.5t-27 -29.5t-19.5 -34.5t-7.5 -42.5v-21h-73q-2 16 -1 35.5t5.5 39.5t14 39.5t26.5 37.5q19 20 42 39
t42 39t32 44t13 55q0 16 -6 35.5t-21 37t-40 29t-64 11.5q-15 0 -38.5 -3.5t-46 -18.5t-38.5 -46.5t-14 -87.5h-87zM223 109h99v-109h-99v109z" />
    <glyph glyph-name="at" unicode="@" horiz-adv-x="869" 
d="M520 337q0 59 -23 95.5t-73 36.5q-27 0 -46 -11t-31 -29t-17.5 -42t-5.5 -50q0 -21 4 -44t15 -42.5t30.5 -32t49.5 -12.5q31 0 50 13t29.5 33t14 42.5t3.5 42.5zM620 29q-46 -27 -89.5 -38.5t-96.5 -11.5q-77 0 -144.5 24t-118 71.5t-79.5 117t-29 159.5q0 82 29 150.5
t79 117t118 75.5t145 27q95 0 165 -29t116 -77.5t68.5 -111.5t22.5 -132q0 -39 -12 -79t-35 -72.5t-57 -52.5t-78 -20q-10 0 -22.5 1.5t-24.5 6.5t-23.5 14.5t-18.5 25.5q-5 -10 -14 -20t-23 -17.5t-35 -12t-50 -4.5q-81 0 -127 53.5t-46 143.5q0 41 11 77t32.5 62.5
t52.5 42t70 15.5q50 0 77 -16.5t41 -38.5h3v41h76v-252q0 -39 11.5 -48.5t26.5 -9.5q27 0 46.5 15t32 38.5t18 51.5t5.5 55q0 71 -24 126t-66 92.5t-98.5 56.5t-120.5 19q-72 0 -129 -26t-96.5 -69.5t-61 -100.5t-21.5 -118q0 -83 27.5 -142.5t72 -97.5t99.5 -56.5
t109 -18.5q57 0 95.5 15.5t61.5 30.5z" />
    <glyph glyph-name="A" unicode="A" 
d="M436 260l-122 345l-122 -345h244zM100 0h-101l265 700h100l265 -700h-101l-66 181h-296z" />
    <glyph glyph-name="B" unicode="B" horiz-adv-x="695" 
d="M182 79h195q24 0 52.5 3.5t52.5 16t40 37t16 67.5q0 34 -11.5 57t-32.5 37t-50.5 20.5t-66.5 6.5h-195v-245zM182 403h189q39 0 65 9t42 24t23 34.5t7 41.5q0 15 -4.5 34t-18.5 35.5t-40.5 28t-70.5 11.5h-192v-218zM395 700q64 0 104.5 -16.5t63.5 -42t32 -57t9 -62.5
q0 -28 -9 -53.5t-25 -45.5t-37 -33.5t-46 -17.5v-3q22 -4 47.5 -14t47.5 -30t37 -51.5t15 -78.5q0 -38 -11 -73t-39.5 -62t-76.5 -43.5t-123 -16.5h-296v700h307z" />
    <glyph glyph-name="C" unicode="C" horiz-adv-x="718" 
d="M677 232q-5 -38 -20 -82t-48.5 -82t-88.5 -63.5t-139 -25.5q-78 0 -140 24.5t-104.5 71t-65.5 113t-23 150.5q0 93 20.5 157.5t52 107t70.5 66.5t75.5 35.5t66.5 14t45 2.5q84 0 138 -22t86.5 -56.5t47 -76.5t18.5 -82h-94q-2 19 -10.5 46t-29.5 52t-58.5 42.5
t-97.5 17.5q-66 0 -110 -25.5t-70.5 -67.5t-38 -96t-11.5 -111q0 -61 16 -113t47 -90t74.5 -59.5t99.5 -21.5q42 0 77.5 13t61.5 36.5t41.5 55t17.5 69.5h94z" />
    <glyph glyph-name="D" unicode="D" horiz-adv-x="725" 
d="M182 79h131q135 0 200 65.5t65 205.5q0 79 -20.5 131.5t-54 83.5t-76 43.5t-87.5 12.5h-158v-542zM345 700q18 0 49.5 -2t68.5 -12.5t75.5 -32t69.5 -60t50.5 -97.5t19.5 -144q0 -86 -19 -145.5t-50 -98.5t-70.5 -61t-80.5 -32.5t-79.5 -12.5t-68.5 -2h-222v700h257z" />
    <glyph glyph-name="E" unicode="E" horiz-adv-x="618" 
d="M549 401v-79h-367v-243h416v-79h-510v700h499v-79h-405v-220h367z" />
    <glyph glyph-name="F" unicode="F" horiz-adv-x="574" 
d="M511 393v-79h-329v-314h-94v700h470v-79h-376v-228h329z" />
    <glyph glyph-name="G" unicode="G" horiz-adv-x="746" 
d="M685 365v-365h-73v113h-2q-30 -63 -90 -98.5t-143 -35.5q-63 0 -122 19.5t-105 64t-74 117t-28 177.5q0 89 24 157t69 114t108 69.5t141 23.5q70 0 121.5 -19.5t86 -51.5t53.5 -73t24 -84h-94q-2 24 -12 50.5t-32 48t-58.5 36t-90.5 14.5q-55 0 -94.5 -16t-66 -42
t-42.5 -58t-24 -64t-10.5 -60.5t-2.5 -47.5q0 -13 2 -40t10 -59.5t23.5 -67.5t42 -63.5t66 -47t95.5 -18.5q65 0 106 23.5t64.5 58t32.5 74.5t9 72h-200v79h286z" />
    <glyph glyph-name="H" unicode="H" horiz-adv-x="716" 
d="M182 0h-94v700h94v-292h352v292h94v-700h-94v329h-352v-329z" />
    <glyph glyph-name="I" unicode="I" horiz-adv-x="270" 
d="M182 700v-700h-94v700h94z" />
    <glyph glyph-name="J" unicode="J" horiz-adv-x="526" 
d="M120 232q0 -42 6 -74t19.5 -54.5t36.5 -34t59 -11.5q37 0 60 13t35.5 36t16.5 55.5t4 70.5v467h94v-458q0 -69 -11.5 -118.5t-36.5 -81.5t-65.5 -47.5t-97.5 -15.5q-27 0 -63.5 5.5t-70 27.5t-57 65.5t-23.5 118.5v36h94z" />
    <glyph glyph-name="K" unicode="K" horiz-adv-x="673" 
d="M528 700h127l-292 -288l311 -412h-125l-255 349l-112 -109v-240h-94v700h94v-347z" />
    <glyph glyph-name="L" unicode="L" horiz-adv-x="535" 
d="M538 0h-450v700h94v-621h356v-79z" />
    <glyph glyph-name="M" unicode="M" horiz-adv-x="896" 
d="M182 588h-2l2 -27v-561h-94v700h141l219 -576l219 576h141v-700h-94v561l2 27h-3l-227 -588h-76z" />
    <glyph glyph-name="N" unicode="N" horiz-adv-x="746" 
d="M182 0h-94v700h104l372 -555v555h94v-700h-103l-373 555v-555z" />
    <glyph glyph-name="O" unicode="O" horiz-adv-x="764" 
d="M148 350q0 -42 8.5 -93t33.5 -95.5t71 -74t121 -29.5q12 0 34 2t48 11t53 27.5t49 50.5t36 81t14 120q0 62 -14 115.5t-42.5 92.5t-73 61.5t-104.5 22.5q-53 0 -91.5 -16.5t-64.5 -42.5t-41.5 -58.5t-23.5 -65t-10.5 -61.5t-2.5 -48zM48 350q0 92 25 161.5t69 116
t105.5 70t134.5 23.5q58 0 117.5 -18t107.5 -60.5t78.5 -114t30.5 -178.5q0 -91 -22 -154.5t-55.5 -104.5t-73.5 -63.5t-77 -33.5t-66 -13t-40 -2t-40.5 2t-66.5 13t-77 33.5t-73.5 63.5t-55 104t-21.5 155z" />
    <glyph glyph-name="P" unicode="P" horiz-adv-x="645" 
d="M182 358h172q84 0 122 35t38 104q0 65 -39.5 94.5t-120.5 29.5h-172v-263zM373 700q54 0 97.5 -11t74.5 -35t48 -62.5t17 -92.5q0 -49 -13 -89.5t-42 -69.5t-76 -45t-115 -16h-182v-279h-94v700h285z" />
    <glyph glyph-name="Q" unicode="Q" horiz-adv-x="764" 
d="M553 131q32 41 47.5 93t15.5 126q0 98 -26.5 156t-63.5 88t-77 39t-67 9q-19 0 -43.5 -3.5t-50.5 -14.5t-51.5 -30.5t-45 -52t-31.5 -79.5t-12 -112q0 -41 8.5 -91.5t33.5 -95t71 -75t121 -30.5q12 0 27.5 1.5t31 4.5t30.5 8.5t27 13.5l-78 87l54 47zM694 -25l-52 -49
l-83 93q-5 -3 -18 -9.5t-35 -13.5t-53 -12t-71 -5q-102 0 -166.5 36.5t-102 92t-51.5 120.5t-14 122q0 30 5 69t18 80t36.5 81t60.5 71.5t89.5 50.5t124.5 19q73 0 134.5 -23.5t105.5 -70t69 -116t25 -161.5q0 -27 -2.5 -61.5t-13 -72.5t-30.5 -77.5t-55 -76.5z" />
    <glyph glyph-name="R" unicode="R" horiz-adv-x="687" 
d="M182 376h210q17 0 40.5 4.5t45.5 18t37 38t15 65.5q0 34 -11.5 57t-31.5 37t-48 19.5t-61 5.5h-196v-245zM88 700h310q19 0 43.5 -1.5t50.5 -8t50.5 -18.5t44 -32.5t31.5 -52t12 -75.5q0 -30 -8 -58.5t-23.5 -52t-38 -40t-50.5 -22.5v-3q35 -13 55 -31t30 -39.5
t12.5 -46.5t3.5 -52q1 -36 1.5 -61t2.5 -43.5t7.5 -33t16.5 -29.5h-99q-9 12 -14.5 23.5t-7.5 28t-3 39.5t-1 57q0 27 -3 53.5t-16 48t-39.5 34.5t-73.5 13h-200v-297h-94v700z" />
    <glyph glyph-name="S" unicode="S" horiz-adv-x="662" 
d="M142 222q-1 -35 12 -65t39 -52t63.5 -34.5t85.5 -12.5q47 0 79.5 11t53 29t30 41.5t9.5 48.5q0 32 -13 53.5t-33 35t-45.5 21.5t-49.5 13l-114.5 24.5t-96 32.5t-66 56.5t-24.5 95.5q0 49 19 87t54 63t84 38t108 13q65 0 112.5 -16.5t79 -44.5t48 -65t19.5 -77h-94
q-5 43 -25.5 68t-46.5 37.5t-53 15.5t-43 3q-73 0 -117.5 -31.5t-44.5 -85.5q0 -32 14.5 -51.5t38.5 -32t55.5 -19.5t66.5 -14q47 -9 94.5 -20.5t86 -34.5t62.5 -61.5t24 -101.5q0 -52 -16.5 -88t-42.5 -59.5t-58 -36.5t-62.5 -19t-57 -7t-40.5 -1q-37 0 -85.5 7t-92.5 31.5
t-75.5 73t-35.5 131.5h94z" />
    <glyph glyph-name="T" unicode="T" horiz-adv-x="581" 
d="M16 621v79h549v-79h-227v-621h-94v621h-228z" />
    <glyph glyph-name="U" unicode="U" horiz-adv-x="702" 
d="M169 700v-417q0 -32 3.5 -71.5t21.5 -73.5t54.5 -57t102.5 -23q52 0 87 14.5t56 43t30 70.5t9 97v417h94v-429q0 -71 -15 -120.5t-39.5 -82t-55 -50.5t-61.5 -26.5t-58.5 -10.5t-46.5 -2q-64 0 -109 13.5t-76 35.5t-49 52t-27.5 62t-12 65.5t-2.5 63.5v429h94z" />
    <glyph glyph-name="V" unicode="V" horiz-adv-x="600" 
d="M498 700h103l-245 -700h-112l-245 700h103l198 -603z" />
    <glyph glyph-name="W" unicode="W" horiz-adv-x="902" 
d="M306 0h-120l-186 700h106l146 -588l145 588h108l145 -588l146 588h106l-186 -700h-120l-145 589z" />
    <glyph glyph-name="X" unicode="X" horiz-adv-x="612" 
d="M481 700h117l-232 -342l245 -358h-121l-184 291l-184 -291h-121l245 358l-232 342h117l175 -275z" />
    <glyph glyph-name="Y" unicode="Y" horiz-adv-x="611" 
d="M500 700h112l-259 -408v-292h-94v292l-260 408h112l195 -324z" />
    <glyph glyph-name="Z" unicode="Z" horiz-adv-x="599" 
d="M550 700v-75l-406 -546h426v-79h-541v86l411 535h-389v79h499z" />
    <glyph glyph-name="bracketleft" unicode="[" horiz-adv-x="376" 
d="M320 700v-62h-123v-761h123v-62h-211v885h211z" />
    <glyph glyph-name="backslash" unicode="\" horiz-adv-x="436" 
d="M360 -185l-357 885h73l357 -885h-73z" />
    <glyph glyph-name="bracketright" unicode="]" horiz-adv-x="376" 
d="M267 700v-885h-211v62h122v761h-122v62h211z" />
    <glyph glyph-name="asciicircum" unicode="^" horiz-adv-x="448" 
d="M269 700l120 -218h-70l-95 175l-95 -175h-70l120 218h90z" />
    <glyph glyph-name="underscore" unicode="_" horiz-adv-x="497" 
d="M0 -120h497v-65h-497v65z" />
    <glyph glyph-name="grave" unicode="`" horiz-adv-x="318" 
d="M221 568h-80l-96 132h106z" />
    <glyph glyph-name="a" unicode="a" horiz-adv-x="559" 
d="M388 260q-10 -8 -21 -11.5t-24 -5.5t-29.5 -3.5t-37.5 -4.5l-55.5 -9.5t-46.5 -14t-31.5 -27.5t-11.5 -48q0 -45 27.5 -69.5t70.5 -24.5q26 0 52.5 7.5t49 27t37.5 53.5t18 87zM58 358q0 25 8.5 55t32 55.5t66 42.5t109.5 17q31 0 66.5 -6t66 -24t50.5 -51.5t19 -89.5
l-5 -235q0 -15 0.5 -26.5t5.5 -19t16 -11.5t31 -3v-62q-9 -2 -17.5 -3t-22.5 -1q-18 0 -33.5 2.5t-27 10t-19 22t-11.5 39.5q-13 -24 -32 -41t-42 -28t-48.5 -16t-51.5 -5q-80 0 -129.5 36.5t-49.5 116.5q0 33 10 59.5t38 47t76 34t125 20.5q28 2 47 4t30.5 8.5t16.5 19.5
t5 38q0 9 -2 26t-13 34t-34 29.5t-65 12.5q-12 0 -34.5 -2t-44.5 -12.5t-38 -32t-15 -61.5h-84z" />
    <glyph glyph-name="b" unicode="b" horiz-adv-x="607" 
d="M157 257q0 -60 13 -101t34.5 -66.5t48.5 -36.5t56 -11q31 0 60 11t51 36t35 66t13 100q0 57 -12.5 97t-33.5 65.5t-49 37t-59 11.5q-32 0 -60.5 -12t-50 -37t-34 -65t-12.5 -95zM163 700v-258q21 45 66.5 65.5t100.5 20.5t93.5 -16t64 -41t40.5 -56t22 -61.5t9 -56.5
t2 -42q0 -83 -23 -136.5t-58 -84t-76 -42.5t-76 -12q-32 0 -57.5 7.5t-46 20t-36.5 28.5t-28 34h-3v-70h-82v700h88z" />
    <glyph glyph-name="c" unicode="c" horiz-adv-x="554" 
d="M515 181q-2 -23 -11.5 -57t-33 -66t-66 -55t-110.5 -23q-13 0 -36 2t-51 10t-56.5 25.5t-51.5 48t-38 77.5t-15 115q0 44 10 92t37 87.5t74 65t121 25.5q54 0 94 -14.5t67 -39.5t42.5 -57t19.5 -68h-84q-7 42 -25 66t-39 35t-41.5 13.5t-31.5 2.5q-41 0 -70 -16.5
t-47 -44.5t-26 -66t-8 -81t9 -82t27.5 -69t48.5 -47.5t72 -17.5q37 0 62.5 14t41.5 34.5t23 45t8 45.5h84z" />
    <glyph glyph-name="d" unicode="d" horiz-adv-x="605" 
d="M139 255q0 -72 17.5 -114.5t42 -64t51.5 -28t46 -6.5q29 0 56.5 11.5t48.5 37t34 66.5t13 100q0 55 -12.5 94.5t-34.5 65t-50.5 37.5t-59.5 12q-32 0 -59.5 -12t-48 -37.5t-32.5 -65.5t-12 -96zM530 700v-700h-82v70h-3q-6 -12 -18 -28t-32 -29.5t-49 -23t-69 -9.5
q-56 0 -99 20t-72 56.5t-44.5 87t-15.5 111.5q0 40 8 87.5t33 89t69.5 69t118.5 27.5q51 0 93.5 -17t73.5 -69v258h88z" />
    <glyph glyph-name="e" unicode="e" horiz-adv-x="576" 
d="M437 296q-1 25 -7 55t-21.5 55.5t-42.5 42.5t-70 17q-48 0 -79 -17.5t-48.5 -43.5t-23.5 -55.5t-6 -53.5h298zM525 147q-5 -27 -18.5 -56.5t-39 -54t-65.5 -40.5t-99 -16q-63 0 -106.5 17t-72 43.5t-44.5 58.5t-23.5 62t-9 54.5t-1.5 36.5q0 17 2 44.5t10 58t24 61.5
t43.5 56t68.5 40.5t100 15.5q76 0 121.5 -26.5t70 -66.5t33 -87.5t10.5 -88.5q0 -6 0.5 -12.5t0.5 -12.5h-391q0 -33 9 -67t28 -61.5t49.5 -45.5t74.5 -18q31 0 56 8.5t42.5 23t28 33.5t14.5 40h84z" />
    <glyph glyph-name="f" unicode="f" horiz-adv-x="325" 
d="M309 446h-111v-446h-88v446h-94v62h94v69q0 66 33 96.5t101 30.5q14 0 34 -1.5t31 -2.5v-62q-32 2 -43.5 1.5t-18.5 -0.5q-18 0 -28 -8t-14.5 -19t-5.5 -23t-1 -20v-61h111v-62z" />
    <glyph glyph-name="g" unicode="g" horiz-adv-x="606" 
d="M299 42q12 0 37 6.5t50 29t44 65.5t19 117q0 96 -40 151t-118 55q-37 0 -62.5 -12.5t-42 -31.5t-25 -43t-13 -46.5t-5 -42t-0.5 -29.5q0 -77 18.5 -121t44 -65.5t52 -27t41.5 -5.5zM169 -57q6 -22 20 -36t32.5 -22.5t40 -11.5t41.5 -3q52 0 80 21t41.5 48t16 53t2.5 36
v55q-18 -29 -35 -48.5t-36.5 -31.5t-42 -17.5t-50.5 -5.5q-45 0 -86.5 16t-73 49.5t-50.5 86t-19 126.5q0 12 1 36.5t7 54.5t19.5 61.5t38 58t62 43t92.5 16.5q63 0 107.5 -23t68.5 -67h3v70h82v-495q0 -49 -13.5 -83t-34.5 -57t-47.5 -36t-51.5 -20t-47 -8.5t-34 -1.5
q-18 0 -50 2t-65.5 14.5t-62 40t-40.5 79.5h84z" />
    <glyph glyph-name="h" unicode="h" horiz-adv-x="578" 
d="M163 700v-263q35 48 77.5 69.5t96.5 21.5q42 0 71 -11t47.5 -29t28 -39.5t14 -42.5t5 -39.5t0.5 -28.5v-338h-88v311q0 22 -1 49t-11 50.5t-31.5 39.5t-62.5 16q-18 0 -43 -6t-48 -25.5t-39 -57t-16 -100.5v-277h-88v700h88z" />
    <glyph glyph-name="i" unicode="i" horiz-adv-x="234" 
d="M73 700h88v-92h-88v92zM161 508v-508h-88v508h88z" />
    <glyph glyph-name="j" unicode="j" horiz-adv-x="237" 
d="M76 700h88v-92h-88v92zM164 508v-555q0 -34 -5.5 -60.5t-19 -44.5t-37 -27.5t-58.5 -9.5q-13 0 -30.5 1.5t-26.5 2.5v62q35 6 53 11t26 13.5t9 23t1 39.5v544h88z" />
    <glyph glyph-name="k" unicode="k" horiz-adv-x="529" 
d="M405 508h105l-200 -196l220 -312h-102l-179 258l-86 -85v-173h-88v700h88v-434z" />
    <glyph glyph-name="l" unicode="l" horiz-adv-x="238" 
d="M163 700v-700h-88v700h88z" />
    <glyph glyph-name="m" unicode="m" horiz-adv-x="878" 
d="M163 508v-69l-1 -6q10 22 27 39.5t38 30t44.5 19t47.5 6.5q33 0 58 -9.5t42.5 -25t28.5 -35t16 -39.5q7 15 21 33.5t35 35.5t50.5 28.5t69.5 11.5q58 0 91 -23.5t49 -55.5t19.5 -66t3.5 -55v-328h-88v322q0 20 -2.5 45t-12.5 47t-29.5 37t-53.5 15q-22 0 -46 -7
t-43.5 -25.5t-32 -50t-12.5 -80.5v-303h-88v321q0 28 -4 54t-15 46t-30 32.5t-49 12.5q-27 0 -51.5 -11.5t-43 -32.5t-29 -51.5t-10.5 -67.5v-303h-88v508h88z" />
    <glyph glyph-name="n" unicode="n" horiz-adv-x="579" 
d="M163 508v-71q26 38 70 64.5t104 26.5q50 0 82.5 -15.5t51 -41.5t26 -60.5t7.5 -72.5v-338h-88v311q0 20 -1.5 47t-11 51t-31.5 40.5t-63 16.5q-18 0 -43 -6t-48 -25.5t-39 -57t-16 -100.5v-277h-88v508h88z" />
    <glyph glyph-name="o" unicode="o" horiz-adv-x="592" 
d="M139 255q0 -76 19 -119t45 -64t52 -25.5t41 -4.5t41 4.5t52 25.5t45 64t19 119t-19 119t-45 64t-52 25.5t-41 4.5t-41 -4.5t-52 -25.5t-45 -64t-19 -119zM46 254q0 51 13 100t42.5 87.5t77.5 62.5t117 24t117 -24t77.5 -62.5t42.5 -87.5t13 -100t-13 -100t-42.5 -87.5
t-77.5 -62.5t-117 -24t-117 24t-77.5 62.5t-42.5 87.5t-13 100z" />
    <glyph glyph-name="p" unicode="p" horiz-adv-x="603" 
d="M157 252q0 -59 15 -99t38.5 -65t51 -35.5t52.5 -10.5q27 0 53.5 10.5t48 35t35 65t13.5 101.5q0 98 -40 155t-115 57q-17 0 -43 -6.5t-50 -28.5t-41.5 -64.5t-17.5 -114.5zM157 508v-70h3q19 29 41.5 46.5t45 27.5t43.5 13t38 3q47 0 88.5 -16t73 -49.5t49.5 -85.5
t18 -123q0 -74 -19 -126t-51 -85t-73 -48t-84 -15q-8 0 -28.5 2t-45.5 11.5t-50.5 28t-42.5 51.5v-258h-88v693h82z" />
    <glyph glyph-name="q" unicode="q" horiz-adv-x="604" 
d="M139 254q0 -61 13.5 -101.5t35 -65t49 -35t54.5 -10.5q25 0 52.5 10.5t50.5 35t38 65t15 99.5q0 63 -14 104.5t-35.5 66t-48.5 34t-53 9.5q-31 0 -59.5 -11.5t-50 -36.5t-34.5 -65.5t-13 -98.5zM529 508v-693h-88v257q-4 -8 -14.5 -23.5t-30 -30.5t-49.5 -26.5t-73 -11.5
q-72 0 -117 29t-69.5 71.5t-33 90t-8.5 83.5q0 56 14 105.5t43 87t72 59.5t102 22q63 0 103.5 -27t63.5 -63h3v70h82z" />
    <glyph glyph-name="r" unicode="r" horiz-adv-x="375" 
d="M359 466q-45 -2 -79.5 -12t-59 -31t-39 -54t-17.5 -81q-1 -14 -1 -27v-27v-234h-88v508h88v-98h2q9 28 26.5 49.5t40 36t48.5 22.5t53 9l26 1v-62z" />
    <glyph glyph-name="s" unicode="s" horiz-adv-x="512" 
d="M127 151q1 -30 13 -51t31.5 -34t44 -18.5t49.5 -5.5q44 0 68 12t35 28t12.5 32t1.5 24q0 12 -2.5 23.5t-13.5 22t-32.5 20t-58.5 18.5l-54 12q-32 7 -61 16t-51 25t-35 41.5t-13 65.5q0 42 17 70.5t45 45t62 23.5t69 7q65 0 104.5 -16t61.5 -39.5t30 -50t10 -47.5h-84
q-1 11 -5.5 26.5t-17 30t-35.5 24.5t-61 10q-4 0 -21 -1t-35.5 -8.5t-33.5 -24t-15 -46.5q0 -27 11.5 -43t31 -25t45 -14.5l52.5 -11.5q39 -9 72 -18.5t57.5 -25t38 -40.5t13.5 -64q0 -40 -14 -67.5t-35 -46t-46.5 -28.5t-49 -15t-41 -6t-23.5 -1q-57 0 -98.5 13.5t-69.5 37
t-42 54.5t-15 66h88z" />
    <glyph glyph-name="t" unicode="t" horiz-adv-x="326" 
d="M107 508v152h88v-152h108v-62h-108v-323q0 -14 0.5 -26.5t5 -22.5t15.5 -15.5t32 -5.5q14 0 28 2.5t27 6.5v-62q-21 -9 -45 -14.5t-47 -5.5q-39 0 -60.5 12t-31 30.5t-11 40.5t-1.5 42v341h-91v62h91z" />
    <glyph glyph-name="u" unicode="u" horiz-adv-x="579" 
d="M416 0v72h-2q-19 -33 -46 -51.5t-52.5 -27.5t-46 -11t-27.5 -2q-56 0 -89.5 19t-50.5 48t-22 62t-5 62v337h88v-311q0 -48 8 -78t22 -47.5t33.5 -23.5t43.5 -6q55 0 85 24.5t43.5 56.5t15.5 63t2 45v277h88v-508h-88z" />
    <glyph glyph-name="v" unicode="v" horiz-adv-x="476" 
d="M382 508h95l-188 -508h-102l-188 508h95l144 -420z" />
    <glyph glyph-name="w" unicode="w" horiz-adv-x="726" 
d="M257 0h-94l-164 508h91l124 -407l106 407h86l106 -407l124 407h91l-164 -508h-94l-106 407z" />
    <glyph glyph-name="x" unicode="x" horiz-adv-x="490" 
d="M375 508h98l-178 -243l192 -265h-98l-144 209l-144 -209h-98l192 265l-178 243h98l130 -188z" />
    <glyph glyph-name="y" unicode="y" horiz-adv-x="504" 
d="M94 -119q20 -3 29 -4t15 -1q19 0 32 7t22 19t14.5 27.5l11.5 32.5l12 38l-220 508h105l163 -411l135 411h88l-202 -568l-14 -40.5t-22.5 -42t-37.5 -33t-59 -13.5q-21 0 -39.5 1t-32.5 4v65z" />
    <glyph glyph-name="z" unicode="z" horiz-adv-x="474" 
d="M430 508v-62l-295 -384h310v-62h-416v62l304 384h-283v62h380z" />
    <glyph glyph-name="braceleft" unicode="{" horiz-adv-x="372" 
d="M78 290q12 1 27.5 7t29 20.5t23 40.5t9.5 67q0 14 -0.5 27t-1.5 27t-1.5 26.5t-0.5 26.5q0 23 4.5 51t21 52.5t47 43t83.5 21.5v-53q-70 -15 -70 -95q0 -26 3 -53q3 -29 3 -57q0 -69 -27.5 -112.5t-88.5 -71.5v-2q61 -28 88.5 -71.5t27.5 -112.5q0 -29 -3 -57
q-3 -27 -3 -53q0 -80 70 -95v-53q-53 3 -83.5 21.5t-47 43t-21 52.5t-4.5 51q0 14 0.5 26.5t1.5 26.5t1.5 27t0.5 27q0 41 -9.5 67t-23 40.5t-29 20t-27.5 7.5v66z" />
    <glyph glyph-name="bar" unicode="|" horiz-adv-x="492" 
d="M210 829h72v-1053h-72v1053z" />
    <glyph glyph-name="braceright" unicode="}" horiz-adv-x="372" 
d="M294 224q-12 -2 -27.5 -7.5t-29 -20t-23 -40.5t-9.5 -67q0 -14 0.5 -27t1.5 -27t1.5 -26.5t0.5 -26.5q0 -23 -4.5 -51t-21 -52.5t-47.5 -43t-83 -21.5v53q70 15 70 95q0 26 -3 53q-3 28 -3 57q0 69 27.5 112.5t88.5 71.5v2q-61 28 -88.5 71.5t-27.5 112.5q0 28 3 57
q3 27 3 53q0 80 -70 95v53q52 -3 83 -21.5t47.5 -43t21 -52.5t4.5 -51q0 -14 -0.5 -26.5t-1.5 -26.5t-1.5 -27t-0.5 -27q0 -41 9.5 -67t23 -40.5t29 -20.5t27.5 -7v-66z" />
    <glyph glyph-name="asciitilde" unicode="~" horiz-adv-x="609" 
d="M53 304q7 19 19 42t28.5 42.5t38 32.5t49.5 13q22 0 45.5 -7t41.5 -16l50.5 -27l50.5 -27q1 -1 17 -7.5t36 -6.5q7 0 17.5 3t21.5 12t23 25t22 42l43 -18q-7 -20 -18.5 -42.5t-28.5 -42t-39 -32.5t-49 -13q-22 0 -45.5 7t-42.5 16l-51 28t-51 26q-11 5 -26 9t-26 4
q-29 0 -51 -24t-33 -57z" />
    <glyph glyph-name="uni00A0" unicode="&#xa0;" horiz-adv-x="233" 
 />
    <glyph glyph-name="exclamdown" unicode="&#xa1;" horiz-adv-x="317" 
d="M208 399h-99v109h99v-109zM109 -185v262l25 231h49l25 -231v-262h-99z" />
    <glyph glyph-name="cent" unicode="&#xa2;" horiz-adv-x="590" 
d="M285 466q-37 -3 -61.5 -23.5t-39.5 -50t-21 -65t-6 -69.5q0 -38 7 -74t22 -65.5t39.5 -50t59.5 -26.5v424zM533 181q-4 -38 -18 -74t-39 -64t-59.5 -45t-78.5 -18v-72h-53v72q-62 1 -104 26.5t-68 65.5t-37.5 89t-11.5 97q0 61 15.5 110.5t44.5 84.5t69.5 54.5t91.5 20.5
v66h53v-66q35 -2 67.5 -14.5t58.5 -35.5t43 -55.5t22 -73.5h-84q-3 19 -10.5 39t-20.5 36t-32 27.5t-44 14.5v-424q27 4 47.5 17.5t34 33t20.5 42.5t9 46h84z" />
    <glyph glyph-name="sterling" unicode="&#xa3;" horiz-adv-x="590" 
d="M556 46q-27 -27 -57.5 -47t-74.5 -20q-12 0 -40 4t-82 26l-34.5 15t-49.5 7q-21 0 -48.5 -7t-59.5 -31l-45 65q46 32 73.5 72t27.5 95q0 22 -5 40.5t-11 38.5h-104v61h73q-10 21 -17 38t-11.5 32.5t-7 32t-2.5 37.5q0 55 16 92t41 61t54.5 37t56.5 18.5t47.5 6.5t27.5 1
q28 0 65.5 -6.5t72 -31t59 -72t24.5 -129.5h-89v32q0 28 -8 54t-24.5 45.5t-42.5 31t-63 11.5q-34 0 -61 -12t-45.5 -33t-28.5 -49.5t-10 -62.5q0 -20 3.5 -35t9.5 -30t14.5 -31.5l19.5 -37.5h141v-61h-117q5 -16 7 -30t2 -32q0 -34 -11.5 -70t-53.5 -74l2 -6q16 7 33.5 9
t39.5 2q27 0 44.5 -6t37.5 -14q29 -12 48 -17.5t34 -5.5q29 0 50.5 15t34.5 31z" />
    <glyph glyph-name="currency" unicode="&#xa4;" horiz-adv-x="590" 
d="M82 330q0 -44 16.5 -83t45.5 -68t68 -46t83 -17q45 0 84 17t68 46.5t46 68t17 82.5t-17 83t-46.5 68.5t-68.5 46.5t-83 17t-82.5 -17t-67.5 -46.5t-46 -68.5t-17 -83zM60 164q-29 41 -40.5 84t-11.5 82q0 30 9.5 75.5t42.5 90.5l-111 112l66 66l110 -112q43 33 87.5 45
t82.5 12q36 0 64 -7t49.5 -16t35.5 -18.5t21 -15.5l111 112l66 -66l-111 -112q29 -40 41 -83t12 -83q0 -39 -12 -82t-41 -84l111 -111l-66 -66l-111 111q-8 -6 -22 -15.5t-35 -18.5t-49 -15.5t-64 -6.5q-35 0 -63.5 6.5t-49.5 15.5t-35.5 18.5t-21.5 15.5l-110 -111l-66 66z
" />
    <glyph glyph-name="yen" unicode="&#xa5;" horiz-adv-x="590" 
d="M489 700h112l-259 -408v-39h105v-46h-105v-32h105v-46h-105v-129h-94v129h-105v46h105v32h-105v46h105v39l-260 408h112l195 -324z" />
    <glyph glyph-name="brokenbar" unicode="&#xa6;" horiz-adv-x="492" 
d="M210 399v430h72v-430h-72zM282 206v-430h-72v430h72z" />
    <glyph glyph-name="section" unicode="&#xa7;" horiz-adv-x="585" 
d="M335 150q15 4 32 13.5t32 24.5t24.5 37t9.5 53q0 25 -8.5 46t-29.5 39t-57 35.5t-91 37.5q-53 -15 -74.5 -47.5t-21.5 -69.5t13.5 -61t37.5 -42t58 -33zM381 557q-1 35 -9.5 55t-21.5 30.5t-28 13.5t-29 3q-38 0 -56.5 -20t-18.5 -51q0 -28 13 -46.5t34.5 -31.5
t48.5 -23.5l55 -22.5q35 -15 63 -33t47 -40.5t29 -51t10 -65.5q0 -43 -14 -71.5t-33.5 -47t-40.5 -27.5t-34 -13q24 -8 36.5 -24.5t18 -34.5t6 -33t0.5 -20q0 -36 -10.5 -61t-27 -41t-36.5 -25.5t-39.5 -13.5t-36 -5t-25.5 -1q-59 0 -92.5 21t-50.5 49.5t-21 58.5t-4 48
l74 -1q-1 -18 3.5 -37.5t15.5 -35.5t29 -26.5t45 -10.5q28 0 46 7t28.5 18t14 24.5t3.5 26.5q0 26 -11 43t-29.5 29.5t-44 22.5l-54.5 22q-27 11 -56 26t-54 38.5t-41 56t-16 78.5q0 70 34.5 109t84.5 50q-29 20 -41 48t-12 69q0 27 10 51t30 43t50 30t71 11q15 0 42.5 -3.5
t54.5 -19.5t46.5 -50t17.5 -95h-74z" />
    <glyph glyph-name="dieresis" unicode="&#xa8;" horiz-adv-x="392" 
d="M251 700h88v-92h-88v92zM53 700h88v-92h-88v92z" />
    <glyph glyph-name="copyright" unicode="&#xa9;" horiz-adv-x="812" 
d="M554 297q-7 -40 -22 -64.5t-34.5 -38t-42.5 -18t-45 -4.5q-51 0 -83.5 18.5t-51 45.5t-25 58t-6.5 57q0 57 16 93.5t40 57.5t52.5 29t53.5 8q21 0 45 -5.5t45 -18.5t35 -35.5t14 -55.5h-62q-1 8 -4 19.5t-11.5 21.5t-23 17t-38.5 7q-32 0 -50.5 -15t-28.5 -36.5
t-12.5 -45t-2.5 -41.5q0 -14 3.5 -36t14 -42.5t30 -35.5t51.5 -15q23 0 37.5 8.5t23 20t12 24.5t4.5 22h66zM122 350q0 -62 22 -116t60.5 -94.5t90 -63.5t111.5 -23t111.5 23t90 63.5t60.5 94.5t22 116t-22 116t-60.5 94.5t-90 63.5t-111.5 23t-111.5 -23t-90 -63.5
t-60.5 -94.5t-22 -116zM56 350q0 72 27 136t74.5 111.5t111 75t137.5 27.5q73 0 137 -27.5t111.5 -75t74.5 -111.5t27 -136t-27 -136t-74.5 -111.5t-111.5 -75t-137 -27.5q-74 0 -137.5 27.5t-111 75t-74.5 111.5t-27 136z" />
    <glyph glyph-name="ordfeminine" unicode="&#xaa;" horiz-adv-x="374" 
d="M40 354h299v-31h-299v31zM257 560q-4 -4 -8 -5.5t-11 -2.5t-18.5 -2.5t-29.5 -4.5l-33.5 -5.5t-27.5 -8.5t-19 -16.5t-7 -28.5q0 -28 16.5 -42.5t42.5 -14.5q15 0 31 4.5t29.5 16.5t23 32t10.5 52zM59 619q0 16 5 34t19 33t39.5 25t66.5 10q45 0 69.5 -12.5t36 -30
t13.5 -34.5t2 -26l-3 -141q0 -17 4 -27.5t28 -8.5v-37q-5 -1 -10.5 -1.5t-13.5 -0.5t-17 1t-17 5t-14 13t-7 25q-17 -29 -46 -41.5t-58 -12.5q-22 0 -41.5 4.5t-34.5 15t-23.5 28.5t-8.5 44q0 33 17 51t40.5 27.5t49 12.5l43.5 5q16 1 27 2t18 5t10.5 12t3.5 23q0 4 -1 14
t-7 20.5t-20 19t-40 8.5q-12 0 -25.5 -1.5t-25 -8.5t-20 -20t-9.5 -35h-50z" />
    <glyph glyph-name="guillemotleft" unicode="&#xab;" horiz-adv-x="468" 
d="M390 182v-82l-149 131v82l149 131v-82l-106 -90zM214 182v-82l-149 131v82l149 131v-82l-106 -90z" />
    <glyph glyph-name="logicalnot" unicode="&#xac;" horiz-adv-x="606" 
d="M553 388v-205h-66v139h-435v66h501z" />
    <glyph glyph-name="uni00AD" unicode="&#xad;" horiz-adv-x="428" 
d="M82 310h264v-85h-264v85z" />
    <glyph glyph-name="registered" unicode="&#xae;" horiz-adv-x="812" 
d="M343 371h75q20 0 32.5 5t19.5 13.5t9.5 18.5t2.5 19q0 32 -19.5 42.5t-51.5 10.5h-68v-109zM278 528h155q14 0 33.5 -3t37.5 -13.5t31 -30.5t13 -54q0 -9 -2 -19.5t-8 -21.5t-18 -21t-31 -18v-2q17 -3 26.5 -12t14.5 -20.5t6.5 -25t2.5 -26.5q1 -20 1.5 -33t1.5 -21.5
t3.5 -15t7.5 -13.5h-67q-5 5 -7 10t-3 13.5t-1.5 21.5t-1.5 35q0 12 -2 23.5t-9.5 21t-22.5 15t-43 5.5h-53v-145h-65v350zM122 350q0 -62 22 -116t60.5 -94.5t90 -63.5t111.5 -23t111.5 23t90 63.5t60.5 94.5t22 116t-22 116t-60.5 94.5t-90 63.5t-111.5 23t-111.5 -23
t-90 -63.5t-60.5 -94.5t-22 -116zM56 350q0 72 27 136t74.5 111.5t111 75t137.5 27.5q73 0 137 -27.5t111.5 -75t74.5 -111.5t27 -136t-27 -136t-74.5 -111.5t-111.5 -75t-137 -27.5q-74 0 -137.5 27.5t-111 75t-74.5 111.5t-27 136z" />
    <glyph glyph-name="macron" unicode="&#xaf;" horiz-adv-x="422" 
d="M53 673h316v-60h-158h-158v60z" />
    <glyph glyph-name="degree" unicode="&#xb0;" horiz-adv-x="272" 
d="M86 605q0 -20 15 -35t35 -15t35 15t15 35t-15 35t-35 15t-35 -15t-15 -35zM40 605q0 40 28 68t68 28t68 -28t28 -68t-28 -68t-68 -28t-68 28t-28 68z" />
    <glyph glyph-name="plusminus" unicode="&#xb1;" horiz-adv-x="608" 
d="M555 145v-65h-502v65h502zM271 452v198h66v-198h218v-65h-218v-178h-66v178h-218v65h218z" />
    <glyph glyph-name="twosuperior" unicode="&#xb2;" horiz-adv-x="366" 
d="M325 280h-285q1 38 11 65t28.5 48.5t44.5 39.5t58 38q18 11 33.5 22.5t27 24.5t18.5 29.5t7 37.5q0 12 -3.5 26t-12.5 26t-25.5 20t-42.5 8q-42 0 -64.5 -22.5t-22.5 -60.5v-16h-56v13q0 9 3.5 31.5t18 45t43 40t79.5 17.5q63 0 102 -33t39 -95q0 -34 -12 -58.5
t-31.5 -43.5t-43.5 -34l-48 -30q-47 -30 -65.5 -50t-22.5 -41h222v-48z" />
    <glyph glyph-name="threesuperior" unicode="&#xb3;" horiz-adv-x="366" 
d="M91 408q0 -29 10 -47t24 -28.5t29 -14t27 -3.5q8 0 23.5 2t30.5 10.5t26.5 25.5t11.5 48q0 35 -20 54.5t-54 19.5h-43v48h17q7 0 22 1.5t30 8t26.5 21t11.5 41.5q0 10 -3.5 22.5t-12.5 23t-25 17.5t-40 7q-42 0 -61 -24t-21 -69h-52q0 22 5.5 47t20.5 46t41.5 34.5
t68.5 13.5q61 0 97 -31t36 -85q0 -21 -6.5 -37t-16.5 -27t-22 -18t-24 -11v-3q32 -5 56.5 -30.5t24.5 -73.5q0 -61 -39.5 -95.5t-105.5 -34.5q-45 0 -73.5 14.5t-44.5 35.5t-22 45.5t-7 45.5h54z" />
    <glyph glyph-name="acute" unicode="&#xb4;" horiz-adv-x="318" 
d="M273 700l-96 -132h-80l70 132h106z" />
    <glyph glyph-name="mu" unicode="&#xb5;" horiz-adv-x="586" 
d="M176 -185h-88v693h88v-277q0 -14 1.5 -44t12 -60.5t34.5 -53.5t69 -23q43 0 66.5 21t34.5 50t13.5 59.5t2.5 50.5v277h88v-386q0 -11 1 -22.5t5 -20.5t12.5 -14.5t24.5 -3.5l10 1v-62q-15 -2 -25 -3t-18 -1q-31 0 -50 6t-29.5 15.5t-14.5 21t-4 23.5q-13 -25 -28 -41
t-30.5 -25t-30.5 -12.5t-28 -3.5q-33 0 -65 18.5t-52 53.5v-237z" />
    <glyph glyph-name="paragraph" unicode="&#xb6;" horiz-adv-x="497" 
d="M365 700h62v-885h-62v885zM208 370q-35 1 -65 13.5t-52 34.5t-35 51.5t-13 65.5q0 34 13 64.5t35.5 52.5t52.5 35t64 13h62v-885h-62v555z" />
    <glyph glyph-name="periodcentered" unicode="&#xb7;" horiz-adv-x="256" 
d="M79 323h99v-110h-99v110z" />
    <glyph glyph-name="cedilla" unicode="&#xb8;" horiz-adv-x="304" 
d="M63 -176q8 -3 22 -5.5t40 -2.5q34 0 48.5 10.5t14.5 26.5q0 15 -9 22.5t-22 11t-28 3.5h-27h-17l15 52h32q43 0 69 -9.5t40.5 -24t19 -32t4.5 -32.5q0 -13 -5 -27.5t-19 -27t-39 -21t-65 -8.5q-11 0 -33.5 1.5t-57.5 6.5z" />
    <glyph glyph-name="onesuperior" unicode="&#xb9;" horiz-adv-x="366" 
d="M88 625h12q38 0 67 20t34 55h39v-420h-56v316h-96v29z" />
    <glyph glyph-name="ordmasculine" unicode="&#xba;" horiz-adv-x="391" 
d="M46 354h299v-31h-299v31zM102 557q0 -9 1.5 -30.5t10.5 -43t28 -38t53 -16.5t53 16.5t28 38.5t11 43t2 30q0 46 -11.5 71.5t-26.5 38t-31 15t-25 2.5t-24.5 -2.5t-30.5 -15t-26.5 -38t-11.5 -71.5zM46 557q0 27 6.5 56t23.5 53t46 39.5t73 15.5q45 0 74 -15.5t46 -39.5
t23.5 -53t6.5 -56t-6.5 -56t-23.5 -53.5t-46 -40t-74 -15.5q-44 0 -73 15.5t-46 40t-23.5 53.5t-6.5 56z" />
    <glyph glyph-name="guillemotright" unicode="&#xbb;" horiz-adv-x="468" 
d="M78 362v82l149 -131v-82l-149 -131v82l106 90zM254 362v82l149 -131v-82l-149 -131v82l106 90z" />
    <glyph glyph-name="onequarter" unicode="&#xbc;" horiz-adv-x="826" 
d="M630 700h56l-450 -700h-56zM88 625h12q38 0 67 20t34 55h39v-420h-56v316h-96v29zM681 145v201l-144 -201h144zM483 97v48l197 275h57v-275h66v-48h-66v-97h-56v97h-198z" />
    <glyph glyph-name="onehalf" unicode="&#xbd;" horiz-adv-x="826" 
d="M590 700h56l-450 -700h-56zM785 0h-285q1 38 11 65t28.5 48.5t44.5 39.5t58 38q18 11 33.5 22.5t27 24.5t18.5 29.5t7 37.5q0 12 -3.5 26t-12.5 26t-25.5 20t-42.5 8q-42 0 -64.5 -22.5t-22.5 -60.5v-16h-56v13q0 9 3.5 31.5t18 45t43 40t79.5 17.5q63 0 102 -33t39 -95
q0 -34 -12 -58.5t-31.5 -43.5t-43.5 -34l-48 -30q-47 -30 -65.5 -50t-22.5 -41h222v-48zM88 625h12q38 0 67 20t34 55h39v-420h-56v316h-96v29z" />
    <glyph glyph-name="threequarters" unicode="&#xbe;" horiz-adv-x="826" 
d="M650 700h56l-450 -700h-56zM681 145v201l-144 -201h144zM483 97v48l197 275h57v-275h66v-48h-66v-97h-56v97h-198zM91 408q0 -29 10 -47t24 -28.5t29 -14t27 -3.5q8 0 23.5 2t30.5 10.5t26.5 25.5t11.5 48q0 35 -20 54.5t-54 19.5h-43v48h17q7 0 22 1.5t30 8t26.5 21
t11.5 41.5q0 10 -3.5 22.5t-12.5 23t-25 17.5t-40 7q-42 0 -61 -24t-21 -69h-52q0 22 5.5 47t20.5 46t41.5 34.5t68.5 13.5q61 0 97 -31t36 -85q0 -21 -6.5 -37t-16.5 -27t-22 -18t-24 -11v-3q32 -5 56.5 -30.5t24.5 -73.5q0 -61 -39.5 -95.5t-105.5 -34.5q-45 0 -73.5 14.5
t-44.5 35.5t-22 45.5t-7 45.5h54z" />
    <glyph glyph-name="questiondown" unicode="&#xbf;" horiz-adv-x="554" 
d="M498 26q2 -75 -19.5 -120t-54.5 -69t-72 -31.5t-73 -7.5q-50 0 -91 12t-70 35.5t-45.5 57t-16.5 76.5q0 30 6.5 53t19.5 44t32.5 40.5t45.5 41.5l29 25.5t27.5 30t20.5 36t8 42.5v14h72q5 -40 -7.5 -80t-36.5 -66q-20 -21 -43 -39.5t-42 -38.5t-31.5 -44t-12.5 -55
q0 -17 6 -36.5t21.5 -36.5t41.5 -28.5t67 -11.5q45 0 71.5 16.5t40.5 40.5t17.5 51t1.5 48h87zM331 399h-99v109h99v-109z" />
    <glyph glyph-name="Agrave" unicode="&#xc0;" 
d="M436 260l-122 345l-122 -345h244zM100 0h-101l265 700h100l265 -700h-101l-66 181h-296zM381 760h-84l-103 140h112z" />
    <glyph glyph-name="Aacute" unicode="&#xc1;" 
d="M436 260l-122 345l-122 -345h244zM100 0h-101l265 700h100l265 -700h-101l-66 181h-296zM433 900l-102 -140h-84l74 140h112z" />
    <glyph glyph-name="Acircumflex" unicode="&#xc2;" 
d="M436 260l-122 345l-122 -345h244zM100 0h-101l265 700h100l265 -700h-101l-66 181h-296zM243 900h142l125 -140h-94l-102 105l-102 -105h-94z" />
    <glyph glyph-name="Atilde" unicode="&#xc3;" 
d="M436 260l-122 345l-122 -345h244zM100 0h-101l265 700h100l265 -700h-101l-66 181h-296zM510 868q-3 -19 -11 -38.5t-22.5 -35t-35 -25t-47.5 -9.5t-45 7.5t-43 19.5l-35 17.5t-35 7.5q-21 0 -37 -10.5t-19 -30.5h-62q3 20 12.5 39t24.5 33.5t35.5 23.5t45.5 9
q32 0 49.5 -8t28.5 -15q23 -14 42 -21.5t36 -7.5t34.5 10t22.5 34h61z" />
    <glyph glyph-name="Adieresis" unicode="&#xc4;" 
d="M436 260l-122 345l-122 -345h244zM100 0h-101l265 700h100l265 -700h-101l-66 181h-296zM375 851h94v-79h-94v79zM159 851h94v-79h-94v79z" />
    <glyph glyph-name="Aring" unicode="&#xc5;" 
d="M436 260l-122 345l-122 -345h244zM100 0h-101l265 700h100l265 -700h-101l-66 181h-296zM258 822q0 -23 16.5 -39.5t39.5 -16.5t39.5 16.5t16.5 39.5t-16.5 39.5t-39.5 16.5t-39.5 -16.5t-16.5 -39.5zM216 822q0 41 28.5 69.5t69.5 28.5t69.5 -28.5t28.5 -69.5
t-28.5 -69.5t-69.5 -28.5t-69.5 28.5t-28.5 69.5z" />
    <glyph glyph-name="AE" unicode="&#xc6;" horiz-adv-x="1002" 
d="M473 621h-27l-195 -361h222v361zM473 181h-264l-99 -181h-111l390 700h583v-79h-405v-220h366v-79h-366v-243h415v-79h-509v181z" />
    <glyph glyph-name="Ccedilla" unicode="&#xc7;" horiz-adv-x="718" 
d="M677 232q-5 -38 -20 -82t-48.5 -82t-88.5 -63.5t-139 -25.5q-78 0 -140 24.5t-104.5 71t-65.5 113t-23 150.5q0 93 20.5 157.5t52 107t70.5 66.5t75.5 35.5t66.5 14t45 2.5q84 0 138 -22t86.5 -56.5t47 -76.5t18.5 -82h-94q-2 19 -10.5 46t-29.5 52t-58.5 42.5
t-97.5 17.5q-66 0 -110 -25.5t-70.5 -67.5t-38 -96t-11.5 -111q0 -61 16 -113t47 -90t74.5 -59.5t99.5 -21.5q42 0 77.5 13t61.5 36.5t41.5 55t17.5 69.5h94zM270 -176q8 -3 22 -5.5t40 -2.5q34 0 48.5 10.5t14.5 26.5q0 15 -9 22.5t-22 11t-28 3.5h-27h-17l15 52h32
q43 0 69 -9.5t40.5 -24t19 -32t4.5 -32.5q0 -13 -5 -27.5t-19 -27t-39 -21t-65 -8.5q-11 0 -33.5 1.5t-57.5 6.5z" />
    <glyph glyph-name="Egrave" unicode="&#xc8;" horiz-adv-x="618" 
d="M549 401v-79h-367v-243h416v-79h-510v700h499v-79h-405v-220h367zM376 760h-84l-103 140h112z" />
    <glyph glyph-name="Eacute" unicode="&#xc9;" horiz-adv-x="618" 
d="M549 401v-79h-367v-243h416v-79h-510v700h499v-79h-405v-220h367zM428 900l-102 -140h-84l74 140h112z" />
    <glyph glyph-name="Ecircumflex" unicode="&#xca;" horiz-adv-x="618" 
d="M549 401v-79h-367v-243h416v-79h-510v700h499v-79h-405v-220h367zM263 900h142l125 -140h-94l-102 105l-102 -105h-94z" />
    <glyph glyph-name="Edieresis" unicode="&#xcb;" horiz-adv-x="618" 
d="M549 401v-79h-367v-243h416v-79h-510v700h499v-79h-405v-220h367zM389 851h94v-79h-94v79zM173 851h94v-79h-94v79z" />
    <glyph glyph-name="Igrave" unicode="&#xcc;" horiz-adv-x="270" 
d="M182 700v-700h-94v700h94zM204 760h-84l-103 140h112z" />
    <glyph glyph-name="Iacute" unicode="&#xcd;" horiz-adv-x="270" 
d="M182 700v-700h-94v700h94zM255 900l-102 -140h-84l74 140h112z" />
    <glyph glyph-name="Icircumflex" unicode="&#xce;" horiz-adv-x="270" 
d="M182 700v-700h-94v700h94zM65 900h142l125 -140h-94l-102 105l-102 -105h-94z" />
    <glyph glyph-name="Idieresis" unicode="&#xcf;" horiz-adv-x="270" 
d="M182 700v-700h-94v700h94zM197 851h94v-79h-94v79zM-19 851h94v-79h-94v79z" />
    <glyph glyph-name="Eth" unicode="&#xd0;" horiz-adv-x="734" 
d="M191 428h198v-62h-198v-287h131q135 0 200 65.5t65 205.5q0 79 -20.5 131.5t-54 83.5t-76 43.5t-87.5 12.5h-158v-193zM354 700q18 0 49.5 -2t68.5 -12.5t75.5 -32t69.5 -60t50.5 -97.5t19.5 -144q0 -86 -19 -145.5t-50 -98.5t-70.5 -61t-80.5 -32.5t-79.5 -12.5
t-68.5 -2h-222v366h-94v62h94v272h257z" />
    <glyph glyph-name="Ntilde" unicode="&#xd1;" horiz-adv-x="746" 
d="M182 0h-94v700h104l372 -555v555h94v-700h-103l-373 555v-555zM569 868q-3 -19 -11 -38.5t-22.5 -35t-35 -25t-47.5 -9.5t-45 7.5t-43 19.5l-35 17.5t-35 7.5q-21 0 -37 -10.5t-19 -30.5h-62q3 20 12.5 39t24.5 33.5t35.5 23.5t45.5 9q32 0 49.5 -8t28.5 -15
q23 -14 42 -21.5t36 -7.5t34.5 10t22.5 34h61z" />
    <glyph glyph-name="Ograve" unicode="&#xd2;" horiz-adv-x="764" 
d="M148 350q0 -42 8.5 -93t33.5 -95.5t71 -74t121 -29.5q12 0 34 2t48 11t53 27.5t49 50.5t36 81t14 120q0 62 -14 115.5t-42.5 92.5t-73 61.5t-104.5 22.5q-53 0 -91.5 -16.5t-64.5 -42.5t-41.5 -58.5t-23.5 -65t-10.5 -61.5t-2.5 -48zM48 350q0 92 25 161.5t69 116
t105.5 70t134.5 23.5q58 0 117.5 -18t107.5 -60.5t78.5 -114t30.5 -178.5q0 -91 -22 -154.5t-55.5 -104.5t-73.5 -63.5t-77 -33.5t-66 -13t-40 -2t-40.5 2t-66.5 13t-77 33.5t-73.5 63.5t-55 104t-21.5 155zM449 760h-84l-103 140h112z" />
    <glyph glyph-name="Oacute" unicode="&#xd3;" horiz-adv-x="764" 
d="M148 350q0 -42 8.5 -93t33.5 -95.5t71 -74t121 -29.5q12 0 34 2t48 11t53 27.5t49 50.5t36 81t14 120q0 62 -14 115.5t-42.5 92.5t-73 61.5t-104.5 22.5q-53 0 -91.5 -16.5t-64.5 -42.5t-41.5 -58.5t-23.5 -65t-10.5 -61.5t-2.5 -48zM48 350q0 92 25 161.5t69 116
t105.5 70t134.5 23.5q58 0 117.5 -18t107.5 -60.5t78.5 -114t30.5 -178.5q0 -91 -22 -154.5t-55.5 -104.5t-73.5 -63.5t-77 -33.5t-66 -13t-40 -2t-40.5 2t-66.5 13t-77 33.5t-73.5 63.5t-55 104t-21.5 155zM501 900l-102 -140h-84l74 140h112z" />
    <glyph glyph-name="Ocircumflex" unicode="&#xd4;" horiz-adv-x="764" 
d="M148 350q0 -42 8.5 -93t33.5 -95.5t71 -74t121 -29.5q12 0 34 2t48 11t53 27.5t49 50.5t36 81t14 120q0 62 -14 115.5t-42.5 92.5t-73 61.5t-104.5 22.5q-53 0 -91.5 -16.5t-64.5 -42.5t-41.5 -58.5t-23.5 -65t-10.5 -61.5t-2.5 -48zM48 350q0 92 25 161.5t69 116
t105.5 70t134.5 23.5q58 0 117.5 -18t107.5 -60.5t78.5 -114t30.5 -178.5q0 -91 -22 -154.5t-55.5 -104.5t-73.5 -63.5t-77 -33.5t-66 -13t-40 -2t-40.5 2t-66.5 13t-77 33.5t-73.5 63.5t-55 104t-21.5 155zM311 900h142l125 -140h-94l-102 105l-102 -105h-94z" />
    <glyph glyph-name="Otilde" unicode="&#xd5;" horiz-adv-x="764" 
d="M148 350q0 -42 8.5 -93t33.5 -95.5t71 -74t121 -29.5q12 0 34 2t48 11t53 27.5t49 50.5t36 81t14 120q0 62 -14 115.5t-42.5 92.5t-73 61.5t-104.5 22.5q-53 0 -91.5 -16.5t-64.5 -42.5t-41.5 -58.5t-23.5 -65t-10.5 -61.5t-2.5 -48zM48 350q0 92 25 161.5t69 116
t105.5 70t134.5 23.5q58 0 117.5 -18t107.5 -60.5t78.5 -114t30.5 -178.5q0 -91 -22 -154.5t-55.5 -104.5t-73.5 -63.5t-77 -33.5t-66 -13t-40 -2t-40.5 2t-66.5 13t-77 33.5t-73.5 63.5t-55 104t-21.5 155zM578 868q-3 -19 -11 -38.5t-22.5 -35t-35 -25t-47.5 -9.5t-45 7.5
t-43 19.5l-35 17.5t-35 7.5q-21 0 -37 -10.5t-19 -30.5h-62q3 20 12.5 39t24.5 33.5t35.5 23.5t45.5 9q32 0 49.5 -8t28.5 -15q23 -14 42 -21.5t36 -7.5t34.5 10t22.5 34h61z" />
    <glyph glyph-name="Odieresis" unicode="&#xd6;" horiz-adv-x="764" 
d="M148 350q0 -42 8.5 -93t33.5 -95.5t71 -74t121 -29.5q12 0 34 2t48 11t53 27.5t49 50.5t36 81t14 120q0 62 -14 115.5t-42.5 92.5t-73 61.5t-104.5 22.5q-53 0 -91.5 -16.5t-64.5 -42.5t-41.5 -58.5t-23.5 -65t-10.5 -61.5t-2.5 -48zM48 350q0 92 25 161.5t69 116
t105.5 70t134.5 23.5q58 0 117.5 -18t107.5 -60.5t78.5 -114t30.5 -178.5q0 -91 -22 -154.5t-55.5 -104.5t-73.5 -63.5t-77 -33.5t-66 -13t-40 -2t-40.5 2t-66.5 13t-77 33.5t-73.5 63.5t-55 104t-21.5 155zM443 851h94v-79h-94v79zM227 851h94v-79h-94v79z" />
    <glyph glyph-name="multiply" unicode="&#xd7;" horiz-adv-x="608" 
d="M304 402l182 182l47 -47l-182 -182l182 -182l-47 -47l-182 182l-182 -182l-47 47l182 182l-182 182l47 47z" />
    <glyph glyph-name="Oslash" unicode="&#xd8;" horiz-adv-x="764" 
d="M536 585q-14 14 -33.5 25t-40.5 18t-42.5 10.5t-37.5 3.5q-19 0 -43.5 -3.5t-50.5 -14.5t-51.5 -30.5t-45 -52t-31.5 -79.5t-12 -112q0 -41 4.5 -71t10.5 -52t12.5 -36.5t11.5 -23.5zM222 119q7 -8 19.5 -18.5t32 -20t46.5 -16t62 -6.5q12 0 34 2t48 11t53 27.5t49 50.5
t36 81t14 120q0 47 -9 93t-35 93zM635 611q13 -16 27 -38t26 -53.5t20 -73t8 -96.5q0 -91 -22 -154.5t-55.5 -104.5t-73.5 -63.5t-77 -33.5t-66 -13t-40 -2q-20 0 -47 2t-56.5 9.5t-59 21.5t-55.5 38l-94 -113l-45 37l99 118q-11 14 -24 35.5t-24.5 53t-19.5 73.5t-8 96
q0 92 25 161.5t69 116t105.5 70t134.5 23.5q56 0 114.5 -16.5t96.5 -51.5l81 97l49 -34z" />
    <glyph glyph-name="Ugrave" unicode="&#xd9;" horiz-adv-x="702" 
d="M169 700v-417q0 -32 3.5 -71.5t21.5 -73.5t54.5 -57t102.5 -23q52 0 87 14.5t56 43t30 70.5t9 97v417h94v-429q0 -71 -15 -120.5t-39.5 -82t-55 -50.5t-61.5 -26.5t-58.5 -10.5t-46.5 -2q-64 0 -109 13.5t-76 35.5t-49 52t-27.5 62t-12 65.5t-2.5 63.5v429h94zM418 760
h-84l-103 140h112z" />
    <glyph glyph-name="Uacute" unicode="&#xda;" horiz-adv-x="702" 
d="M169 700v-417q0 -32 3.5 -71.5t21.5 -73.5t54.5 -57t102.5 -23q52 0 87 14.5t56 43t30 70.5t9 97v417h94v-429q0 -71 -15 -120.5t-39.5 -82t-55 -50.5t-61.5 -26.5t-58.5 -10.5t-46.5 -2q-64 0 -109 13.5t-76 35.5t-49 52t-27.5 62t-12 65.5t-2.5 63.5v429h94zM470 900
l-102 -140h-84l74 140h112z" />
    <glyph glyph-name="Ucircumflex" unicode="&#xdb;" horiz-adv-x="702" 
d="M169 700v-417q0 -32 3.5 -71.5t21.5 -73.5t54.5 -57t102.5 -23q52 0 87 14.5t56 43t30 70.5t9 97v417h94v-429q0 -71 -15 -120.5t-39.5 -82t-55 -50.5t-61.5 -26.5t-58.5 -10.5t-46.5 -2q-64 0 -109 13.5t-76 35.5t-49 52t-27.5 62t-12 65.5t-2.5 63.5v429h94zM280 900
h142l125 -140h-94l-102 105l-102 -105h-94z" />
    <glyph glyph-name="Udieresis" unicode="&#xdc;" horiz-adv-x="702" 
d="M169 700v-417q0 -32 3.5 -71.5t21.5 -73.5t54.5 -57t102.5 -23q52 0 87 14.5t56 43t30 70.5t9 97v417h94v-429q0 -71 -15 -120.5t-39.5 -82t-55 -50.5t-61.5 -26.5t-58.5 -10.5t-46.5 -2q-64 0 -109 13.5t-76 35.5t-49 52t-27.5 62t-12 65.5t-2.5 63.5v429h94zM412 851
h94v-79h-94v79zM196 851h94v-79h-94v79z" />
    <glyph glyph-name="Yacute" unicode="&#xdd;" horiz-adv-x="611" 
d="M500 700h112l-259 -408v-292h-94v292l-260 408h112l195 -324zM424 900l-102 -140h-84l74 140h112z" />
    <glyph glyph-name="Thorn" unicode="&#xde;" horiz-adv-x="645" 
d="M182 219h172q84 0 122 35t38 104q0 65 -39.5 94.5t-120.5 29.5h-172v-263zM182 700v-139h191q54 0 97.5 -11t74.5 -35t48 -62.5t17 -92.5q0 -49 -13 -89.5t-42 -69.5t-76 -45t-115 -16h-182v-140h-94v700h94z" />
    <glyph glyph-name="germandbls" unicode="&#xdf;" horiz-adv-x="566" 
d="M75 455q0 42 5 87t26 81.5t63.5 60.5t117.5 24q48 0 83.5 -13t59 -35.5t35 -54t11.5 -67.5q0 -24 -7 -47t-19 -41.5t-29 -31.5t-38 -18v-3q31 -6 57.5 -21.5t45.5 -40t30 -57t11 -72.5q0 -52 -13.5 -88t-35 -59.5t-47 -37t-49 -19.5t-43 -7.5t-27.5 -1.5q-22 0 -40 2
t-35 5v65q16 -6 29.5 -7.5t29.5 -1.5q10 0 33 3.5t47 18.5t42 45.5t18 84.5q0 53 -19 83t-46 45t-57 18.5t-52 3.5h-25v61l31 -1q12 0 32 2t39.5 13.5t34 34.5t14.5 64q0 18 -4.5 38.5t-16 37t-31 27.5t-50.5 11q-26 0 -48 -5.5t-39 -23.5t-26.5 -53.5t-9.5 -95.5v-468h-88
v455z" />
    <glyph glyph-name="agrave" unicode="&#xe0;" horiz-adv-x="559" 
d="M388 260q-10 -8 -21 -11.5t-24 -5.5t-29.5 -3.5t-37.5 -4.5l-55.5 -9.5t-46.5 -14t-31.5 -27.5t-11.5 -48q0 -45 27.5 -69.5t70.5 -24.5q26 0 52.5 7.5t49 27t37.5 53.5t18 87zM58 358q0 25 8.5 55t32 55.5t66 42.5t109.5 17q31 0 66.5 -6t66 -24t50.5 -51.5t19 -89.5
l-5 -235q0 -15 0.5 -26.5t5.5 -19t16 -11.5t31 -3v-62q-9 -2 -17.5 -3t-22.5 -1q-18 0 -33.5 2.5t-27 10t-19 22t-11.5 39.5q-13 -24 -32 -41t-42 -28t-48.5 -16t-51.5 -5q-80 0 -129.5 36.5t-49.5 116.5q0 33 10 59.5t38 47t76 34t125 20.5q28 2 47 4t30.5 8.5t16.5 19.5
t5 38q0 9 -2 26t-13 34t-34 29.5t-65 12.5q-12 0 -34.5 -2t-44.5 -12.5t-38 -32t-15 -61.5h-84zM341 568h-80l-96 132h106z" />
    <glyph glyph-name="aacute" unicode="&#xe1;" horiz-adv-x="559" 
d="M388 260q-10 -8 -21 -11.5t-24 -5.5t-29.5 -3.5t-37.5 -4.5l-55.5 -9.5t-46.5 -14t-31.5 -27.5t-11.5 -48q0 -45 27.5 -69.5t70.5 -24.5q26 0 52.5 7.5t49 27t37.5 53.5t18 87zM58 358q0 25 8.5 55t32 55.5t66 42.5t109.5 17q31 0 66.5 -6t66 -24t50.5 -51.5t19 -89.5
l-5 -235q0 -15 0.5 -26.5t5.5 -19t16 -11.5t31 -3v-62q-9 -2 -17.5 -3t-22.5 -1q-18 0 -33.5 2.5t-27 10t-19 22t-11.5 39.5q-13 -24 -32 -41t-42 -28t-48.5 -16t-51.5 -5q-80 0 -129.5 36.5t-49.5 116.5q0 33 10 59.5t38 47t76 34t125 20.5q28 2 47 4t30.5 8.5t16.5 19.5
t5 38q0 9 -2 26t-13 34t-34 29.5t-65 12.5q-12 0 -34.5 -2t-44.5 -12.5t-38 -32t-15 -61.5h-84zM393 700l-96 -132h-80l70 132h106z" />
    <glyph glyph-name="acircumflex" unicode="&#xe2;" horiz-adv-x="559" 
d="M388 260q-10 -8 -21 -11.5t-24 -5.5t-29.5 -3.5t-37.5 -4.5l-55.5 -9.5t-46.5 -14t-31.5 -27.5t-11.5 -48q0 -45 27.5 -69.5t70.5 -24.5q26 0 52.5 7.5t49 27t37.5 53.5t18 87zM58 358q0 25 8.5 55t32 55.5t66 42.5t109.5 17q31 0 66.5 -6t66 -24t50.5 -51.5t19 -89.5
l-5 -235q0 -15 0.5 -26.5t5.5 -19t16 -11.5t31 -3v-62q-9 -2 -17.5 -3t-22.5 -1q-18 0 -33.5 2.5t-27 10t-19 22t-11.5 39.5q-13 -24 -32 -41t-42 -28t-48.5 -16t-51.5 -5q-80 0 -129.5 36.5t-49.5 116.5q0 33 10 59.5t38 47t76 34t125 20.5q28 2 47 4t30.5 8.5t16.5 19.5
t5 38q0 9 -2 26t-13 34t-34 29.5t-65 12.5q-12 0 -34.5 -2t-44.5 -12.5t-38 -32t-15 -61.5h-84zM213 700h132l119 -132h-88l-97 99l-97 -99h-88z" />
    <glyph glyph-name="atilde" unicode="&#xe3;" horiz-adv-x="559" 
d="M388 260q-10 -8 -21 -11.5t-24 -5.5t-29.5 -3.5t-37.5 -4.5l-55.5 -9.5t-46.5 -14t-31.5 -27.5t-11.5 -48q0 -45 27.5 -69.5t70.5 -24.5q26 0 52.5 7.5t49 27t37.5 53.5t18 87zM58 358q0 25 8.5 55t32 55.5t66 42.5t109.5 17q31 0 66.5 -6t66 -24t50.5 -51.5t19 -89.5
l-5 -235q0 -15 0.5 -26.5t5.5 -19t16 -11.5t31 -3v-62q-9 -2 -17.5 -3t-22.5 -1q-18 0 -33.5 2.5t-27 10t-19 22t-11.5 39.5q-13 -24 -32 -41t-42 -28t-48.5 -16t-51.5 -5q-80 0 -129.5 36.5t-49.5 116.5q0 33 10 59.5t38 47t76 34t125 20.5q28 2 47 4t30.5 8.5t16.5 19.5
t5 38q0 9 -2 26t-13 34t-34 29.5t-65 12.5q-12 0 -34.5 -2t-44.5 -12.5t-38 -32t-15 -61.5h-84zM464 700q-3 -15 -10 -33t-20 -33.5t-33 -25.5t-48 -10q-24 0 -43.5 8t-38.5 18l-32.5 16t-34.5 8q-16 0 -32.5 -8.5t-18.5 -31.5h-59q7 39 35 69.5t76 30.5q21 0 37 -5t37 -17
l33 -18t41 -10q19 0 33.5 12t19.5 30h58z" />
    <glyph glyph-name="adieresis" unicode="&#xe4;" horiz-adv-x="559" 
d="M388 260q-10 -8 -21 -11.5t-24 -5.5t-29.5 -3.5t-37.5 -4.5l-55.5 -9.5t-46.5 -14t-31.5 -27.5t-11.5 -48q0 -45 27.5 -69.5t70.5 -24.5q26 0 52.5 7.5t49 27t37.5 53.5t18 87zM58 358q0 25 8.5 55t32 55.5t66 42.5t109.5 17q31 0 66.5 -6t66 -24t50.5 -51.5t19 -89.5
l-5 -235q0 -15 0.5 -26.5t5.5 -19t16 -11.5t31 -3v-62q-9 -2 -17.5 -3t-22.5 -1q-18 0 -33.5 2.5t-27 10t-19 22t-11.5 39.5q-13 -24 -32 -41t-42 -28t-48.5 -16t-51.5 -5q-80 0 -129.5 36.5t-49.5 116.5q0 33 10 59.5t38 47t76 34t125 20.5q28 2 47 4t30.5 8.5t16.5 19.5
t5 38q0 9 -2 26t-13 34t-34 29.5t-65 12.5q-12 0 -34.5 -2t-44.5 -12.5t-38 -32t-15 -61.5h-84zM334 700h88v-92h-88v92zM136 700h88v-92h-88v92z" />
    <glyph glyph-name="aring" unicode="&#xe5;" horiz-adv-x="559" 
d="M388 260q-10 -8 -21 -11.5t-24 -5.5t-29.5 -3.5t-37.5 -4.5l-55.5 -9.5t-46.5 -14t-31.5 -27.5t-11.5 -48q0 -45 27.5 -69.5t70.5 -24.5q26 0 52.5 7.5t49 27t37.5 53.5t18 87zM58 358q0 25 8.5 55t32 55.5t66 42.5t109.5 17q31 0 66.5 -6t66 -24t50.5 -51.5t19 -89.5
l-5 -235q0 -15 0.5 -26.5t5.5 -19t16 -11.5t31 -3v-62q-9 -2 -17.5 -3t-22.5 -1q-18 0 -33.5 2.5t-27 10t-19 22t-11.5 39.5q-13 -24 -32 -41t-42 -28t-48.5 -16t-51.5 -5q-80 0 -129.5 36.5t-49.5 116.5q0 33 10 59.5t38 47t76 34t125 20.5q28 2 47 4t30.5 8.5t16.5 19.5
t5 38q0 9 -2 26t-13 34t-34 29.5t-65 12.5q-12 0 -34.5 -2t-44.5 -12.5t-38 -32t-15 -61.5h-84zM227 660q0 -22 15 -37t37 -15t37 15t15 37t-15 37t-37 15t-37 -15t-15 -37zM187 660q0 19 7 36t19.5 29.5t29.5 19.5t36 7t36 -7t29.5 -19.5t19.5 -29.5t7 -36t-7 -36
t-19.5 -29.5t-29.5 -19.5t-36 -7t-36 7t-29.5 19.5t-19.5 29.5t-7 36z" />
    <glyph glyph-name="ae" unicode="&#xe6;" horiz-adv-x="920" 
d="M783 296q1 26 -4.5 55.5t-22 55t-45 42.5t-73.5 17q-41 0 -70.5 -14.5t-49 -38t-28.5 -54t-9 -63.5h302zM393 260q-11 -8 -21.5 -11.5t-24 -5.5t-30 -3.5t-38.5 -4.5l-56 -9.5t-47.5 -14t-32.5 -27.5t-12 -48q0 -16 5.5 -33t17.5 -30.5t31.5 -22t48.5 -8.5q50 0 81 19
t48.5 46.5t23.5 57.5t6 52v43zM63 358q-1 34 11 64.5t38.5 54t67.5 37.5t98 14q16 0 41 -2t50.5 -11t48 -26t34.5 -47q20 31 46.5 48.5t52.5 26t49 10t35 1.5q34 0 75.5 -8.5t78 -36.5t61 -81t24.5 -143v-25h-393q0 -29 7.5 -62.5t25.5 -62.5t49 -48t78 -19q33 0 56.5 8.5
t40.5 23t27 33.5t16 40h84q-5 -27 -18.5 -56.5t-38.5 -54t-64.5 -40.5t-96.5 -16q-24 0 -52.5 2.5t-57 13.5t-55.5 33t-48 61q-20 -35 -44.5 -56.5t-50 -33.5t-52 -16t-51.5 -4q-23 0 -56.5 3t-64.5 18t-53 46t-22 86q0 33 10.5 59.5t38 47t76.5 34.5t127 20q29 2 48.5 4
t31 8.5t16.5 19.5t5 38q0 9 -2 26t-13 34t-34 29.5t-65 12.5q-12 0 -34.5 -2t-44.5 -12.5t-38 -32t-15 -61.5h-84z" />
    <glyph glyph-name="ccedilla" unicode="&#xe7;" horiz-adv-x="554" 
d="M515 181q-2 -23 -11.5 -57t-33 -66t-66 -55t-110.5 -23q-13 0 -36 2t-51 10t-56.5 25.5t-51.5 48t-38 77.5t-15 115q0 44 10 92t37 87.5t74 65t121 25.5q54 0 94 -14.5t67 -39.5t42.5 -57t19.5 -68h-84q-7 42 -25 66t-39 35t-41.5 13.5t-31.5 2.5q-41 0 -70 -16.5
t-47 -44.5t-26 -66t-8 -81t9 -82t27.5 -69t48.5 -47.5t72 -17.5q37 0 62.5 14t41.5 34.5t23 45t8 45.5h84zM188 -176q8 -3 22 -5.5t40 -2.5q34 0 48.5 10.5t14.5 26.5q0 15 -9 22.5t-22 11t-28 3.5h-27h-17l15 52h32q43 0 69 -9.5t40.5 -24t19 -32t4.5 -32.5q0 -13 -5 -27.5
t-19 -27t-39 -21t-65 -8.5q-11 0 -33.5 1.5t-57.5 6.5z" />
    <glyph glyph-name="egrave" unicode="&#xe8;" horiz-adv-x="576" 
d="M437 296q-1 25 -7 55t-21.5 55.5t-42.5 42.5t-70 17q-48 0 -79 -17.5t-48.5 -43.5t-23.5 -55.5t-6 -53.5h298zM525 147q-5 -27 -18.5 -56.5t-39 -54t-65.5 -40.5t-99 -16q-63 0 -106.5 17t-72 43.5t-44.5 58.5t-23.5 62t-9 54.5t-1.5 36.5q0 17 2 44.5t10 58t24 61.5
t43.5 56t68.5 40.5t100 15.5q76 0 121.5 -26.5t70 -66.5t33 -87.5t10.5 -88.5q0 -6 0.5 -12.5t0.5 -12.5h-391q0 -33 9 -67t28 -61.5t49.5 -45.5t74.5 -18q31 0 56 8.5t42.5 23t28 33.5t14.5 40h84zM350 568h-80l-96 132h106z" />
    <glyph glyph-name="eacute" unicode="&#xe9;" horiz-adv-x="576" 
d="M437 296q-1 25 -7 55t-21.5 55.5t-42.5 42.5t-70 17q-48 0 -79 -17.5t-48.5 -43.5t-23.5 -55.5t-6 -53.5h298zM525 147q-5 -27 -18.5 -56.5t-39 -54t-65.5 -40.5t-99 -16q-63 0 -106.5 17t-72 43.5t-44.5 58.5t-23.5 62t-9 54.5t-1.5 36.5q0 17 2 44.5t10 58t24 61.5
t43.5 56t68.5 40.5t100 15.5q76 0 121.5 -26.5t70 -66.5t33 -87.5t10.5 -88.5q0 -6 0.5 -12.5t0.5 -12.5h-391q0 -33 9 -67t28 -61.5t49.5 -45.5t74.5 -18q31 0 56 8.5t42.5 23t28 33.5t14.5 40h84zM402 700l-96 -132h-80l70 132h106z" />
    <glyph glyph-name="ecircumflex" unicode="&#xea;" horiz-adv-x="576" 
d="M437 296q-1 25 -7 55t-21.5 55.5t-42.5 42.5t-70 17q-48 0 -79 -17.5t-48.5 -43.5t-23.5 -55.5t-6 -53.5h298zM525 147q-5 -27 -18.5 -56.5t-39 -54t-65.5 -40.5t-99 -16q-63 0 -106.5 17t-72 43.5t-44.5 58.5t-23.5 62t-9 54.5t-1.5 36.5q0 17 2 44.5t10 58t24 61.5
t43.5 56t68.5 40.5t100 15.5q76 0 121.5 -26.5t70 -66.5t33 -87.5t10.5 -88.5q0 -6 0.5 -12.5t0.5 -12.5h-391q0 -33 9 -67t28 -61.5t49.5 -45.5t74.5 -18q31 0 56 8.5t42.5 23t28 33.5t14.5 40h84zM222 700h132l119 -132h-88l-97 99l-97 -99h-88z" />
    <glyph glyph-name="edieresis" unicode="&#xeb;" horiz-adv-x="576" 
d="M437 296q-1 25 -7 55t-21.5 55.5t-42.5 42.5t-70 17q-48 0 -79 -17.5t-48.5 -43.5t-23.5 -55.5t-6 -53.5h298zM525 147q-5 -27 -18.5 -56.5t-39 -54t-65.5 -40.5t-99 -16q-63 0 -106.5 17t-72 43.5t-44.5 58.5t-23.5 62t-9 54.5t-1.5 36.5q0 17 2 44.5t10 58t24 61.5
t43.5 56t68.5 40.5t100 15.5q76 0 121.5 -26.5t70 -66.5t33 -87.5t10.5 -88.5q0 -6 0.5 -12.5t0.5 -12.5h-391q0 -33 9 -67t28 -61.5t49.5 -45.5t74.5 -18q31 0 56 8.5t42.5 23t28 33.5t14.5 40h84zM343 700h88v-92h-88v92zM145 700h88v-92h-88v92z" />
    <glyph glyph-name="igrave" unicode="&#xec;" horiz-adv-x="239" 
d="M164 508v-508h-89v508h89zM183 568h-80l-96 132h106z" />
    <glyph glyph-name="iacute" unicode="&#xed;" horiz-adv-x="239" 
d="M164 508v-508h-89v508h89zM235 700l-96 -132h-80l70 132h106z" />
    <glyph glyph-name="icircumflex" unicode="&#xee;" horiz-adv-x="239" 
d="M164 508v-508h-89v508h89zM55 700h132l119 -132h-88l-97 99l-97 -99h-88z" />
    <glyph glyph-name="idieresis" unicode="&#xef;" horiz-adv-x="239" 
d="M164 508v-508h-89v508h89zM176 700h88v-92h-88v92zM-22 700h88v-92h-88v92z" />
    <glyph glyph-name="eth" unicode="&#xf0;" horiz-adv-x="611" 
d="M463 247q0 19 -4 52.5t-20 66t-48 56.5t-89 24q-56 0 -87.5 -25t-47.5 -59.5t-20 -71.5t-4 -60q0 -63 16.5 -100.5t40.5 -57t51.5 -25t50.5 -5.5q16 0 43 4.5t53.5 25t45.5 61.5t19 114zM166 733q49 -8 92.5 -21t81.5 -30l85 51l26 -32l-67 -40q55 -28 89 -65t52.5 -80.5
t24.5 -92.5t6 -100q0 -74 -12 -128.5t-32 -92.5t-46.5 -62t-56 -37t-59 -18t-56.5 -5q-56 0 -101 17.5t-77 50.5t-49 80.5t-17 107.5q0 55 13 104t42.5 86.5t75.5 59.5t112 22q21 0 48 -4t54 -16t52 -34.5t42 -60.5h3q-3 35 -13 68.5t-29 64t-48.5 56.5t-70.5 46l-139 -84
l-26 32l119 72q-68 28 -132 38z" />
    <glyph glyph-name="ntilde" unicode="&#xf1;" horiz-adv-x="579" 
d="M163 508v-71q26 38 70 64.5t104 26.5q50 0 82.5 -15.5t51 -41.5t26 -60.5t7.5 -72.5v-338h-88v311q0 20 -1.5 47t-11 51t-31.5 40.5t-63 16.5q-18 0 -43 -6t-48 -25.5t-39 -57t-16 -100.5v-277h-88v508h88zM474 700q-3 -15 -10 -33t-20 -33.5t-33 -25.5t-48 -10
q-24 0 -43.5 8t-38.5 18l-32.5 16t-34.5 8q-16 0 -32.5 -8.5t-18.5 -31.5h-59q7 39 35 69.5t76 30.5q21 0 37 -5t37 -17l33 -18t41 -10q19 0 33.5 12t19.5 30h58z" />
    <glyph glyph-name="ograve" unicode="&#xf2;" horiz-adv-x="592" 
d="M139 255q0 -76 19 -119t45 -64t52 -25.5t41 -4.5t41 4.5t52 25.5t45 64t19 119t-19 119t-45 64t-52 25.5t-41 4.5t-41 -4.5t-52 -25.5t-45 -64t-19 -119zM46 254q0 51 13 100t42.5 87.5t77.5 62.5t117 24t117 -24t77.5 -62.5t42.5 -87.5t13 -100t-13 -100t-42.5 -87.5
t-77.5 -62.5t-117 -24t-117 24t-77.5 62.5t-42.5 87.5t-13 100zM358 568h-80l-96 132h106z" />
    <glyph glyph-name="oacute" unicode="&#xf3;" horiz-adv-x="592" 
d="M139 255q0 -76 19 -119t45 -64t52 -25.5t41 -4.5t41 4.5t52 25.5t45 64t19 119t-19 119t-45 64t-52 25.5t-41 4.5t-41 -4.5t-52 -25.5t-45 -64t-19 -119zM46 254q0 51 13 100t42.5 87.5t77.5 62.5t117 24t117 -24t77.5 -62.5t42.5 -87.5t13 -100t-13 -100t-42.5 -87.5
t-77.5 -62.5t-117 -24t-117 24t-77.5 62.5t-42.5 87.5t-13 100zM410 700l-96 -132h-80l70 132h106z" />
    <glyph glyph-name="ocircumflex" unicode="&#xf4;" horiz-adv-x="592" 
d="M139 255q0 -76 19 -119t45 -64t52 -25.5t41 -4.5t41 4.5t52 25.5t45 64t19 119t-19 119t-45 64t-52 25.5t-41 4.5t-41 -4.5t-52 -25.5t-45 -64t-19 -119zM46 254q0 51 13 100t42.5 87.5t77.5 62.5t117 24t117 -24t77.5 -62.5t42.5 -87.5t13 -100t-13 -100t-42.5 -87.5
t-77.5 -62.5t-117 -24t-117 24t-77.5 62.5t-42.5 87.5t-13 100zM230 700h132l119 -132h-88l-97 99l-97 -99h-88z" />
    <glyph glyph-name="otilde" unicode="&#xf5;" horiz-adv-x="592" 
d="M139 255q0 -76 19 -119t45 -64t52 -25.5t41 -4.5t41 4.5t52 25.5t45 64t19 119t-19 119t-45 64t-52 25.5t-41 4.5t-41 -4.5t-52 -25.5t-45 -64t-19 -119zM46 254q0 51 13 100t42.5 87.5t77.5 62.5t117 24t117 -24t77.5 -62.5t42.5 -87.5t13 -100t-13 -100t-42.5 -87.5
t-77.5 -62.5t-117 -24t-117 24t-77.5 62.5t-42.5 87.5t-13 100zM481 700q-3 -15 -10 -33t-20 -33.5t-33 -25.5t-48 -10q-24 0 -43.5 8t-38.5 18l-32.5 16t-34.5 8q-16 0 -32.5 -8.5t-18.5 -31.5h-59q7 39 35 69.5t76 30.5q21 0 37 -5t37 -17l33 -18t41 -10q19 0 33.5 12
t19.5 30h58z" />
    <glyph glyph-name="odieresis" unicode="&#xf6;" horiz-adv-x="592" 
d="M139 255q0 -76 19 -119t45 -64t52 -25.5t41 -4.5t41 4.5t52 25.5t45 64t19 119t-19 119t-45 64t-52 25.5t-41 4.5t-41 -4.5t-52 -25.5t-45 -64t-19 -119zM46 254q0 51 13 100t42.5 87.5t77.5 62.5t117 24t117 -24t77.5 -62.5t42.5 -87.5t13 -100t-13 -100t-42.5 -87.5
t-77.5 -62.5t-117 -24t-117 24t-77.5 62.5t-42.5 87.5t-13 100zM351 700h88v-92h-88v92zM153 700h88v-92h-88v92z" />
    <glyph glyph-name="divide" unicode="&#xf7;" horiz-adv-x="606" 
d="M53 357h500v-62h-500v62zM243 152q0 10 3.5 20.5t11 19.5t18.5 14.5t27 5.5t27 -5.5t18.5 -14.5t11 -19.5t3.5 -20.5t-3.5 -20.5t-11 -19.5t-18.5 -14.5t-27 -5.5t-27 5.5t-18.5 14.5t-11 19.5t-3.5 20.5zM243 500q0 10 3.5 20.5t11 19.5t18.5 14.5t27 5.5t27 -5.5
t18.5 -14.5t11 -19.5t3.5 -20.5t-3.5 -20.5t-11 -19.5t-18.5 -14.5t-27 -5.5t-27 5.5t-18.5 14.5t-11 19.5t-3.5 20.5z" />
    <glyph glyph-name="oslash" unicode="&#xf8;" horiz-adv-x="590" 
d="M192 83q27 -26 50.5 -33.5t52.5 -7.5q14 0 40 4.5t52 25.5t45 64t19 119q0 53 -6 79t-11 37zM402 423q-24 27 -52.5 35t-54.5 8q-51 0 -82 -22t-47.5 -54.5t-21.5 -69t-5 -65.5q0 -11 1 -27t3 -33t6 -33t10 -28zM102 66q-29 40 -42.5 90.5t-13.5 98.5q0 59 15 109
t45.5 86.5t77.5 57t111 20.5q63 0 99.5 -15t56.5 -32l55 65l44 -38l-58 -69l16.5 -27t17 -39t13 -52.5t5.5 -65.5q0 -45 -11 -93.5t-39 -89t-76.5 -66.5t-122.5 -26q-54 0 -89.5 11.5t-61.5 33.5l-53 -63l-45 38z" />
    <glyph glyph-name="ugrave" unicode="&#xf9;" horiz-adv-x="579" 
d="M416 0v72h-2q-19 -33 -46 -51.5t-52.5 -27.5t-46 -11t-27.5 -2q-56 0 -89.5 19t-50.5 48t-22 62t-5 62v337h88v-311q0 -48 8 -78t22 -47.5t33.5 -23.5t43.5 -6q55 0 85 24.5t43.5 56.5t15.5 63t2 45v277h88v-508h-88zM351 568h-80l-96 132h106z" />
    <glyph glyph-name="uacute" unicode="&#xfa;" horiz-adv-x="579" 
d="M416 0v72h-2q-19 -33 -46 -51.5t-52.5 -27.5t-46 -11t-27.5 -2q-56 0 -89.5 19t-50.5 48t-22 62t-5 62v337h88v-311q0 -48 8 -78t22 -47.5t33.5 -23.5t43.5 -6q55 0 85 24.5t43.5 56.5t15.5 63t2 45v277h88v-508h-88zM403 700l-96 -132h-80l70 132h106z" />
    <glyph glyph-name="ucircumflex" unicode="&#xfb;" horiz-adv-x="579" 
d="M416 0v72h-2q-19 -33 -46 -51.5t-52.5 -27.5t-46 -11t-27.5 -2q-56 0 -89.5 19t-50.5 48t-22 62t-5 62v337h88v-311q0 -48 8 -78t22 -47.5t33.5 -23.5t43.5 -6q55 0 85 24.5t43.5 56.5t15.5 63t2 45v277h88v-508h-88zM223 700h132l119 -132h-88l-97 99l-97 -99h-88z" />
    <glyph glyph-name="udieresis" unicode="&#xfc;" horiz-adv-x="579" 
d="M416 0v72h-2q-19 -33 -46 -51.5t-52.5 -27.5t-46 -11t-27.5 -2q-56 0 -89.5 19t-50.5 48t-22 62t-5 62v337h88v-311q0 -48 8 -78t22 -47.5t33.5 -23.5t43.5 -6q55 0 85 24.5t43.5 56.5t15.5 63t2 45v277h88v-508h-88zM344 700h88v-92h-88v92zM146 700h88v-92h-88v92z" />
    <glyph glyph-name="yacute" unicode="&#xfd;" horiz-adv-x="504" 
d="M94 -119q20 -3 29 -4t15 -1q19 0 32 7t22 19t14.5 27.5l11.5 32.5l12 38l-220 508h105l163 -411l135 411h88l-202 -568l-14 -40.5t-22.5 -42t-37.5 -33t-59 -13.5q-21 0 -39.5 1t-32.5 4v65zM366 700l-96 -132h-80l70 132h106z" />
    <glyph glyph-name="thorn" unicode="&#xfe;" horiz-adv-x="603" 
d="M157 252q0 -59 15 -99t38.5 -65t51 -35.5t52.5 -10.5q27 0 53.5 10.5t48 35t35 65t13.5 101.5q0 98 -40 155t-115 57q-17 0 -43 -6.5t-50 -28.5t-41.5 -64.5t-17.5 -114.5zM163 700v-262q23 43 68.5 66.5t96.5 23.5q57 0 100 -20.5t71.5 -57t43 -87t14.5 -109.5
q0 -74 -19 -126t-51 -85t-73 -48t-84 -15q-8 0 -28.5 2t-45.5 11.5t-50.5 28t-42.5 51.5v-258h-88v885h88z" />
    <glyph glyph-name="ydieresis" unicode="&#xff;" horiz-adv-x="504" 
d="M94 -119q20 -3 29 -4t15 -1q19 0 32 7t22 19t14.5 27.5l11.5 32.5l12 38l-220 508h105l163 -411l135 411h88l-202 -568l-14 -40.5t-22.5 -42t-37.5 -33t-59 -13.5q-21 0 -39.5 1t-32.5 4v65zM307 700h88v-92h-88v92zM109 700h88v-92h-88v92z" />
    <glyph glyph-name="Amacron" unicode="&#x100;" 
d="M436 260l-122 345l-122 -345h244zM100 0h-101l265 700h100l265 -700h-101l-66 181h-296zM156 832h316v-60h-158h-158v60z" />
    <glyph glyph-name="amacron" unicode="&#x101;" horiz-adv-x="559" 
d="M388 260q-10 -8 -21 -11.5t-24 -5.5t-29.5 -3.5t-37.5 -4.5l-55.5 -9.5t-46.5 -14t-31.5 -27.5t-11.5 -48q0 -45 27.5 -69.5t70.5 -24.5q26 0 52.5 7.5t49 27t37.5 53.5t18 87zM58 358q0 25 8.5 55t32 55.5t66 42.5t109.5 17q31 0 66.5 -6t66 -24t50.5 -51.5t19 -89.5
l-5 -235q0 -15 0.5 -26.5t5.5 -19t16 -11.5t31 -3v-62q-9 -2 -17.5 -3t-22.5 -1q-18 0 -33.5 2.5t-27 10t-19 22t-11.5 39.5q-13 -24 -32 -41t-42 -28t-48.5 -16t-51.5 -5q-80 0 -129.5 36.5t-49.5 116.5q0 33 10 59.5t38 47t76 34t125 20.5q28 2 47 4t30.5 8.5t16.5 19.5
t5 38q0 9 -2 26t-13 34t-34 29.5t-65 12.5q-12 0 -34.5 -2t-44.5 -12.5t-38 -32t-15 -61.5h-84zM121 673h316v-60h-158h-158v60z" />
    <glyph glyph-name="Abreve" unicode="&#x102;" 
d="M436 260l-122 345l-122 -345h244zM100 0h-101l265 700h100l265 -700h-101l-66 181h-296zM209 900q1 -39 30.5 -61.5t74.5 -22.5t70.5 18.5t34.5 65.5h78q-4 -21 -14 -45.5t-31 -45.5t-54 -35t-84 -14t-84 14t-54 35t-31 45.5t-14 45.5h78z" />
    <glyph glyph-name="abreve" unicode="&#x103;" horiz-adv-x="559" 
d="M388 260q-10 -8 -21 -11.5t-24 -5.5t-29.5 -3.5t-37.5 -4.5l-55.5 -9.5t-46.5 -14t-31.5 -27.5t-11.5 -48q0 -45 27.5 -69.5t70.5 -24.5q26 0 52.5 7.5t49 27t37.5 53.5t18 87zM58 358q0 25 8.5 55t32 55.5t66 42.5t109.5 17q31 0 66.5 -6t66 -24t50.5 -51.5t19 -89.5
l-5 -235q0 -15 0.5 -26.5t5.5 -19t16 -11.5t31 -3v-62q-9 -2 -17.5 -3t-22.5 -1q-18 0 -33.5 2.5t-27 10t-19 22t-11.5 39.5q-13 -24 -32 -41t-42 -28t-48.5 -16t-51.5 -5q-80 0 -129.5 36.5t-49.5 116.5q0 33 10 59.5t38 47t76 34t125 20.5q28 2 47 4t30.5 8.5t16.5 19.5
t5 38q0 9 -2 26t-13 34t-34 29.5t-65 12.5q-12 0 -34.5 -2t-44.5 -12.5t-38 -32t-15 -61.5h-84zM181 700q2 -30 25 -54.5t73 -24.5t73 24.5t25 54.5h74q-3 -20 -13 -43t-30 -43t-51.5 -33t-77.5 -13q-47 0 -78 13t-51 33t-30 43t-13 43h74z" />
    <glyph glyph-name="Aogonek" unicode="&#x104;" 
d="M436 260l-122 345l-122 -345h244zM100 0h-101l265 700h100l265 -700q-26 -20 -42.5 -48.5t-16.5 -54.5q0 -23 11 -41t35 -18q13 0 21 5.5t13 13t7.5 16.5t2.5 17h74q-1 -20 -9 -40.5t-23 -37t-37.5 -26.5t-53.5 -10q-57 0 -94 27.5t-37 74.5q0 38 21.5 70t47.5 52h-21
l-66 181h-296z" />
    <glyph glyph-name="aogonek" unicode="&#x105;" horiz-adv-x="559" 
d="M388 260q-10 -8 -21 -11.5t-24 -5.5t-29.5 -3.5t-37.5 -4.5q-28 -4 -54 -9t-46.5 -15t-32.5 -27.5t-12 -47.5q0 -11 3.5 -27t14 -31t29.5 -25.5t51 -10.5q26 0 52.5 7.5t49 27t37.5 53.5t18 87zM58 358q0 25 8.5 55t32 55.5t66 42.5t109.5 17q31 0 66.5 -6t66 -24
t50.5 -51.5t19 -89.5l-5 -235q0 -21 2.5 -33t8 -18t13.5 -7.5t18 -1.5h11v-62q-26 -20 -42.5 -48.5t-16.5 -54.5q0 -23 11 -41t35 -18q13 0 21 5.5t13 13t7.5 16.5t2.5 17h74q-1 -20 -9 -40.5t-23 -37t-37.5 -26.5t-53.5 -10q-57 0 -94 27.5t-37 74.5q0 38 21.5 70t47.5 52
q-23 5 -34.5 21.5t-16.5 48.5q-13 -24 -32 -41t-42 -28t-48.5 -16t-51.5 -5q-80 0 -129.5 36.5t-49.5 116.5q0 33 10 59.5t38 47t76 34t125 20.5q28 2 47 4t30.5 8.5t16.5 19.5t5 38q0 9 -2 26t-13 34t-34 29.5t-65 12.5q-12 0 -34.5 -2t-44.5 -12.5t-38 -32t-15 -61.5h-84z
" />
    <glyph glyph-name="Cacute" unicode="&#x106;" horiz-adv-x="718" 
d="M677 232q-5 -38 -20 -82t-48.5 -82t-88.5 -63.5t-139 -25.5q-78 0 -140 24.5t-104.5 71t-65.5 113t-23 150.5q0 93 20.5 157.5t52 107t70.5 66.5t75.5 35.5t66.5 14t45 2.5q84 0 138 -22t86.5 -56.5t47 -76.5t18.5 -82h-94q-2 19 -10.5 46t-29.5 52t-58.5 42.5
t-97.5 17.5q-66 0 -110 -25.5t-70.5 -67.5t-38 -96t-11.5 -111q0 -61 16 -113t47 -90t74.5 -59.5t99.5 -21.5q42 0 77.5 13t61.5 36.5t41.5 55t17.5 69.5h94zM478 900l-102 -140h-84l74 140h112z" />
    <glyph glyph-name="cacute" unicode="&#x107;" horiz-adv-x="554" 
d="M515 181q-2 -23 -11.5 -57t-33 -66t-66 -55t-110.5 -23q-13 0 -36 2t-51 10t-56.5 25.5t-51.5 48t-38 77.5t-15 115q0 44 10 92t37 87.5t74 65t121 25.5q54 0 94 -14.5t67 -39.5t42.5 -57t19.5 -68h-84q-7 42 -25 66t-39 35t-41.5 13.5t-31.5 2.5q-41 0 -70 -16.5
t-47 -44.5t-26 -66t-8 -81t9 -82t27.5 -69t48.5 -47.5t72 -17.5q37 0 62.5 14t41.5 34.5t23 45t8 45.5h84zM391 700l-96 -132h-80l70 132h106z" />
    <glyph glyph-name="Ccircumflex" unicode="&#x108;" horiz-adv-x="718" 
d="M677 232q-5 -38 -20 -82t-48.5 -82t-88.5 -63.5t-139 -25.5q-78 0 -140 24.5t-104.5 71t-65.5 113t-23 150.5q0 93 20.5 157.5t52 107t70.5 66.5t75.5 35.5t66.5 14t45 2.5q84 0 138 -22t86.5 -56.5t47 -76.5t18.5 -82h-94q-2 19 -10.5 46t-29.5 52t-58.5 42.5
t-97.5 17.5q-66 0 -110 -25.5t-70.5 -67.5t-38 -96t-11.5 -111q0 -61 16 -113t47 -90t74.5 -59.5t99.5 -21.5q42 0 77.5 13t61.5 36.5t41.5 55t17.5 69.5h94zM288 900h142l125 -140h-94l-102 105l-102 -105h-94z" />
    <glyph glyph-name="ccircumflex" unicode="&#x109;" horiz-adv-x="554" 
d="M515 181q-2 -23 -11.5 -57t-33 -66t-66 -55t-110.5 -23q-13 0 -36 2t-51 10t-56.5 25.5t-51.5 48t-38 77.5t-15 115q0 44 10 92t37 87.5t74 65t121 25.5q54 0 94 -14.5t67 -39.5t42.5 -57t19.5 -68h-84q-7 42 -25 66t-39 35t-41.5 13.5t-31.5 2.5q-41 0 -70 -16.5
t-47 -44.5t-26 -66t-8 -81t9 -82t27.5 -69t48.5 -47.5t72 -17.5q37 0 62.5 14t41.5 34.5t23 45t8 45.5h84zM211 700h132l119 -132h-88l-97 99l-97 -99h-88z" />
    <glyph glyph-name="Cdotaccent" unicode="&#x10a;" horiz-adv-x="718" 
d="M677 232q-5 -38 -20 -82t-48.5 -82t-88.5 -63.5t-139 -25.5q-78 0 -140 24.5t-104.5 71t-65.5 113t-23 150.5q0 93 20.5 157.5t52 107t70.5 66.5t75.5 35.5t66.5 14t45 2.5q84 0 138 -22t86.5 -56.5t47 -76.5t18.5 -82h-94q-2 19 -10.5 46t-29.5 52t-58.5 42.5
t-97.5 17.5q-66 0 -110 -25.5t-70.5 -67.5t-38 -96t-11.5 -111q0 -61 16 -113t47 -90t74.5 -59.5t99.5 -21.5q42 0 77.5 13t61.5 36.5t41.5 55t17.5 69.5h94zM312 851h94v-79h-94v79z" />
    <glyph glyph-name="cdotaccent" unicode="&#x10b;" horiz-adv-x="554" 
d="M515 181q-2 -23 -11.5 -57t-33 -66t-66 -55t-110.5 -23q-13 0 -36 2t-51 10t-56.5 25.5t-51.5 48t-38 77.5t-15 115q0 44 10 92t37 87.5t74 65t121 25.5q54 0 94 -14.5t67 -39.5t42.5 -57t19.5 -68h-84q-7 42 -25 66t-39 35t-41.5 13.5t-31.5 2.5q-41 0 -70 -16.5
t-47 -44.5t-26 -66t-8 -81t9 -82t27.5 -69t48.5 -47.5t72 -17.5q37 0 62.5 14t41.5 34.5t23 45t8 45.5h84zM232 700h92v-92h-92v92z" />
    <glyph glyph-name="Ccaron" unicode="&#x10c;" horiz-adv-x="718" 
d="M677 232q-5 -38 -20 -82t-48.5 -82t-88.5 -63.5t-139 -25.5q-78 0 -140 24.5t-104.5 71t-65.5 113t-23 150.5q0 93 20.5 157.5t52 107t70.5 66.5t75.5 35.5t66.5 14t45 2.5q84 0 138 -22t86.5 -56.5t47 -76.5t18.5 -82h-94q-2 19 -10.5 46t-29.5 52t-58.5 42.5
t-97.5 17.5q-66 0 -110 -25.5t-70.5 -67.5t-38 -96t-11.5 -111q0 -61 16 -113t47 -90t74.5 -59.5t99.5 -21.5q42 0 77.5 13t61.5 36.5t41.5 55t17.5 69.5h94zM288 760l-125 140h94l102 -105l102 105h94l-125 -140h-142z" />
    <glyph glyph-name="ccaron" unicode="&#x10d;" horiz-adv-x="554" 
d="M515 181q-2 -23 -11.5 -57t-33 -66t-66 -55t-110.5 -23q-13 0 -36 2t-51 10t-56.5 25.5t-51.5 48t-38 77.5t-15 115q0 44 10 92t37 87.5t74 65t121 25.5q54 0 94 -14.5t67 -39.5t42.5 -57t19.5 -68h-84q-7 42 -25 66t-39 35t-41.5 13.5t-31.5 2.5q-41 0 -70 -16.5
t-47 -44.5t-26 -66t-8 -81t9 -82t27.5 -69t48.5 -47.5t72 -17.5q37 0 62.5 14t41.5 34.5t23 45t8 45.5h84zM211 568l-119 132h88l97 -99l97 99h88l-119 -132h-132z" />
    <glyph glyph-name="Dcaron" unicode="&#x10e;" horiz-adv-x="725" 
d="M182 79h131q135 0 200 65.5t65 205.5q0 79 -20.5 131.5t-54 83.5t-76 43.5t-87.5 12.5h-158v-542zM345 700q18 0 49.5 -2t68.5 -12.5t75.5 -32t69.5 -60t50.5 -97.5t19.5 -144q0 -86 -19 -145.5t-50 -98.5t-70.5 -61t-80.5 -32.5t-79.5 -12.5t-68.5 -2h-222v700h257z
M291 760l-125 140h94l102 -105l102 105h94l-125 -140h-142z" />
    <glyph glyph-name="dcaron" unicode="&#x10f;" horiz-adv-x="733" 
d="M139 255q0 -72 17.5 -114.5t42 -64t51.5 -28t46 -6.5q29 0 56.5 11.5t48.5 37t34 66.5t13 100q0 55 -12.5 94.5t-34.5 65t-50.5 37.5t-59.5 12q-32 0 -59.5 -12t-48 -37.5t-32.5 -65.5t-12 -96zM530 700v-700h-82v70h-3q-6 -12 -18 -28t-32 -29.5t-49 -23t-69 -9.5
q-56 0 -99 20t-72 56.5t-44.5 87t-15.5 111.5q0 40 8 87.5t33 89t69.5 69t118.5 27.5q51 0 93.5 -17t73.5 -69v258h88zM723 700v-140q0 -30 -10 -51t-25 -34.5t-32 -21t-32 -10.5v55q21 2 35.5 20.5t14.5 41.5v31h-50v109h99z" />
    <glyph glyph-name="Dcroat" unicode="&#x110;" horiz-adv-x="734" 
d="M191 428h198v-62h-198v-287h131q135 0 200 65.5t65 205.5q0 79 -20.5 131.5t-54 83.5t-76 43.5t-87.5 12.5h-158v-193zM354 700q18 0 49.5 -2t68.5 -12.5t75.5 -32t69.5 -60t50.5 -97.5t19.5 -144q0 -86 -19 -145.5t-50 -98.5t-70.5 -61t-80.5 -32.5t-79.5 -12.5
t-68.5 -2h-222v366h-94v62h94v272h257z" />
    <glyph glyph-name="dcroat" unicode="&#x111;" horiz-adv-x="605" 
d="M139 255q0 -72 17.5 -114.5t42 -64t51.5 -28t46 -6.5q8 0 22.5 2t31 8.5t34 20.5t31.5 37.5t23 59.5t9 87q0 55 -12.5 94.5t-33.5 65t-49.5 37.5t-60.5 12t-59.5 -12t-48 -37.5t-32.5 -65.5t-12 -96zM530 700v-65h85v-54h-85v-581h-83v70h-2q-6 -12 -18 -28t-32 -29.5
t-49 -23t-69 -9.5q-56 0 -99 20t-72 56.5t-44.5 87t-15.5 111.5q0 40 8 87.5t33 89t69.5 69t118.5 27.5q51 0 93.5 -17t73.5 -69v139h-184v54h184v65h88z" />
    <glyph glyph-name="Emacron" unicode="&#x112;" horiz-adv-x="618" 
d="M549 401v-79h-367v-243h416v-79h-510v700h499v-79h-405v-220h367zM169 832h316v-60h-158h-158v60z" />
    <glyph glyph-name="emacron" unicode="&#x113;" horiz-adv-x="576" 
d="M437 296q-1 25 -7 55t-21.5 55.5t-42.5 42.5t-70 17q-48 0 -79 -17.5t-48.5 -43.5t-23.5 -55.5t-6 -53.5h298zM525 147q-5 -27 -18.5 -56.5t-39 -54t-65.5 -40.5t-99 -16q-63 0 -106.5 17t-72 43.5t-44.5 58.5t-23.5 62t-9 54.5t-1.5 36.5q0 17 2 44.5t10 58t24 61.5
t43.5 56t68.5 40.5t100 15.5q76 0 121.5 -26.5t70 -66.5t33 -87.5t10.5 -88.5q0 -6 0.5 -12.5t0.5 -12.5h-391q0 -33 9 -67t28 -61.5t49.5 -45.5t74.5 -18q31 0 56 8.5t42.5 23t28 33.5t14.5 40h84zM130 673h316v-60h-158h-158v60z" />
    <glyph glyph-name="Edotaccent" unicode="&#x116;" horiz-adv-x="618" 
d="M549 401v-79h-367v-243h416v-79h-510v700h499v-79h-405v-220h367zM262 851h94v-79h-94v79z" />
    <glyph glyph-name="edotaccent" unicode="&#x117;" horiz-adv-x="576" 
d="M437 296q-1 25 -7 55t-21.5 55.5t-42.5 42.5t-70 17q-48 0 -79 -17.5t-48.5 -43.5t-23.5 -55.5t-6 -53.5h298zM525 147q-5 -27 -18.5 -56.5t-39 -54t-65.5 -40.5t-99 -16q-63 0 -106.5 17t-72 43.5t-44.5 58.5t-23.5 62t-9 54.5t-1.5 36.5q0 17 2 44.5t10 58t24 61.5
t43.5 56t68.5 40.5t100 15.5q76 0 121.5 -26.5t70 -66.5t33 -87.5t10.5 -88.5q0 -6 0.5 -12.5t0.5 -12.5h-391q0 -33 9 -67t28 -61.5t49.5 -45.5t74.5 -18q31 0 56 8.5t42.5 23t28 33.5t14.5 40h84zM242 700h92v-92h-92v92z" />
    <glyph glyph-name="Eogonek" unicode="&#x118;" horiz-adv-x="618" 
d="M549 401v-79h-367v-243h416v-79h-50q-30 -17 -47 -45.5t-17 -57.5q0 -23 10.5 -41t35.5 -18q13 0 21 5.5t13 13t7.5 16.5t2.5 17h74q-1 -20 -9 -40.5t-23 -37t-37.5 -26.5t-53.5 -10q-57 0 -94 27.5t-37 74.5q0 38 21.5 70t47.5 52h-375v700h499v-79h-405v-220h367z" />
    <glyph glyph-name="eogonek" unicode="&#x119;" horiz-adv-x="586" 
d="M445 297q-1 25 -7 54.5t-22 55t-44 42.5t-72 17q-42 0 -71.5 -14.5t-49 -38t-28.5 -54t-9 -62.5h303zM534 145q-5 -22 -18.5 -48.5t-32 -49.5t-41 -38.5t-43.5 -15.5h-1q-21 -17 -37 -43t-16 -52q0 -22 10.5 -39.5t33.5 -17.5q21 0 32 15t10 35h71q-3 -49 -35.5 -79
t-81.5 -30q-54 0 -90 26.5t-36 71.5q0 32 16 58.5t31 41.5q-53 -4 -100 11t-82.5 49t-56.5 87t-21 125q0 17 2 44.5t10 58t24 61.5t44 56t70 40.5t102 15.5q62 0 104 -17t69.5 -44t41.5 -61t20.5 -66.5t6.5 -61.5q0 -28 -1 -45h-398q3 -54 17.5 -90.5t37 -58.5t51 -31.5
t57.5 -9.5q26 0 49.5 7t42.5 20t32 32t17 43h89z" />
    <glyph glyph-name="Ecaron" unicode="&#x11a;" horiz-adv-x="618" 
d="M549 401v-79h-367v-243h416v-79h-510v700h499v-79h-405v-220h367zM252 760l-125 140h94l102 -105l102 105h94l-125 -140h-142z" />
    <glyph glyph-name="ecaron" unicode="&#x11b;" horiz-adv-x="576" 
d="M437 296q-1 25 -7 55t-21.5 55.5t-42.5 42.5t-70 17q-48 0 -79 -17.5t-48.5 -43.5t-23.5 -55.5t-6 -53.5h298zM525 147q-5 -27 -18.5 -56.5t-39 -54t-65.5 -40.5t-99 -16q-63 0 -106.5 17t-72 43.5t-44.5 58.5t-23.5 62t-9 54.5t-1.5 36.5q0 17 2 44.5t10 58t24 61.5
t43.5 56t68.5 40.5t100 15.5q76 0 121.5 -26.5t70 -66.5t33 -87.5t10.5 -88.5q0 -6 0.5 -12.5t0.5 -12.5h-391q0 -33 9 -67t28 -61.5t49.5 -45.5t74.5 -18q31 0 56 8.5t42.5 23t28 33.5t14.5 40h84zM222 568l-119 132h88l97 -99l97 99h88l-119 -132h-132z" />
    <glyph glyph-name="Gcircumflex" unicode="&#x11c;" horiz-adv-x="746" 
d="M685 365v-365h-73v113h-2q-30 -63 -90 -98.5t-143 -35.5q-63 0 -122 19.5t-105 64t-74 117t-28 177.5q0 89 24 157t69 114t108 69.5t141 23.5q70 0 121.5 -19.5t86 -51.5t53.5 -73t24 -84h-94q-2 24 -12 50.5t-32 48t-58.5 36t-90.5 14.5q-55 0 -94.5 -16t-66 -42
t-42.5 -58t-24 -64t-10.5 -60.5t-2.5 -47.5q0 -13 2 -40t10 -59.5t23.5 -67.5t42 -63.5t66 -47t95.5 -18.5q65 0 106 23.5t64.5 58t32.5 74.5t9 72h-200v79h286zM302 900h142l125 -140h-94l-102 105l-102 -105h-94z" />
    <glyph glyph-name="gcircumflex" unicode="&#x11d;" horiz-adv-x="606" 
d="M299 42q12 0 37 6.5t50 29t44 65.5t19 117q0 96 -40 151t-118 55q-37 0 -62.5 -12.5t-42 -31.5t-25 -43t-13 -46.5t-5 -42t-0.5 -29.5q0 -77 18.5 -121t44 -65.5t52 -27t41.5 -5.5zM169 -57q6 -22 20 -36t32.5 -22.5t40 -11.5t41.5 -3q52 0 80 21t41.5 48t16 53t2.5 36
v55q-18 -29 -35 -48.5t-36.5 -31.5t-42 -17.5t-50.5 -5.5q-45 0 -86.5 16t-73 49.5t-50.5 86t-19 126.5q0 12 1 36.5t7 54.5t19.5 61.5t38 58t62 43t92.5 16.5q63 0 107.5 -23t68.5 -67h3v70h82v-495q0 -49 -13.5 -83t-34.5 -57t-47.5 -36t-51.5 -20t-47 -8.5t-34 -1.5
q-18 0 -50 2t-65.5 14.5t-62 40t-40.5 79.5h84zM217 700h132l119 -132h-88l-97 99l-97 -99h-88z" />
    <glyph glyph-name="Gbreve" unicode="&#x11e;" horiz-adv-x="746" 
d="M685 365v-365h-73v113h-2q-30 -63 -90 -98.5t-143 -35.5q-63 0 -122 19.5t-105 64t-74 117t-28 177.5q0 89 24 157t69 114t108 69.5t141 23.5q70 0 121.5 -19.5t86 -51.5t53.5 -73t24 -84h-94q-2 24 -12 50.5t-32 48t-58.5 36t-90.5 14.5q-55 0 -94.5 -16t-66 -42
t-42.5 -58t-24 -64t-10.5 -60.5t-2.5 -47.5q0 -13 2 -40t10 -59.5t23.5 -67.5t42 -63.5t66 -47t95.5 -18.5q65 0 106 23.5t64.5 58t32.5 74.5t9 72h-200v79h286zM268 900q1 -39 30.5 -61.5t74.5 -22.5t70.5 18.5t34.5 65.5h78q-4 -21 -14 -45.5t-31 -45.5t-54 -35t-84 -14
t-84 14t-54 35t-31 45.5t-14 45.5h78z" />
    <glyph glyph-name="gbreve" unicode="&#x11f;" horiz-adv-x="606" 
d="M299 42q12 0 37 6.5t50 29t44 65.5t19 117q0 96 -40 151t-118 55q-37 0 -62.5 -12.5t-42 -31.5t-25 -43t-13 -46.5t-5 -42t-0.5 -29.5q0 -77 18.5 -121t44 -65.5t52 -27t41.5 -5.5zM169 -57q6 -22 20 -36t32.5 -22.5t40 -11.5t41.5 -3q52 0 80 21t41.5 48t16 53t2.5 36
v55q-18 -29 -35 -48.5t-36.5 -31.5t-42 -17.5t-50.5 -5.5q-45 0 -86.5 16t-73 49.5t-50.5 86t-19 126.5q0 12 1 36.5t7 54.5t19.5 61.5t38 58t62 43t92.5 16.5q63 0 107.5 -23t68.5 -67h3v70h82v-495q0 -49 -13.5 -83t-34.5 -57t-47.5 -36t-51.5 -20t-47 -8.5t-34 -1.5
q-18 0 -50 2t-65.5 14.5t-62 40t-40.5 79.5h84zM162 700q2 -30 25 -54.5t73 -24.5t73 24.5t25 54.5h74q-3 -20 -13 -43t-30 -43t-51.5 -33t-77.5 -13q-47 0 -78 13t-51 33t-30 43t-13 43h74z" />
    <glyph glyph-name="Gdotaccent" unicode="&#x120;" horiz-adv-x="746" 
d="M685 365v-365h-73v113h-2q-30 -63 -90 -98.5t-143 -35.5q-63 0 -122 19.5t-105 64t-74 117t-28 177.5q0 89 24 157t69 114t108 69.5t141 23.5q70 0 121.5 -19.5t86 -51.5t53.5 -73t24 -84h-94q-2 24 -12 50.5t-32 48t-58.5 36t-90.5 14.5q-55 0 -94.5 -16t-66 -42
t-42.5 -58t-24 -64t-10.5 -60.5t-2.5 -47.5q0 -13 2 -40t10 -59.5t23.5 -67.5t42 -63.5t66 -47t95.5 -18.5q65 0 106 23.5t64.5 58t32.5 74.5t9 72h-200v79h286zM327 851h94v-79h-94v79z" />
    <glyph glyph-name="gdotaccent" unicode="&#x121;" horiz-adv-x="606" 
d="M299 42q12 0 37 6.5t50 29t44 65.5t19 117q0 96 -40 151t-118 55q-37 0 -62.5 -12.5t-42 -31.5t-25 -43t-13 -46.5t-5 -42t-0.5 -29.5q0 -77 18.5 -121t44 -65.5t52 -27t41.5 -5.5zM169 -57q6 -22 20 -36t32.5 -22.5t40 -11.5t41.5 -3q52 0 80 21t41.5 48t16 53t2.5 36
v55q-18 -29 -35 -48.5t-36.5 -31.5t-42 -17.5t-50.5 -5.5q-45 0 -86.5 16t-73 49.5t-50.5 86t-19 126.5q0 12 1 36.5t7 54.5t19.5 61.5t38 58t62 43t92.5 16.5q63 0 107.5 -23t68.5 -67h3v70h82v-495q0 -49 -13.5 -83t-34.5 -57t-47.5 -36t-51.5 -20t-47 -8.5t-34 -1.5
q-18 0 -50 2t-65.5 14.5t-62 40t-40.5 79.5h84zM226 700h92v-92h-92v92z" />
    <glyph glyph-name="Gcommaaccent" unicode="&#x122;" horiz-adv-x="746" 
d="M685 365v-365h-73v113h-2q-30 -63 -90 -98.5t-143 -35.5q-63 0 -122 19.5t-105 64t-74 117t-28 177.5q0 89 24 157t69 114t108 69.5t141 23.5q70 0 121.5 -19.5t86 -51.5t53.5 -73t24 -84h-94q-2 24 -12 50.5t-32 48t-58.5 36t-90.5 14.5q-55 0 -94.5 -16t-66 -42
t-42.5 -58t-24 -64t-10.5 -60.5t-2.5 -47.5q0 -13 2 -40t10 -59.5t23.5 -67.5t42 -63.5t66 -47t95.5 -18.5q65 0 106 23.5t64.5 58t32.5 74.5t9 72h-200v79h286zM422 -60v-101q0 -26 -10 -44t-25 -29t-32.5 -17t-31.5 -9v55q21 2 35.5 14.5t14.5 29.5v11h-50v90h99z" />
    <glyph glyph-name="gcommaaccent" unicode="&#x123;" horiz-adv-x="606" 
d="M299 42q12 0 37 6.5t50 29t44 65.5t19 117q0 96 -40 151t-118 55q-37 0 -62.5 -12.5t-42 -31.5t-25 -43t-13 -46.5t-5 -42t-0.5 -29.5q0 -77 18.5 -121t44 -65.5t52 -27t41.5 -5.5zM169 -57q6 -22 20 -36t32.5 -22.5t40 -11.5t41.5 -3q52 0 80 21t41.5 48t16 53t2.5 36
v55q-18 -29 -35 -48.5t-36.5 -31.5t-42 -17.5t-50.5 -5.5q-45 0 -86.5 16t-73 49.5t-50.5 86t-19 126.5q0 12 1 36.5t7 54.5t19.5 61.5t38 58t62 43t92.5 16.5q63 0 107.5 -23t68.5 -67h3v70h82v-495q0 -49 -13.5 -83t-34.5 -57t-47.5 -36t-51.5 -20t-47 -8.5t-34 -1.5
q-18 0 -50 2t-65.5 14.5t-62 40t-40.5 79.5h84zM245.01 598.996v100.994q0 25.998 9.99902 43.9971t24.998 28.998q14.999 11 32.498 16.999q17.499 6 31.498 9v-54.9971q-20.998 -2 -35.4971 -14.499q-14.5 -12.499 -14.5 -29.498v-10.999h49.9971v-89.9951h-98.9932z" />
    <glyph glyph-name="Hcircumflex" unicode="&#x124;" horiz-adv-x="716" 
d="M182 0h-94v700h94v-292h352v292h94v-700h-94v329h-352v-329zM287 900h142l125 -140h-94l-102 105l-102 -105h-94z" />
    <glyph glyph-name="hcircumflex" unicode="&#x125;" horiz-adv-x="578" 
d="M163 700v-263q35 48 77.5 69.5t96.5 21.5q42 0 71 -11t47.5 -29t28 -39.5t14 -42.5t5 -39.5t0.5 -28.5v-338h-88v311q0 22 -1 49t-11 50.5t-31.5 39.5t-62.5 16q-18 0 -43 -6t-48 -25.5t-39 -57t-16 -100.5v-277h-88v700h88zM52 882h132l119 -132h-88l-97 99l-97 -99h-88
z" />
    <glyph glyph-name="Hbar" unicode="&#x126;" horiz-adv-x="716" 
d="M182 0h-94v548h-94v62h94v90h94v-90h352v90h94v-90h94v-62h-94v-548h-94v329h-352v-329zM182 548v-140h352v140h-352z" />
    <glyph glyph-name="hbar" unicode="&#x127;" horiz-adv-x="586" 
d="M171 700v-63h211v-62h-211v-158q14 18 33 37t40 30q22 12 49 18q25 6 52 6q21 0 48 -5.5t52 -21.5t43 -45t22 -75q1 -11 1 -21.5v-21.5v-318h-88v291q0 21 -0.5 43t-8.5 45q-13 40 -51 57q-21 10 -47 10q-24 0 -48 -8.5t-44 -26t-34 -42.5t-17 -58q-2 -14 -2 -27v-27
v-257h-88v575h-80v62h80v63h88z" />
    <glyph glyph-name="Itilde" unicode="&#x128;" horiz-adv-x="270" 
d="M182 700v-700h-94v700h94zM332 868q-3 -19 -11 -38.5t-22.5 -35t-35 -25t-47.5 -9.5t-45 7.5t-43 19.5l-35 17.5t-35 7.5q-21 0 -37 -10.5t-19 -30.5h-62q3 20 12.5 39t24.5 33.5t35.5 23.5t45.5 9q32 0 49.5 -8t28.5 -15q23 -14 42 -21.5t36 -7.5t34.5 10t22.5 34h61z
" />
    <glyph glyph-name="itilde" unicode="&#x129;" horiz-adv-x="239" 
d="M164 508v-508h-89v508h89zM305 700q-3 -15 -10 -33t-20 -33.5t-33 -25.5t-48 -10q-24 0 -43.5 8t-38.5 18l-32.5 16t-34.5 8q-16 0 -32.5 -8.5t-18.5 -31.5h-59q7 39 35 69.5t76 30.5q21 0 37 -5t37 -17l33 -18t41 -10q19 0 33.5 12t19.5 30h58z" />
    <glyph glyph-name="Imacron" unicode="&#x12a;" horiz-adv-x="270" 
d="M182 700v-700h-94v700h94zM-22 832h316v-60h-158h-158v60z" />
    <glyph glyph-name="imacron" unicode="&#x12b;" horiz-adv-x="239" 
d="M164 508v-508h-89v508h89zM-37 673h316v-60h-158h-158v60z" />
    <glyph glyph-name="Iogonek" unicode="&#x12e;" horiz-adv-x="270" 
d="M182 700v-700h-4q-29 -17 -46.5 -46t-17.5 -57q0 -23 11 -41t35 -18q13 0 21 5.5t13 13t7.5 16.5t2.5 17h74q-1 -20 -9 -40.5t-23 -37t-37.5 -26.5t-53.5 -10q-57 0 -94 27.5t-37 74.5q0 29 11 52t25 39l16 16t17 15h-5v700h94z" />
    <glyph glyph-name="iogonek" unicode="&#x12f;" horiz-adv-x="234" 
d="M73 700h88v-92h-88v92zM161 508v-508h-2q-18 -10 -31 -25q-12 -14 -22.5 -36t-10.5 -42q0 -23 11 -41t35 -18q13 0 21 5.5t13 13t7.5 16.5t2.5 17h74q-1 -20 -9 -40.5t-23 -37t-37.5 -26.5t-53.5 -10q-57 0 -94 27.5t-37 74.5q0 14 2.5 27.5t8.5 25.5q7 15 16 27t18 21
t15.5 14.5t8.5 6.5h-1v508h88z" />
    <glyph glyph-name="Idotaccent" unicode="&#x130;" horiz-adv-x="244" 
d="M75 851h94v-79h-94v79zM169 700v-700h-94v700h94z" />
    <glyph glyph-name="dotlessi" unicode="&#x131;" horiz-adv-x="239" 
d="M164 508v-508h-89v508h89z" />
    <glyph glyph-name="Jcircumflex" unicode="&#x134;" horiz-adv-x="526" 
d="M120 232q0 -42 6 -74t19.5 -54.5t36.5 -34t59 -11.5q37 0 60 13t35.5 36t16.5 55.5t4 70.5v467h94v-458q0 -69 -11.5 -118.5t-36.5 -81.5t-65.5 -47.5t-97.5 -15.5q-27 0 -63.5 5.5t-70 27.5t-57 65.5t-23.5 118.5v36h94zM332 900h142l125 -140h-94l-102 105l-102 -105
h-94z" />
    <glyph glyph-name="jcircumflex" unicode="&#x135;" horiz-adv-x="231" 
d="M182 700l119 -132h-88l-97 99l-97 -99h-89l120 132h132zM161 508v-555q0 -34 -5.5 -60.5t-19 -44.5t-37 -27.5t-58.5 -9.5q-13 0 -30.5 1.5t-26.5 2.5v62q35 6 53 11t26 13.5t9 23t1 39.5v544h88z" />
    <glyph glyph-name="Kcommaaccent" unicode="&#x136;" horiz-adv-x="673" 
d="M528 700h127l-292 -288l311 -412h-125l-255 349l-112 -109v-240h-94v700h94v-347zM386 -60v-101q0 -26 -10 -44t-25 -29t-32.5 -17t-31.5 -9v55q21 2 35.5 14.5t14.5 29.5v11h-50v90h99z" />
    <glyph glyph-name="kcommaaccent" unicode="&#x137;" horiz-adv-x="529" 
d="M405 508h105l-200 -196l220 -312h-102l-179 258l-86 -85v-173h-88v700h88v-434zM334 -60v-101q0 -26 -10 -44t-25 -29t-32.5 -17t-31.5 -9v55q21 2 35.5 14.5t14.5 29.5v11h-50v90h99z" />
    <glyph glyph-name="Lacute" unicode="&#x139;" horiz-adv-x="535" 
d="M538 0h-450v700h94v-621h356v-79zM386 900l-102 -140h-84l74 140h112z" />
    <glyph glyph-name="lacute" unicode="&#x13a;" horiz-adv-x="238" 
d="M163 700v-700h-88v700h88zM254 883l-96 -132h-80l70 132h106z" />
    <glyph glyph-name="Lcommaaccent" unicode="&#x13b;" horiz-adv-x="535" 
d="M538 0h-450v700h94v-621h356v-79zM375 -60v-101q0 -26 -10 -44t-25 -29t-32.5 -17t-31.5 -9v55q21 2 35.5 14.5t14.5 29.5v11h-50v90h99z" />
    <glyph glyph-name="lcommaaccent" unicode="&#x13c;" horiz-adv-x="238" 
d="M163 700v-700h-88v700h88zM168 -60v-101q0 -26 -10 -44t-25 -29t-32.5 -17t-31.5 -9v55q21 2 35.5 14.5t14.5 29.5v11h-50v90h99z" />
    <glyph glyph-name="Lcaron" unicode="&#x13d;" horiz-adv-x="535" 
d="M538 0h-450v700h94v-621h356v-79zM519 700v-140q0 -30 -10 -51t-25 -34.5t-32 -21t-32 -10.5v55q21 2 35.5 20.5t14.5 41.5v31h-50v109h99z" />
    <glyph glyph-name="lcaron" unicode="&#x13e;" horiz-adv-x="313" 
d="M158 700v-700h-88v700h88zM325 700v-140q0 -30 -10 -51t-25 -34.5t-32 -21t-32 -10.5v55q21 2 35.5 20.5t14.5 41.5v31h-50v109h99z" />
    <glyph glyph-name="Ldot" unicode="&#x13f;" horiz-adv-x="535" 
d="M538 0h-450v700h94v-621h356v-79zM353 421h92v-92h-92v92z" />
    <glyph glyph-name="ldot" unicode="&#x140;" horiz-adv-x="318" 
d="M158 700v-700h-88v700h88zM229 381h92v-92h-92v92z" />
    <glyph glyph-name="Lslash" unicode="&#x141;" horiz-adv-x="537" 
d="M540 0h-450v194l-77 -76v84l77 76v422h94v-348l200 200v-84l-200 -200v-189h356v-79z" />
    <glyph glyph-name="lslash" unicode="&#x142;" horiz-adv-x="300" 
d="M194 700v-247l123 85v-70l-123 -85v-383h-88v331l-123 -84v70l123 84v299h88z" />
    <glyph glyph-name="Nacute" unicode="&#x143;" horiz-adv-x="746" 
d="M182 0h-94v700h104l372 -555v555h94v-700h-103l-373 555v-555zM492 900l-102 -140h-84l74 140h112z" />
    <glyph glyph-name="nacute" unicode="&#x144;" horiz-adv-x="579" 
d="M163 508v-71q26 38 70 64.5t104 26.5q50 0 82.5 -15.5t51 -41.5t26 -60.5t7.5 -72.5v-338h-88v311q0 20 -1.5 47t-11 51t-31.5 40.5t-63 16.5q-18 0 -43 -6t-48 -25.5t-39 -57t-16 -100.5v-277h-88v508h88zM403 700l-96 -132h-80l70 132h106z" />
    <glyph glyph-name="Ncommaaccent" unicode="&#x145;" horiz-adv-x="746" 
d="M182 0h-94v700h104l372 -555v555h94v-700h-103l-373 555v-555zM422 -60v-101q0 -26 -10 -44t-25 -29t-32.5 -17t-31.5 -9v55q21 2 35.5 14.5t14.5 29.5v11h-50v90h99z" />
    <glyph glyph-name="ncommaaccent" unicode="&#x146;" horiz-adv-x="579" 
d="M163 508v-71q26 38 70 64.5t104 26.5q50 0 82.5 -15.5t51 -41.5t26 -60.5t7.5 -72.5v-338h-88v311q0 20 -1.5 47t-11 51t-31.5 40.5t-63 16.5q-18 0 -43 -6t-48 -25.5t-39 -57t-16 -100.5v-277h-88v508h88zM339 -60v-101q0 -26 -10 -44t-25 -29t-32.5 -17t-31.5 -9v55
q21 2 35.5 14.5t14.5 29.5v11h-50v90h99z" />
    <glyph glyph-name="Ncaron" unicode="&#x147;" horiz-adv-x="746" 
d="M182 0h-94v700h104l372 -555v555h94v-700h-103l-373 555v-555zM302 760l-125 140h94l102 -105l102 105h94l-125 -140h-142z" />
    <glyph glyph-name="ncaron" unicode="&#x148;" horiz-adv-x="579" 
d="M163 508v-71q26 38 70 64.5t104 26.5q50 0 82.5 -15.5t51 -41.5t26 -60.5t7.5 -72.5v-338h-88v311q0 20 -1.5 47t-11 51t-31.5 40.5t-63 16.5q-18 0 -43 -6t-48 -25.5t-39 -57t-16 -100.5v-277h-88v508h88zM223 568l-119 132h88l97 -99l97 99h88l-119 -132h-132z" />
    <glyph glyph-name="Omacron" unicode="&#x14c;" horiz-adv-x="764" 
d="M148 350q0 -42 8.5 -93t33.5 -95.5t71 -74t121 -29.5q12 0 34 2t48 11t53 27.5t49 50.5t36 81t14 120q0 62 -14 115.5t-42.5 92.5t-73 61.5t-104.5 22.5q-53 0 -91.5 -16.5t-64.5 -42.5t-41.5 -58.5t-23.5 -65t-10.5 -61.5t-2.5 -48zM48 350q0 92 25 161.5t69 116
t105.5 70t134.5 23.5q58 0 117.5 -18t107.5 -60.5t78.5 -114t30.5 -178.5q0 -91 -22 -154.5t-55.5 -104.5t-73.5 -63.5t-77 -33.5t-66 -13t-40 -2t-40.5 2t-66.5 13t-77 33.5t-73.5 63.5t-55 104t-21.5 155zM224 832h316v-60h-158h-158v60z" />
    <glyph glyph-name="omacron" unicode="&#x14d;" horiz-adv-x="592" 
d="M139 255q0 -76 19 -119t45 -64t52 -25.5t41 -4.5t41 4.5t52 25.5t45 64t19 119t-19 119t-45 64t-52 25.5t-41 4.5t-41 -4.5t-52 -25.5t-45 -64t-19 -119zM46 254q0 51 13 100t42.5 87.5t77.5 62.5t117 24t117 -24t77.5 -62.5t42.5 -87.5t13 -100t-13 -100t-42.5 -87.5
t-77.5 -62.5t-117 -24t-117 24t-77.5 62.5t-42.5 87.5t-13 100zM138 673h316v-60h-158h-158v60z" />
    <glyph glyph-name="Ohungarumlaut" unicode="&#x150;" horiz-adv-x="764" 
d="M148 350q0 -42 8.5 -93t33.5 -95.5t71 -74t121 -29.5q12 0 34 2t48 11t53 27.5t49 50.5t36 81t14 120q0 62 -14 115.5t-42.5 92.5t-73 61.5t-104.5 22.5q-53 0 -91.5 -16.5t-64.5 -42.5t-41.5 -58.5t-23.5 -65t-10.5 -61.5t-2.5 -48zM48 350q0 92 25 161.5t69 116
t105.5 70t134.5 23.5q58 0 117.5 -18t107.5 -60.5t78.5 -114t30.5 -178.5q0 -91 -22 -154.5t-55.5 -104.5t-73.5 -63.5t-77 -33.5t-66 -13t-40 -2t-40.5 2t-66.5 13t-77 33.5t-73.5 63.5t-55 104t-21.5 155zM546 900l-96 -140h-80l70 140h106zM393 900l-96 -140h-80l70 140
h106z" />
    <glyph glyph-name="ohungarumlaut" unicode="&#x151;" horiz-adv-x="592" 
d="M139 255q0 -76 19 -119t45 -64t52 -25.5t41 -4.5t41 4.5t52 25.5t45 64t19 119t-19 119t-45 64t-52 25.5t-41 4.5t-41 -4.5t-52 -25.5t-45 -64t-19 -119zM46 254q0 51 13 100t42.5 87.5t77.5 62.5t117 24t117 -24t77.5 -62.5t42.5 -87.5t13 -100t-13 -100t-42.5 -87.5
t-77.5 -62.5t-117 -24t-117 24t-77.5 62.5t-42.5 87.5t-13 100zM460 700l-96 -132h-80l70 132h106zM307 700l-96 -132h-80l70 132h106z" />
    <glyph glyph-name="OE" unicode="&#x152;" horiz-adv-x="1147" 
d="M382 58q12 0 34 2t48 11t53 27.5t49 50.5t36 81t14 120q0 65 -12.5 112t-32 79.5t-45 52t-51.5 30.5t-50.5 14.5t-42.5 3.5q-29 0 -69 -9t-76.5 -39t-62.5 -88t-26 -156q0 -42 8.5 -93t33.5 -95.5t71 -74t121 -29.5zM1115 700v-79h-405v-220h367v-79h-367v-243h417v-79
h-511v84q-12 -17 -31 -35t-47 -34t-66.5 -26t-89.5 -10q-88 0 -151.5 30t-104 80.5t-59.5 118t-19 142.5q0 69 16.5 136t55 119t102.5 84t159 32q22 0 52.5 -3t63 -14.5t64 -35t55.5 -64.5v96h499z" />
    <glyph glyph-name="oe" unicode="&#x153;" horiz-adv-x="978" 
d="M839 297q-5 42 -14 73.5t-25.5 53t-42 32t-61.5 10.5q-48 0 -78.5 -17.5t-47.5 -43t-23.5 -55t-7.5 -53.5h300zM139 256q0 -51 9 -86.5t23 -59.5t31.5 -37.5t35 -20.5t32.5 -8.5t25 -1.5q51 0 81.5 22.5t47 55.5t22 70t5.5 66q0 28 -5.5 64.5t-22 69t-47 54.5t-81.5 22
q-14 0 -40 -4.5t-52 -25.5t-45 -63t-19 -117zM927 148q-13 -55 -39.5 -88t-59 -51t-66 -23.5t-60.5 -5.5q-21 0 -48 2t-55.5 12t-55.5 31t-48 59q-19 -36 -44.5 -56.5t-53.5 -31t-54.5 -13.5t-47.5 -3q-64 0 -111 21.5t-77.5 58.5t-45.5 87.5t-15 108.5q0 20 2.5 47.5
t11.5 58t25.5 60t44.5 53.5t69.5 38.5t99.5 14.5q19 0 44.5 -2.5t52.5 -12t52.5 -29.5t46.5 -56q22 34 48 54t53 30.5t52 13t46 2.5q57 0 97 -15t66.5 -39t41.5 -54t22.5 -59.5t9 -56.5t1.5 -44v-25h-393q0 -33 8.5 -67.5t27.5 -62.5t49.5 -45.5t74.5 -17.5q33 0 57.5 9
t42 24t28.5 34t16 39h84z" />
    <glyph glyph-name="Racute" unicode="&#x154;" horiz-adv-x="687" 
d="M182 376h210q17 0 40.5 4.5t45.5 18t37 38t15 65.5q0 34 -11.5 57t-31.5 37t-48 19.5t-61 5.5h-196v-245zM88 700h310q19 0 43.5 -1.5t50.5 -8t50.5 -18.5t44 -32.5t31.5 -52t12 -75.5q0 -30 -8 -58.5t-23.5 -52t-38 -40t-50.5 -22.5v-3q35 -13 55 -31t30 -39.5
t12.5 -46.5t3.5 -52q1 -36 1.5 -61t2.5 -43.5t7.5 -33t16.5 -29.5h-99q-9 12 -14.5 23.5t-7.5 28t-3 39.5t-1 57q0 27 -3 53.5t-16 48t-39.5 34.5t-73.5 13h-200v-297h-94v700zM462 900l-102 -140h-84l74 140h112z" />
    <glyph glyph-name="racute" unicode="&#x155;" horiz-adv-x="375" 
d="M359 466q-45 -2 -79.5 -12t-59 -31t-39 -54t-17.5 -81q-1 -14 -1 -27v-27v-234h-88v508h88v-98h2q9 28 26.5 49.5t40 36t48.5 22.5t53 9l26 1v-62zM301 700l-96 -132h-80l70 132h106z" />
    <glyph glyph-name="Rcommaaccent" unicode="&#x156;" horiz-adv-x="687" 
d="M182 376h210q17 0 40.5 4.5t45.5 18t37 38t15 65.5q0 34 -11.5 57t-31.5 37t-48 19.5t-61 5.5h-196v-245zM88 700h310q19 0 43.5 -1.5t50.5 -8t50.5 -18.5t44 -32.5t31.5 -52t12 -75.5q0 -30 -8 -58.5t-23.5 -52t-38 -40t-50.5 -22.5v-3q35 -13 55 -31t30 -39.5
t12.5 -46.5t3.5 -52q1 -36 1.5 -61t2.5 -43.5t7.5 -33t16.5 -29.5h-99q-9 12 -14.5 23.5t-7.5 28t-3 39.5t-1 57q0 27 -3 53.5t-16 48t-39.5 34.5t-73.5 13h-200v-297h-94v700zM393 -60v-101q0 -26 -10 -44t-25 -29t-32.5 -17t-31.5 -9v55q21 2 35.5 14.5t14.5 29.5v11h-50
v90h99z" />
    <glyph glyph-name="rcommaaccent" unicode="&#x157;" horiz-adv-x="375" 
d="M359 466q-45 -2 -79.5 -12t-59 -31t-39 -54t-17.5 -81q-1 -14 -1 -27v-27v-234h-88v508h88v-98h2q9 28 26.5 49.5t40 36t48.5 22.5t53 9l26 1v-62zM173 -60v-101q0 -26 -10 -44t-25 -29t-32.5 -17t-31.5 -9v55q21 2 35.5 14.5t14.5 29.5v11h-50v90h99z" />
    <glyph glyph-name="Rcaron" unicode="&#x158;" horiz-adv-x="687" 
d="M182 376h210q17 0 40.5 4.5t45.5 18t37 38t15 65.5q0 34 -11.5 57t-31.5 37t-48 19.5t-61 5.5h-196v-245zM88 700h310q19 0 43.5 -1.5t50.5 -8t50.5 -18.5t44 -32.5t31.5 -52t12 -75.5q0 -30 -8 -58.5t-23.5 -52t-38 -40t-50.5 -22.5v-3q35 -13 55 -31t30 -39.5
t12.5 -46.5t3.5 -52q1 -36 1.5 -61t2.5 -43.5t7.5 -33t16.5 -29.5h-99q-9 12 -14.5 23.5t-7.5 28t-3 39.5t-1 57q0 27 -3 53.5t-16 48t-39.5 34.5t-73.5 13h-200v-297h-94v700zM272 760l-125 140h94l102 -105l102 105h94l-125 -140h-142z" />
    <glyph glyph-name="rcaron" unicode="&#x159;" horiz-adv-x="375" 
d="M359 466q-45 -2 -79.5 -12t-59 -31t-39 -54t-17.5 -81q-1 -14 -1 -27v-27v-234h-88v508h88v-98h2q9 28 26.5 49.5t40 36t48.5 22.5t53 9l26 1v-62zM123 568l-119 132h88l97 -99l97 99h88l-119 -132h-132z" />
    <glyph glyph-name="Sacute" unicode="&#x15a;" horiz-adv-x="662" 
d="M142 222q-1 -35 12 -65t39 -52t63.5 -34.5t85.5 -12.5q47 0 79.5 11t53 29t30 41.5t9.5 48.5q0 32 -13 53.5t-33 35t-45.5 21.5t-49.5 13l-114.5 24.5t-96 32.5t-66 56.5t-24.5 95.5q0 49 19 87t54 63t84 38t108 13q65 0 112.5 -16.5t79 -44.5t48 -65t19.5 -77h-94
q-5 43 -25.5 68t-46.5 37.5t-53 15.5t-43 3q-73 0 -117.5 -31.5t-44.5 -85.5q0 -32 14.5 -51.5t38.5 -32t55.5 -19.5t66.5 -14q47 -9 94.5 -20.5t86 -34.5t62.5 -61.5t24 -101.5q0 -52 -16.5 -88t-42.5 -59.5t-58 -36.5t-62.5 -19t-57 -7t-40.5 -1q-37 0 -85.5 7t-92.5 31.5
t-75.5 73t-35.5 131.5h94zM450 900l-102 -140h-84l74 140h112z" />
    <glyph glyph-name="sacute" unicode="&#x15b;" horiz-adv-x="512" 
d="M127 151q1 -30 13 -51t31.5 -34t44 -18.5t49.5 -5.5q44 0 68 12t35 28t12.5 32t1.5 24q0 12 -2.5 23.5t-13.5 22t-32.5 20t-58.5 18.5l-54 12q-32 7 -61 16t-51 25t-35 41.5t-13 65.5q0 42 17 70.5t45 45t62 23.5t69 7q65 0 104.5 -16t61.5 -39.5t30 -50t10 -47.5h-84
q-1 11 -5.5 26.5t-17 30t-35.5 24.5t-61 10q-4 0 -21 -1t-35.5 -8.5t-33.5 -24t-15 -46.5q0 -27 11.5 -43t31 -25t45 -14.5l52.5 -11.5q39 -9 72 -18.5t57.5 -25t38 -40.5t13.5 -64q0 -40 -14 -67.5t-35 -46t-46.5 -28.5t-49 -15t-41 -6t-23.5 -1q-57 0 -98.5 13.5t-69.5 37
t-42 54.5t-15 66h88zM370 700l-96 -132h-80l70 132h106z" />
    <glyph glyph-name="Scircumflex" unicode="&#x15c;" horiz-adv-x="662" 
d="M142 222q-1 -35 12 -65t39 -52t63.5 -34.5t85.5 -12.5q47 0 79.5 11t53 29t30 41.5t9.5 48.5q0 32 -13 53.5t-33 35t-45.5 21.5t-49.5 13l-114.5 24.5t-96 32.5t-66 56.5t-24.5 95.5q0 49 19 87t54 63t84 38t108 13q65 0 112.5 -16.5t79 -44.5t48 -65t19.5 -77h-94
q-5 43 -25.5 68t-46.5 37.5t-53 15.5t-43 3q-73 0 -117.5 -31.5t-44.5 -85.5q0 -32 14.5 -51.5t38.5 -32t55.5 -19.5t66.5 -14q47 -9 94.5 -20.5t86 -34.5t62.5 -61.5t24 -101.5q0 -52 -16.5 -88t-42.5 -59.5t-58 -36.5t-62.5 -19t-57 -7t-40.5 -1q-37 0 -85.5 7t-92.5 31.5
t-75.5 73t-35.5 131.5h94zM260 900h142l125 -140h-94l-102 105l-102 -105h-94z" />
    <glyph glyph-name="scircumflex" unicode="&#x15d;" horiz-adv-x="512" 
d="M127 151q1 -30 13 -51t31.5 -34t44 -18.5t49.5 -5.5q44 0 68 12t35 28t12.5 32t1.5 24q0 12 -2.5 23.5t-13.5 22t-32.5 20t-58.5 18.5l-54 12q-32 7 -61 16t-51 25t-35 41.5t-13 65.5q0 42 17 70.5t45 45t62 23.5t69 7q65 0 104.5 -16t61.5 -39.5t30 -50t10 -47.5h-84
q-1 11 -5.5 26.5t-17 30t-35.5 24.5t-61 10q-4 0 -21 -1t-35.5 -8.5t-33.5 -24t-15 -46.5q0 -27 11.5 -43t31 -25t45 -14.5l52.5 -11.5q39 -9 72 -18.5t57.5 -25t38 -40.5t13.5 -64q0 -40 -14 -67.5t-35 -46t-46.5 -28.5t-49 -15t-41 -6t-23.5 -1q-57 0 -98.5 13.5t-69.5 37
t-42 54.5t-15 66h88zM190 700h132l119 -132h-88l-97 99l-97 -99h-88z" />
    <glyph glyph-name="Scedilla" unicode="&#x15e;" horiz-adv-x="662" 
d="M142 222q-1 -35 12 -65t39 -52t63.5 -34.5t85.5 -12.5q47 0 79.5 11t53 29t30 41.5t9.5 48.5q0 32 -13 53.5t-33 35t-45.5 21.5t-49.5 13l-114.5 24.5t-96 32.5t-66 56.5t-24.5 95.5q0 49 19 87t54 63t84 38t108 13q65 0 112.5 -16.5t79 -44.5t48 -65t19.5 -77h-94
q-5 43 -25.5 68t-46.5 37.5t-53 15.5t-43 3q-73 0 -117.5 -31.5t-44.5 -85.5q0 -32 14.5 -51.5t38.5 -32t55.5 -19.5t66.5 -14q47 -9 94.5 -20.5t86 -34.5t62.5 -61.5t24 -101.5q0 -52 -16.5 -88t-42.5 -59.5t-58 -36.5t-62.5 -19t-57 -7t-40.5 -1q-37 0 -85.5 7t-92.5 31.5
t-75.5 73t-35.5 131.5h94zM242 -176q8 -3 22 -5.5t40 -2.5q34 0 48.5 10.5t14.5 26.5q0 15 -9 22.5t-22 11t-28 3.5h-27h-17l15 52h32q43 0 69 -9.5t40.5 -24t19 -32t4.5 -32.5q0 -13 -5 -27.5t-19 -27t-39 -21t-65 -8.5q-11 0 -33.5 1.5t-57.5 6.5z" />
    <glyph glyph-name="scedilla" unicode="&#x15f;" horiz-adv-x="512" 
d="M127 151q1 -30 13 -51t31.5 -34t44 -18.5t49.5 -5.5q44 0 68 12t35 28t12.5 32t1.5 24q0 12 -2.5 23.5t-13.5 22t-32.5 20t-58.5 18.5l-54 12q-32 7 -61 16t-51 25t-35 41.5t-13 65.5q0 42 17 70.5t45 45t62 23.5t69 7q65 0 104.5 -16t61.5 -39.5t30 -50t10 -47.5h-84
q-1 11 -5.5 26.5t-17 30t-35.5 24.5t-61 10q-4 0 -21 -1t-35.5 -8.5t-33.5 -24t-15 -46.5q0 -27 11.5 -43t31 -25t45 -14.5l52.5 -11.5q39 -9 72 -18.5t57.5 -25t38 -40.5t13.5 -64q0 -40 -14 -67.5t-35 -46t-46.5 -28.5t-49 -15t-41 -6t-23.5 -1q-57 0 -98.5 13.5t-69.5 37
t-42 54.5t-15 66h88zM167 -176q8 -3 22 -5.5t40 -2.5q34 0 48.5 10.5t14.5 26.5q0 15 -9 22.5t-22 11t-28 3.5h-27h-17l15 52h32q43 0 69 -9.5t40.5 -24t19 -32t4.5 -32.5q0 -13 -5 -27.5t-19 -27t-39 -21t-65 -8.5q-11 0 -33.5 1.5t-57.5 6.5z" />
    <glyph glyph-name="Scaron" unicode="&#x160;" horiz-adv-x="662" 
d="M142 222q-1 -35 12 -65t39 -52t63.5 -34.5t85.5 -12.5q47 0 79.5 11t53 29t30 41.5t9.5 48.5q0 32 -13 53.5t-33 35t-45.5 21.5t-49.5 13l-114.5 24.5t-96 32.5t-66 56.5t-24.5 95.5q0 49 19 87t54 63t84 38t108 13q65 0 112.5 -16.5t79 -44.5t48 -65t19.5 -77h-94
q-5 43 -25.5 68t-46.5 37.5t-53 15.5t-43 3q-73 0 -117.5 -31.5t-44.5 -85.5q0 -32 14.5 -51.5t38.5 -32t55.5 -19.5t66.5 -14q47 -9 94.5 -20.5t86 -34.5t62.5 -61.5t24 -101.5q0 -52 -16.5 -88t-42.5 -59.5t-58 -36.5t-62.5 -19t-57 -7t-40.5 -1q-37 0 -85.5 7t-92.5 31.5
t-75.5 73t-35.5 131.5h94zM260 760l-125 140h94l102 -105l102 105h94l-125 -140h-142z" />
    <glyph glyph-name="scaron" unicode="&#x161;" horiz-adv-x="512" 
d="M127 151q1 -30 13 -51t31.5 -34t44 -18.5t49.5 -5.5q44 0 68 12t35 28t12.5 32t1.5 24q0 12 -2.5 23.5t-13.5 22t-32.5 20t-58.5 18.5l-54 12q-32 7 -61 16t-51 25t-35 41.5t-13 65.5q0 42 17 70.5t45 45t62 23.5t69 7q65 0 104.5 -16t61.5 -39.5t30 -50t10 -47.5h-84
q-1 11 -5.5 26.5t-17 30t-35.5 24.5t-61 10q-4 0 -21 -1t-35.5 -8.5t-33.5 -24t-15 -46.5q0 -27 11.5 -43t31 -25t45 -14.5l52.5 -11.5q39 -9 72 -18.5t57.5 -25t38 -40.5t13.5 -64q0 -40 -14 -67.5t-35 -46t-46.5 -28.5t-49 -15t-41 -6t-23.5 -1q-57 0 -98.5 13.5t-69.5 37
t-42 54.5t-15 66h88zM190 568l-119 132h88l97 -99l97 99h88l-119 -132h-132z" />
    <glyph glyph-name="Tcedilla" unicode="&#x162;" horiz-adv-x="581" 
d="M16 621v79h549v-79h-227v-621h-94v621h-228zM201 -176q8 -3 22 -5.5t40 -2.5q34 0 48.5 10.5t14.5 26.5q0 15 -9 22.5t-22 11t-28 3.5h-27h-17l15 52h32q43 0 69 -9.5t40.5 -24t19 -32t4.5 -32.5q0 -13 -5 -27.5t-19 -27t-39 -21t-65 -8.5q-11 0 -33.5 1.5t-57.5 6.5z
" />
    <glyph glyph-name="tcedilla" unicode="&#x163;" horiz-adv-x="326" 
d="M107 508v152h88v-152h108v-62h-108v-323q0 -14 0.5 -26.5t5 -22.5t15.5 -15.5t32 -5.5q14 0 28 2.5t27 6.5v-62q-21 -9 -45 -14.5t-47 -5.5q-39 0 -60.5 12t-31 30.5t-11 40.5t-1.5 42v341h-91v62h91zM103 -176q8 -3 22 -5.5t40 -2.5q34 0 48.5 10.5t14.5 26.5
q0 15 -9 22.5t-22 11t-28 3.5h-27h-17l15 52h32q43 0 69 -9.5t40.5 -24t19 -32t4.5 -32.5q0 -13 -5 -27.5t-19 -27t-39 -21t-65 -8.5q-11 0 -33.5 1.5t-57.5 6.5z" />
    <glyph glyph-name="Tcaron" unicode="&#x164;" horiz-adv-x="581" 
d="M16 621v79h549v-79h-227v-621h-94v621h-228zM219 760l-125 140h94l102 -105l102 105h94l-125 -140h-142z" />
    <glyph glyph-name="tcaron" unicode="&#x165;" horiz-adv-x="454" 
d="M107 508v152h88v-152h108v-62h-108v-323q0 -14 0.5 -26.5t5 -22.5t15.5 -15.5t32 -5.5q14 0 28 2.5t27 6.5v-62q-21 -9 -45 -14.5t-47 -5.5q-39 0 -60.5 12t-31 30.5t-11 40.5t-1.5 42v341h-91v62h91zM458 700v-140q0 -30 -10 -51t-25 -34.5t-32 -21t-32 -10.5v55
q21 2 35.5 20.5t14.5 41.5v31h-50v109h99z" />
    <glyph glyph-name="Tbar" unicode="&#x166;" horiz-adv-x="581" 
d="M92 465h152v156h-228v79h549v-79h-227v-156h150v-70h-150v-395h-94v395h-152v70z" />
    <glyph glyph-name="tbar" unicode="&#x167;" horiz-adv-x="326" 
d="M16 333h91v113h-91v62h91v152h88v-152h108v-62h-108v-113h108v-62h-108v-148q0 -14 0.5 -26.5t5 -22.5t15.5 -15.5t32 -5.5q14 0 28 2.5t27 6.5v-62q-21 -9 -45 -14.5t-47 -5.5q-39 0 -60.5 12t-31 30.5t-11 40.5t-1.5 42v166h-91v62z" />
    <glyph glyph-name="Utilde" unicode="&#x168;" horiz-adv-x="702" 
d="M169 700v-417q0 -32 3.5 -71.5t21.5 -73.5t54.5 -57t102.5 -23q52 0 87 14.5t56 43t30 70.5t9 97v417h94v-429q0 -71 -15 -120.5t-39.5 -82t-55 -50.5t-61.5 -26.5t-58.5 -10.5t-46.5 -2q-64 0 -109 13.5t-76 35.5t-49 52t-27.5 62t-12 65.5t-2.5 63.5v429h94zM552 868
q-3 -19 -11 -38.5t-22.5 -35t-35 -25t-47.5 -9.5t-45 7.5t-43 19.5l-35 17.5t-35 7.5q-21 0 -37 -10.5t-19 -30.5h-62q3 20 12.5 39t24.5 33.5t35.5 23.5t45.5 9q32 0 49.5 -8t28.5 -15q23 -14 42 -21.5t36 -7.5t34.5 10t22.5 34h61z" />
    <glyph glyph-name="utilde" unicode="&#x169;" horiz-adv-x="579" 
d="M416 0v72h-2q-19 -33 -46 -51.5t-52.5 -27.5t-46 -11t-27.5 -2q-56 0 -89.5 19t-50.5 48t-22 62t-5 62v337h88v-311q0 -48 8 -78t22 -47.5t33.5 -23.5t43.5 -6q55 0 85 24.5t43.5 56.5t15.5 63t2 45v277h88v-508h-88zM474 700q-3 -15 -10 -33t-20 -33.5t-33 -25.5
t-48 -10q-24 0 -43.5 8t-38.5 18l-32.5 16t-34.5 8q-16 0 -32.5 -8.5t-18.5 -31.5h-59q7 39 35 69.5t76 30.5q21 0 37 -5t37 -17l33 -18t41 -10q19 0 33.5 12t19.5 30h58z" />
    <glyph glyph-name="Umacron" unicode="&#x16a;" horiz-adv-x="702" 
d="M169 700v-417q0 -32 3.5 -71.5t21.5 -73.5t54.5 -57t102.5 -23q52 0 87 14.5t56 43t30 70.5t9 97v417h94v-429q0 -71 -15 -120.5t-39.5 -82t-55 -50.5t-61.5 -26.5t-58.5 -10.5t-46.5 -2q-64 0 -109 13.5t-76 35.5t-49 52t-27.5 62t-12 65.5t-2.5 63.5v429h94zM193 832
h316v-60h-158h-158v60z" />
    <glyph glyph-name="umacron" unicode="&#x16b;" horiz-adv-x="579" 
d="M416 0v72h-2q-19 -33 -46 -51.5t-52.5 -27.5t-46 -11t-27.5 -2q-56 0 -89.5 19t-50.5 48t-22 62t-5 62v337h88v-311q0 -48 8 -78t22 -47.5t33.5 -23.5t43.5 -6q55 0 85 24.5t43.5 56.5t15.5 63t2 45v277h88v-508h-88zM131 673h316v-60h-158h-158v60z" />
    <glyph glyph-name="Ubreve" unicode="&#x16c;" horiz-adv-x="702" 
d="M169 700v-417q0 -32 3.5 -71.5t21.5 -73.5t54.5 -57t102.5 -23q52 0 87 14.5t56 43t30 70.5t9 97v417h94v-429q0 -71 -15 -120.5t-39.5 -82t-55 -50.5t-61.5 -26.5t-58.5 -10.5t-46.5 -2q-64 0 -109 13.5t-76 35.5t-49 52t-27.5 62t-12 65.5t-2.5 63.5v429h94zM246 900
q1 -39 30.5 -61.5t74.5 -22.5t70.5 18.5t34.5 65.5h78q-4 -21 -14 -45.5t-31 -45.5t-54 -35t-84 -14t-84 14t-54 35t-31 45.5t-14 45.5h78z" />
    <glyph glyph-name="ubreve" unicode="&#x16d;" horiz-adv-x="579" 
d="M416 0v72h-2q-19 -33 -46 -51.5t-52.5 -27.5t-46 -11t-27.5 -2q-56 0 -89.5 19t-50.5 48t-22 62t-5 62v337h88v-311q0 -48 8 -78t22 -47.5t33.5 -23.5t43.5 -6q55 0 85 24.5t43.5 56.5t15.5 63t2 45v277h88v-508h-88zM191 700q2 -30 25 -54.5t73 -24.5t73 24.5t25 54.5
h74q-3 -20 -13 -43t-30 -43t-51.5 -33t-77.5 -13q-47 0 -78 13t-51 33t-30 43t-13 43h74z" />
    <glyph glyph-name="Uring" unicode="&#x16e;" horiz-adv-x="702" 
d="M169 700v-417q0 -32 3.5 -71.5t21.5 -73.5t54.5 -57t102.5 -23q52 0 87 14.5t56 43t30 70.5t9 97v417h94v-429q0 -71 -15 -120.5t-39.5 -82t-55 -50.5t-61.5 -26.5t-58.5 -10.5t-46.5 -2q-64 0 -109 13.5t-76 35.5t-49 52t-27.5 62t-12 65.5t-2.5 63.5v429h94zM295 822
q0 -23 16.5 -39.5t39.5 -16.5t39.5 16.5t16.5 39.5t-16.5 39.5t-39.5 16.5t-39.5 -16.5t-16.5 -39.5zM253 822q0 41 28.5 69.5t69.5 28.5t69.5 -28.5t28.5 -69.5t-28.5 -69.5t-69.5 -28.5t-69.5 28.5t-28.5 69.5z" />
    <glyph glyph-name="uring" unicode="&#x16f;" horiz-adv-x="579" 
d="M416 0v72h-2q-19 -33 -46 -51.5t-52.5 -27.5t-46 -11t-27.5 -2q-56 0 -89.5 19t-50.5 48t-22 62t-5 62v337h88v-311q0 -48 8 -78t22 -47.5t33.5 -23.5t43.5 -6q55 0 85 24.5t43.5 56.5t15.5 63t2 45v277h88v-508h-88zM237 660q0 -22 15 -37t37 -15t37 15t15 37t-15 37
t-37 15t-37 -15t-15 -37zM197 660q0 19 7 36t19.5 29.5t29.5 19.5t36 7t36 -7t29.5 -19.5t19.5 -29.5t7 -36t-7 -36t-19.5 -29.5t-29.5 -19.5t-36 -7t-36 7t-29.5 19.5t-19.5 29.5t-7 36z" />
    <glyph glyph-name="Uhungarumlaut" unicode="&#x170;" horiz-adv-x="702" 
d="M169 700v-417q0 -32 3.5 -71.5t21.5 -73.5t54.5 -57t102.5 -23q52 0 87 14.5t56 43t30 70.5t9 97v417h94v-429q0 -71 -15 -120.5t-39.5 -82t-55 -50.5t-61.5 -26.5t-58.5 -10.5t-46.5 -2q-64 0 -109 13.5t-76 35.5t-49 52t-27.5 62t-12 65.5t-2.5 63.5v429h94zM535 900
l-96 -140h-80l70 140h106zM382 900l-96 -140h-80l70 140h106z" />
    <glyph glyph-name="uhungarumlaut" unicode="&#x171;" horiz-adv-x="579" 
d="M416 0v72h-2q-19 -33 -46 -51.5t-52.5 -27.5t-46 -11t-27.5 -2q-56 0 -89.5 19t-50.5 48t-22 62t-5 62v337h88v-311q0 -48 8 -78t22 -47.5t33.5 -23.5t43.5 -6q55 0 85 24.5t43.5 56.5t15.5 63t2 45v277h88v-508h-88zM474 700l-96 -132h-80l70 132h106zM321 700l-96 -132
h-80l70 132h106z" />
    <glyph glyph-name="Uogonek" unicode="&#x172;" horiz-adv-x="702" 
d="M169 700v-417q0 -32 3.5 -71.5t21.5 -73.5t54.5 -57t102.5 -23q52 0 87 14.5t56 43t30 70.5t9 97v417h94v-429q0 -63 -12.5 -109.5t-33 -79t-47 -53t-55 -31.5t-56.5 -15t-52 -4q-16 -15 -26.5 -39t-10.5 -43q0 -23 11 -41t35 -18q13 0 21 5.5t13 13t7.5 16.5t2.5 17h74
q-1 -20 -9 -40.5t-23 -37t-37.5 -26.5t-53.5 -10q-57 0 -94 27.5t-37 74.5q0 22 9.5 48.5t38.5 55.5q-75 8 -118.5 40t-65 75t-27.5 90t-6 84v429h94z" />
    <glyph glyph-name="uogonek" unicode="&#x173;" horiz-adv-x="579" 
d="M163 508v-311q0 -48 8 -78t22 -47.5t33.5 -23.5t43.5 -6q55 0 85 24.5t43.5 56.5t15.5 63t2 45v277h88v-508h-3q-29 -17 -46.5 -46t-17.5 -57q0 -23 11 -41t35 -18q13 0 21 5.5t13 13t7.5 16.5t2.5 17h74q-1 -20 -9 -40.5t-23 -37t-37.5 -26.5t-53.5 -10q-57 0 -94 27.5
t-37 74.5q0 14 2.5 27.5t8.5 25.5q7 15 16 27t18 21t15.5 14.5t8.5 6.5v72h-2q-19 -33 -46 -51.5t-52.5 -27.5t-46 -11t-27.5 -2q-56 0 -89.5 19t-50.5 48t-22 62t-5 62v337h88z" />
    <glyph glyph-name="Wcircumflex" unicode="&#x174;" horiz-adv-x="828" 
d="M270 0h-120l-186 700h106l146 -588l145 588h108l145 -588l146 588h106l-186 -700h-120l-145 589zM343 900h142l125 -140h-94l-102 105l-102 -105h-94z" />
    <glyph glyph-name="wcircumflex" unicode="&#x175;" horiz-adv-x="726" 
d="M257 0h-94l-164 508h91l124 -407l106 407h86l106 -407l124 407h91l-164 -508h-94l-106 407zM297 700h132l119 -132h-88l-97 99l-97 -99h-88z" />
    <glyph glyph-name="Ycircumflex" unicode="&#x176;" horiz-adv-x="611" 
d="M500 700h112l-259 -408v-292h-94v292l-260 408h112l195 -324zM234 900h142l125 -140h-94l-102 105l-102 -105h-94z" />
    <glyph glyph-name="ycircumflex" unicode="&#x177;" horiz-adv-x="504" 
d="M94 -119q20 -3 29 -4t15 -1q19 0 32 7t22 19t14.5 27.5l11.5 32.5l12 38l-220 508h105l163 -411l135 411h88l-202 -568l-14 -40.5t-22.5 -42t-37.5 -33t-59 -13.5q-21 0 -39.5 1t-32.5 4v65zM186 700h132l119 -132h-88l-97 99l-97 -99h-88z" />
    <glyph glyph-name="Ydieresis" unicode="&#x178;" horiz-adv-x="611" 
d="M500 700h112l-259 -408v-292h-94v292l-260 408h112l195 -324zM366 851h94v-79h-94v79zM150 851h94v-79h-94v79z" />
    <glyph glyph-name="Zacute" unicode="&#x179;" horiz-adv-x="599" 
d="M550 700v-75l-406 -546h426v-79h-541v86l411 535h-389v79h499zM418 900l-102 -140h-84l74 140h112z" />
    <glyph glyph-name="zacute" unicode="&#x17a;" horiz-adv-x="474" 
d="M430 508v-62l-295 -384h310v-62h-416v62l304 384h-283v62h380zM351 700l-96 -132h-80l70 132h106z" />
    <glyph glyph-name="Zdotaccent" unicode="&#x17b;" horiz-adv-x="599" 
d="M550 700v-75l-406 -546h426v-79h-541v86l411 535h-389v79h499zM252 851h94v-79h-94v79z" />
    <glyph glyph-name="zdotaccent" unicode="&#x17c;" horiz-adv-x="474" 
d="M430 508v-62l-295 -384h310v-62h-416v62l304 384h-283v62h380zM191 700h92v-92h-92v92z" />
    <glyph glyph-name="Zcaron" horiz-adv-x="599" 
d="M550 700v-75l-406 -546h426v-79h-541v86l411 535h-389v79h499zM228 760l-125 140h94l102 -105l102 105h94l-125 -140h-142z" />
    <glyph glyph-name="Zcaron" unicode="&#x17d;" horiz-adv-x="599" 
d="M550 700v-75l-406 -546h426v-79h-541v86l411 535h-389v79h499zM228 760l-125 140h94l102 -105l102 105h94l-125 -140h-142z" />
    <glyph glyph-name="zcaron" horiz-adv-x="474" 
d="M430 508v-62l-295 -384h310v-62h-416v62l304 384h-283v62h380zM172 568l-119 132h88l97 -99l97 99h88l-119 -132h-132z" />
    <glyph glyph-name="zcaron" unicode="&#x17e;" horiz-adv-x="474" 
d="M430 508v-62l-295 -384h310v-62h-416v62l304 384h-283v62h380zM172 568l-119 132h88l97 -99l97 99h88l-119 -132h-132z" />
    <glyph glyph-name="uni018F" unicode="&#x18f;" horiz-adv-x="770" 
d="M153 278q3 -29 15.5 -67t38.5 -72t69.5 -57.5t108.5 -23.5q56 0 98 19t70.5 50t44 70.5t18.5 80.5h-463zM619 361q-1 61 -13 105t-32 75.5t-44.5 51t-50.5 30.5t-50.5 15t-43.5 4q-16 0 -49.5 -3.5t-69.5 -19t-67 -47t-42 -88.5h-97q12 60 41.5 104.5t72 74t96 44
t115.5 14.5q73 0 134.5 -23.5t106 -70t69 -116t24.5 -161.5q0 -91 -22 -154.5t-55.5 -104.5t-73.5 -63.5t-77 -33.5t-66 -13t-40 -2q-67 0 -118.5 17.5t-88.5 47t-62 68t-40 81t-20.5 86t-4.5 82.5h568z" />
    <glyph glyph-name="florin" unicode="&#x192;" horiz-adv-x="590" 
d="M457 446h-109l-103 -490q-5 -21 -12 -46.5t-23 -47.5t-43.5 -36.5t-72.5 -14.5q-15 0 -32.5 1.5t-22.5 2.5l14 65q5 -1 14 -1q42 0 61 18t29 65l102 484h-93l13 62h93l15 69q27 123 162 123q34 0 62 -7l-12 -60q-11 2 -31 3.5t-31 1.5q-19 0 -31 -8.5t-18.5 -20t-9.5 -23
t-4 -17.5l-13 -61h109z" />
    <glyph glyph-name="Ohorn" unicode="&#x1a0;" horiz-adv-x="789" 
d="M48 350q0 92 25 161.5t69 116t105.5 70t134.5 23.5q48 0 97 -12t93 -41q23 -5 41 -5q41 0 56 25t15 61q0 18 -4.5 38.5t-15.5 38.5h94q18 -41 18 -78q0 -57 -34.5 -93t-98.5 -36h-13q38 -44 62 -109.5t24 -159.5q0 -91 -22 -154.5t-55.5 -104.5t-73.5 -63.5t-77 -33.5
t-66 -13t-40 -2t-40.5 2t-66.5 13t-77 33.5t-73.5 63.5t-55 104t-21.5 155zM148 350q0 -42 8.5 -93t33.5 -95.5t71 -74t121 -29.5q12 0 34 2t48 11t53 27.5t49 50.5t36 81t14 120q0 62 -14 115.5t-42.5 92.5t-73 61.5t-104.5 22.5q-53 0 -91.5 -16.5t-64.5 -42.5
t-41.5 -58.5t-23.5 -65t-10.5 -61.5t-2.5 -48z" />
    <glyph glyph-name="ohorn" unicode="&#x1a1;" horiz-adv-x="620" 
d="M46 254q0 51 13 100t42.5 87.5t77.5 62.5t117 24q33 0 61 -5.5t51 -16.5h22q44 0 69.5 19.5t25.5 67.5q0 24 -8 51h92q8 -30 8 -52q0 -57 -34.5 -93.5t-98.5 -36.5h-12q40 -40 57 -95t17 -113q0 -51 -13 -100t-42.5 -87.5t-77.5 -62.5t-117 -24t-117 24t-77.5 62.5
t-42.5 87.5t-13 100zM139 255q0 -77 19 -119.5t45 -63.5t52 -25.5t41 -4.5t41 4.5t52 25.5t45 63.5t19 119.5q0 76 -19 119t-45 64t-52 25.5t-41 4.5t-41 -4.5t-52 -25.5t-45 -64t-19 -119z" />
    <glyph glyph-name="Uhorn" unicode="&#x1af;" horiz-adv-x="750" 
d="M169 700v-417q0 -32 3.5 -71.5t21.5 -73.5t54.5 -57t102.5 -23q52 0 87 14.5t56 43t30 70.5t9 97v417h88q82 0 82 86q0 11 -3.5 27.5t-8.5 33.5h92q6 -14 9 -32.5t3 -29.5q0 -57 -34.5 -93.5t-98.5 -36.5h-17t-18 1v-385q0 -71 -15 -120.5t-39.5 -82t-55 -50.5t-61 -26.5
t-58.5 -10.5t-47 -2q-64 0 -109.5 13.5t-76 35.5t-48.5 52t-27.5 62t-12 65.5t-2.5 63.5v429h94z" />
    <glyph glyph-name="uhorn" unicode="&#x1b0;" horiz-adv-x="633" 
d="M416 0v72h-2q-19 -33 -46 -51.5t-52.5 -27.5t-46 -11t-27.5 -2q-56 0 -89.5 19t-50.5 48t-22 62t-5 62v337h88v-311q0 -48 8 -78t22 -47.5t33.5 -23.5t43.5 -6q55 0 84.5 24.5t43 56.5t16 63t2.5 45v277h78q35 0 57.5 22t22.5 63q0 21 -6 44h92q6 -26 6 -45
q0 -57 -34.5 -93.5t-98.5 -36.5h-14.5t-14.5 1v-463h-88z" />
    <glyph glyph-name="uni01DD" unicode="&#x1dd;" horiz-adv-x="576" 
d="M138 212q2 -62 21 -96t43 -50.5t46.5 -20t31.5 -3.5q49 0 79.5 17.5t47.5 43.5t23 55.5t7 53.5h-299zM55 361q12 61 44.5 95t69.5 50t68 19t40 3q62 0 105 -16.5t71 -42.5t43.5 -58t23 -62t9 -55.5t1.5 -37.5q0 -67 -15.5 -114t-40 -77.5t-54 -47.5t-57 -25.5t-49.5 -10
t-32 -1.5q-71 0 -117 24t-73 64.5t-37 94t-9 111.5h391q0 27 -7.5 60.5t-25 63t-48 49t-76.5 19.5q-23 0 -46.5 -6.5t-43 -20t-33.5 -33t-18 -45.5h-84z" />
    <glyph glyph-name="Gcaron" unicode="&#x1e6;" horiz-adv-x="746" 
d="M685 365v-365h-73v113h-2q-30 -63 -90 -98.5t-143 -35.5q-63 0 -122 19.5t-105 64t-74 117t-28 177.5q0 89 24 157t69 114t108 69.5t141 23.5q70 0 121.5 -19.5t86 -51.5t53.5 -73t24 -84h-94q-2 24 -12 50.5t-32 48t-58.5 36t-90.5 14.5q-55 0 -94.5 -16t-66 -42
t-42.5 -58t-24 -64t-10.5 -60.5t-2.5 -47.5q0 -13 2 -40t10 -59.5t23.5 -67.5t42 -63.5t66 -47t95.5 -18.5q65 0 106 23.5t64.5 58t32.5 74.5t9 72h-200v79h286zM302 760l-125 140h94l102 -105l102 105h94l-125 -140h-142z" />
    <glyph glyph-name="gcaron" unicode="&#x1e7;" horiz-adv-x="606" 
d="M299 42q12 0 37 6.5t50 29t44 65.5t19 117q0 96 -40 151t-118 55q-37 0 -62.5 -12.5t-42 -31.5t-25 -43t-13 -46.5t-5 -42t-0.5 -29.5q0 -77 18.5 -121t44 -65.5t52 -27t41.5 -5.5zM169 -57q6 -22 20 -36t32.5 -22.5t40 -11.5t41.5 -3q52 0 80 21t41.5 48t16 53t2.5 36
v55q-18 -29 -35 -48.5t-36.5 -31.5t-42 -17.5t-50.5 -5.5q-45 0 -86.5 16t-73 49.5t-50.5 86t-19 126.5q0 12 1 36.5t7 54.5t19.5 61.5t38 58t62 43t92.5 16.5q63 0 107.5 -23t68.5 -67h3v70h82v-495q0 -49 -13.5 -83t-34.5 -57t-47.5 -36t-51.5 -20t-47 -8.5t-34 -1.5
q-18 0 -50 2t-65.5 14.5t-62 40t-40.5 79.5h84zM237 568l-119 132h88l97 -99l97 99h88l-119 -132h-132z" />
    <glyph glyph-name="Scommaaccent" unicode="&#x218;" horiz-adv-x="662" 
d="M142 222q-1 -35 12 -65t39 -52t63.5 -34.5t85.5 -12.5q47 0 79.5 11t53 29t30 41.5t9.5 48.5q0 32 -13 53.5t-33 35t-45.5 21.5t-49.5 13l-114.5 24.5t-96 32.5t-66 56.5t-24.5 95.5q0 49 19 87t54 63t84 38t108 13q65 0 112.5 -16.5t79 -44.5t48 -65t19.5 -77h-94
q-5 43 -25.5 68t-46.5 37.5t-53 15.5t-43 3q-73 0 -117.5 -31.5t-44.5 -85.5q0 -32 14.5 -51.5t38.5 -32t55.5 -19.5t66.5 -14q47 -9 94.5 -20.5t86 -34.5t62.5 -61.5t24 -101.5q0 -52 -16.5 -88t-42.5 -59.5t-58 -36.5t-62.5 -19t-57 -7t-40.5 -1q-37 0 -85.5 7t-92.5 31.5
t-75.5 73t-35.5 131.5h94zM380 -60v-101q0 -26 -10 -44t-25 -29t-32.5 -17t-31.5 -9v55q21 2 35.5 14.5t14.5 29.5v11h-50v90h99z" />
    <glyph glyph-name="scommaaccent" unicode="&#x219;" horiz-adv-x="512" 
d="M127 151q1 -30 13 -51t31.5 -34t44 -18.5t49.5 -5.5q44 0 68 12t35 28t12.5 32t1.5 24q0 12 -2.5 23.5t-13.5 22t-32.5 20t-58.5 18.5l-54 12q-32 7 -61 16t-51 25t-35 41.5t-13 65.5q0 42 17 70.5t45 45t62 23.5t69 7q65 0 104.5 -16t61.5 -39.5t30 -50t10 -47.5h-84
q-1 11 -5.5 26.5t-17 30t-35.5 24.5t-61 10q-4 0 -21 -1t-35.5 -8.5t-33.5 -24t-15 -46.5q0 -27 11.5 -43t31 -25t45 -14.5l52.5 -11.5q39 -9 72 -18.5t57.5 -25t38 -40.5t13.5 -64q0 -40 -14 -67.5t-35 -46t-46.5 -28.5t-49 -15t-41 -6t-23.5 -1q-57 0 -98.5 13.5t-69.5 37
t-42 54.5t-15 66h88zM305 -60v-101q0 -26 -10 -44t-25 -29t-32.5 -17t-31.5 -9v55q21 2 35.5 14.5t14.5 29.5v11h-50v90h99z" />
    <glyph glyph-name="Tcommaaccent" unicode="&#x21a;" horiz-adv-x="581" 
d="M16 621v79h549v-79h-227v-621h-94v621h-228zM340 -60v-101q0 -26 -10 -44t-25 -29t-32.5 -17t-31.5 -9v55q21 2 35.5 14.5t14.5 29.5v11h-50v90h99z" />
    <glyph glyph-name="tcommaaccent" unicode="&#x21b;" horiz-adv-x="326" 
d="M107 508v152h88v-152h108v-62h-108v-323q0 -14 0.5 -26.5t5 -22.5t15.5 -15.5t32 -5.5q14 0 28 2.5t27 6.5v-62q-21 -9 -45 -14.5t-47 -5.5q-39 0 -60.5 12t-31 30.5t-11 40.5t-1.5 42v341h-91v62h91zM256 -60v-101q0 -26 -10 -44t-25 -29t-32.5 -17t-31.5 -9v55
q21 2 35.5 14.5t14.5 29.5v11h-50v90h99z" />
    <glyph glyph-name="uni0237" unicode="&#x237;" horiz-adv-x="237" 
d="M164 508v-555q0 -34 -5.5 -60.5t-19 -44.5t-37 -27.5t-58.5 -9.5q-13 0 -30.5 1.5t-26.5 2.5v62q34 6 52.5 11t26.5 13.5t9 23t1 39.5v544h88z" />
    <glyph glyph-name="uni0259" unicode="&#x259;" horiz-adv-x="576" 
d="M138 212q2 -62 21 -96t43 -50.5t46.5 -20t31.5 -3.5q49 0 79.5 17.5t47.5 43.5t23 55.5t7 53.5h-299zM55 361q12 61 44.5 95t69.5 50t68 19t40 3q62 0 105 -16.5t71 -42.5t43.5 -58t23 -62t9 -55.5t1.5 -37.5q0 -67 -15.5 -114t-40 -77.5t-54 -47.5t-57 -25.5t-49.5 -10
t-32 -1.5q-71 0 -117 24t-73 64.5t-37 94t-9 111.5h391q0 27 -7.5 60.5t-25 63t-48 49t-76.5 19.5q-23 0 -46.5 -6.5t-43 -20t-33.5 -33t-18 -45.5h-84z" />
    <glyph glyph-name="afii57929" unicode="&#x2bc;" horiz-adv-x="205" 
d="M152 700v-140q0 -30 -10 -51t-25 -34.5t-32 -21t-32 -10.5v55q21 2 35.5 20.5t14.5 41.5v31h-50v109h99z" />
    <glyph glyph-name="circumflex" unicode="&#x2c6;" horiz-adv-x="476" 
d="M172 700h132l119 -132h-88l-97 99l-97 -99h-88z" />
    <glyph glyph-name="caron" unicode="&#x2c7;" horiz-adv-x="476" 
d="M172 568l-119 132h88l97 -99l97 99h88l-119 -132h-132z" />
    <glyph glyph-name="uni02C9" unicode="&#x2c9;" horiz-adv-x="422" 
d="M53 673h316v-60h-158h-158v60z" />
    <glyph glyph-name="breve" unicode="&#x2d8;" horiz-adv-x="450" 
d="M127 700q2 -30 25 -54.5t73 -24.5t73 24.5t25 54.5h74q-3 -20 -13 -43t-30 -43t-51.5 -33t-77.5 -13q-47 0 -78 13t-51 33t-30 43t-13 43h74z" />
    <glyph glyph-name="dotaccent" unicode="&#x2d9;" horiz-adv-x="198" 
d="M53 700h92v-92h-92v92z" />
    <glyph glyph-name="ring" unicode="&#x2da;" horiz-adv-x="290" 
d="M93 660q0 -22 15 -37t37 -15t37 15t15 37t-15 37t-37 15t-37 -15t-15 -37zM53 660q0 19 7 36t19.5 29.5t29.5 19.5t36 7t36 -7t29.5 -19.5t19.5 -29.5t7 -36t-7 -36t-19.5 -29.5t-29.5 -19.5t-36 -7t-36 7t-29.5 19.5t-19.5 29.5t-7 36z" />
    <glyph glyph-name="ogonek" unicode="&#x2db;" horiz-adv-x="356" 
d="M205 0q-29 -17 -46.5 -46t-17.5 -57q0 -23 11 -41t35 -18q13 0 21 5.5t13 13t7.5 16.5t2.5 17h74q-1 -20 -9 -40.5t-23 -37t-37.5 -26.5t-53.5 -10q-57 0 -94 27.5t-37 74.5q0 38 21.5 70t47.5 52h85z" />
    <glyph glyph-name="tilde" unicode="&#x2dc;" horiz-adv-x="476" 
d="M423 700q-3 -15 -10 -33t-20 -33.5t-33 -25.5t-48 -10q-24 0 -43.5 8t-38.5 18l-32.5 16t-34.5 8q-16 0 -32.5 -8.5t-18.5 -31.5h-59q7 39 35 69.5t76 30.5q21 0 37 -5t37 -17l33 -18t41 -10q19 0 33.5 12t19.5 30h58z" />
    <glyph glyph-name="hungarumlaut" unicode="&#x2dd;" horiz-adv-x="435" 
d="M382 700l-96 -132h-80l70 132h106zM229 700l-96 -132h-80l70 132h106z" />
    <glyph glyph-name="gravecomb" unicode="&#x300;" horiz-adv-x="8" 
d="M-175 568h-80l-96 132h106z" />
    <glyph glyph-name="acutecomb" unicode="&#x301;" horiz-adv-x="8" 
d="M-158 700l-96 -132h-80l70 132h106z" />
    <glyph glyph-name="tildecomb" unicode="&#x303;" horiz-adv-x="8" 
d="M-94 700q-3 -15 -10 -33t-20 -33.5t-33 -25.5t-48 -10q-24 0 -43.5 8t-38.5 18l-32.5 16t-34.5 8q-16 0 -32.5 -8.5t-18.5 -31.5h-59q7 39 35 69.5t76 30.5q21 0 37 -5t37 -17l33 -18t41 -10q19 0 33.5 12t19.5 30h58z" />
    <glyph glyph-name="hookabovecomb" unicode="&#x309;" horiz-adv-x="545" 
d="M153 687q0 17 5 34.5t18 31.5t37 23t62 9q62 0 89.5 -22t27.5 -56q0 -29 -14.5 -46t-36.5 -33t-30 -27t-8 -23v-10h-72v12q0 14 7.5 30t33.5 36q25 19 36 30.5t11 28.5q0 12 -8.5 22t-35.5 10q-28 0 -40.5 -13.5t-13.5 -36.5h-68z" />
    <glyph glyph-name="uni0313" unicode="&#x313;" horiz-adv-x="317" 
d="M208 700v-140q0 -30 -10 -51t-25 -34.5t-32 -21t-32 -10.5v55q21 2 35.5 20.5t14.5 41.5v31h-50v109h99z" />
    <glyph glyph-name="uni0315" unicode="&#x315;" horiz-adv-x="205" 
d="M152 700v-140q0 -30 -10 -51t-25 -34.5t-32 -21t-32 -10.5v55q21 2 35.5 20.5t14.5 41.5v31h-50v109h99z" />
    <glyph glyph-name="uni031B" unicode="&#x31b;" horiz-adv-x="411" 
d="M128 508q35 0 57.5 22t22.5 63q0 21 -6 44h92q6 -26 6 -45q0 -57 -34.5 -93.5t-98.5 -36.5q-8 0 -20 0.5t-20 1.5z" />
    <glyph glyph-name="dotbelowcomb" unicode="&#x323;" horiz-adv-x="234" 
d="M73 -93h88v-92h-88v92z" />
    <glyph glyph-name="uni0326" unicode="&#x326;" horiz-adv-x="205" 
d="M152 -60v-101q0 -26 -10 -44t-25 -29t-32.5 -17t-31.5 -9v55q21 2 35.5 14.5t14.5 29.5v11h-50v90h99z" />
    <glyph glyph-name="uni037E" unicode="&#x37e;" horiz-adv-x="317" 
d="M208 109v-140q0 -30 -10 -51t-25 -34.5t-32 -21t-32 -10.5v55q21 2 35.5 20.5t14.5 41.5v31h-50v109h99zM109 508h99v-109h-99v109z" />
    <glyph glyph-name="tonos" unicode="&#x384;" horiz-adv-x="206" 
d="M103 714h110l-100 -146h-80z" />
    <glyph glyph-name="dieresistonos" unicode="&#x385;" horiz-adv-x="386" 
d="M23 608v92h78v-92h-78zM285 608v92h78v-92h-78zM174 714h90l-99 -146h-48z" />
    <glyph glyph-name="Alphatonos" unicode="&#x386;" horiz-adv-x="683" 
d="M221 181l-66 -181h-101l265 700h100l265 -700h-101l-66 181h-296zM247 260h244l-122 345zM100 714h110l-100 -146h-80z" />
    <glyph glyph-name="anoteleia" unicode="&#x387;" horiz-adv-x="256" 
d="M79 213v110h99v-110h-99z" />
    <glyph glyph-name="Epsilontonos" unicode="&#x388;" horiz-adv-x="791" 
d="M355 401h367v-79h-367v-243h416v-79h-510v700h499v-79h-405v-220zM100 714h110l-100 -146h-80z" />
    <glyph glyph-name="Etatonos" unicode="&#x389;" horiz-adv-x="889" 
d="M355 329v-329h-94v700h94v-292h352v292h94v-700h-94v329h-352zM100 714h110l-100 -146h-80z" />
    <glyph glyph-name="Iotatonos" unicode="&#x38a;" horiz-adv-x="443" 
d="M261 700h94v-700h-94v700zM100 714h110l-100 -146h-80z" />
    <glyph glyph-name="Omicrontonos" unicode="&#x38c;" horiz-adv-x="881" 
d="M165 350q-1 178 91 274.5t243 96.5q153 0 243.5 -97t90.5 -274q0 -172 -87.5 -271t-246.5 -99q-161 0 -247.5 99t-86.5 271zM265 350q0 -145 62 -219t172 -73q104 0 169 71t65 221q0 130 -59.5 211t-174.5 81t-174.5 -80t-59.5 -212zM100 714h110l-100 -146h-80z" />
    <glyph glyph-name="Upsilontonos" unicode="&#x38e;" horiz-adv-x="843" 
d="M538 376l194 324h112l-259 -408v-292h-94v292l-260 408h112zM100 714h110l-100 -146h-80z" />
    <glyph glyph-name="Omegatonos" unicode="&#x38f;" horiz-adv-x="838" 
d="M777 79v-79h-264v92q27 7 56 23.5t53 48t39.5 80t15.5 118.5q0 63 -15.5 115t-44.5 88.5t-70 56.5t-92 20t-92 -20t-70 -56.5t-44.5 -88.5t-15.5 -115q0 -70 15.5 -118.5t39.5 -80t53 -48t56 -23.5v-92h-264v79h130v5q-70 45 -100 117.5t-30 160.5q0 68 17 132.5t55 115
t99.5 81t150.5 30.5t150.5 -30.5t99.5 -81t55 -115t17 -132.5q0 -88 -30 -160.5t-100 -117.5v-5h130zM70 714h100l-90 -146h-80z" />
    <glyph glyph-name="iotadieresistonos" unicode="&#x390;" horiz-adv-x="232" 
d="M75 508h88v-390q0 -31 8.5 -43.5t33.5 -12.5h10v-62q-10 -1 -19 -2t-20 -1q-49 0 -75 19.5t-26 72.5v419zM-50 608v92h78v-92h-78zM212 608v92h78v-92h-78zM101 714h90l-99 -146h-48z" />
    <glyph glyph-name="Alpha" unicode="&#x391;" 
d="M436 260l-122 345l-122 -345h244zM100 0h-101l265 700h100l265 -700h-101l-66 181h-296z" />
    <glyph glyph-name="Beta" unicode="&#x392;" horiz-adv-x="695" 
d="M182 79h195q24 0 52.5 3.5t52.5 16t40 37t16 67.5q0 34 -11.5 57t-32.5 37t-50.5 20.5t-66.5 6.5h-195v-245zM182 403h189q39 0 65 9t42 24t23 34.5t7 41.5q0 15 -4.5 34t-18.5 35.5t-40.5 28t-70.5 11.5h-192v-218zM395 700q64 0 104.5 -16.5t63.5 -42t32 -57t9 -62.5
q0 -28 -9 -53.5t-25 -45.5t-37 -33.5t-46 -17.5v-3q22 -4 47.5 -14t47.5 -30t37 -51.5t15 -78.5q0 -38 -11 -73t-39.5 -62t-76.5 -43.5t-123 -16.5h-296v700h307z" />
    <glyph glyph-name="Gamma" unicode="&#x393;" horiz-adv-x="550" 
d="M182 0h-94v700h446v-79h-352v-621z" />
    <glyph glyph-name="uni0394" unicode="&#x394;" 
d="M-1 0l265 700h100l265 -700h-630zM128 79h372l-186 526z" />
    <glyph glyph-name="Epsilon" unicode="&#x395;" horiz-adv-x="618" 
d="M549 401v-79h-367v-243h416v-79h-510v700h499v-79h-405v-220h367z" />
    <glyph glyph-name="Zeta" unicode="&#x396;" horiz-adv-x="599" 
d="M550 700v-75l-406 -546h426v-79h-541v86l411 535h-389v79h499z" />
    <glyph glyph-name="Eta" unicode="&#x397;" horiz-adv-x="716" 
d="M182 0h-94v700h94v-292h352v292h94v-700h-94v329h-352v-329z" />
    <glyph glyph-name="Theta" unicode="&#x398;" horiz-adv-x="764" 
d="M48 350q0 178 91.5 274.5t242.5 96.5q153 0 243.5 -97t90.5 -274q-1 -172 -88 -271t-246 -99q-161 0 -247.5 99t-86.5 271zM148 350q0 -145 62 -218.5t172 -73.5q104 0 169 71t65 221q0 130 -59.5 211t-174.5 81t-174.5 -80t-59.5 -212zM203 400h358v-79h-358v79z" />
    <glyph glyph-name="Iota" unicode="&#x399;" horiz-adv-x="270" 
d="M182 700v-700h-94v700h94z" />
    <glyph glyph-name="Kappa" unicode="&#x39a;" horiz-adv-x="633" 
d="M497 700h115l-333 -324l355 -376h-123l-329 365v-365h-94v700h94v-319z" />
    <glyph glyph-name="Lambda" unicode="&#x39b;" horiz-adv-x="600" 
d="M300 603l-198 -603h-102l244 700h112l245 -700h-103z" />
    <glyph glyph-name="Mu" unicode="&#x39c;" horiz-adv-x="896" 
d="M182 588h-2l2 -27v-561h-94v700h141l219 -576l219 576h141v-700h-94v561l2 27h-3l-227 -588h-76z" />
    <glyph glyph-name="Nu" unicode="&#x39d;" horiz-adv-x="746" 
d="M182 0h-94v700h104l372 -555v555h94v-700h-103l-373 555v-555z" />
    <glyph glyph-name="Xi" unicode="&#x39e;" horiz-adv-x="550" 
d="M20 79h510v-79h-510v79zM69 405h412v-79h-412v79zM39 700h472v-79h-472v79z" />
    <glyph glyph-name="Omicron" unicode="&#x39f;" horiz-adv-x="764" 
d="M148 350q0 -42 8.5 -93t33.5 -95.5t71 -74t121 -29.5q12 0 34 2t48 11t53 27.5t49 50.5t36 81t14 120q0 62 -14 115.5t-42.5 92.5t-73 61.5t-104.5 22.5q-53 0 -91.5 -16.5t-64.5 -42.5t-41.5 -58.5t-23.5 -65t-10.5 -61.5t-2.5 -48zM48 350q0 92 25 161.5t69 116
t105.5 70t134.5 23.5q58 0 117.5 -18t107.5 -60.5t78.5 -114t30.5 -178.5q0 -91 -22 -154.5t-55.5 -104.5t-73.5 -63.5t-77 -33.5t-66 -13t-40 -2t-40.5 2t-66.5 13t-77 33.5t-73.5 63.5t-55 104t-21.5 155z" />
    <glyph glyph-name="Pi" unicode="&#x3a0;" horiz-adv-x="716" 
d="M182 0h-94v700h540v-700h-94v621h-352v-621z" />
    <glyph glyph-name="Rho" unicode="&#x3a1;" horiz-adv-x="645" 
d="M182 358h172q84 0 122 35t38 104q0 65 -39.5 94.5t-120.5 29.5h-172v-263zM373 700q54 0 97.5 -11t74.5 -35t48 -62.5t17 -92.5q0 -49 -13 -89.5t-42 -69.5t-76 -45t-115 -16h-182v-279h-94v700h285z" />
    <glyph glyph-name="Sigma" unicode="&#x3a3;" horiz-adv-x="556" 
d="M520 621h-349l208 -253l-225 -289h382v-79h-500v69l234 299l-218 261v71h468v-79z" />
    <glyph glyph-name="Tau" unicode="&#x3a4;" horiz-adv-x="581" 
d="M16 621v79h549v-79h-227v-621h-94v621h-228z" />
    <glyph glyph-name="Upsilon" unicode="&#x3a5;" horiz-adv-x="611" 
d="M500 700h112l-259 -408v-292h-94v292l-260 408h112l195 -324z" />
    <glyph glyph-name="Phi" unicode="&#x3a6;" horiz-adv-x="866" 
d="M386 0v79h-39q-139 0 -220.5 71.5t-81.5 206.5q0 134 81 205.5t221 71.5h39v66h94v-66h39q139 0 220.5 -71.5t81.5 -205.5q0 -135 -82 -206.5t-220 -71.5h-39v-79h-94zM386 158v397h-26q-105 0 -160 -48t-55 -150q0 -105 55 -152.5t160 -46.5h26zM480 158h26
q104 -1 159.5 46.5t55.5 152.5q0 102 -55.5 149.5t-159.5 48.5h-26v-397z" />
    <glyph glyph-name="Chi" unicode="&#x3a7;" horiz-adv-x="612" 
d="M481 700h117l-232 -342l245 -358h-121l-184 291l-184 -291h-121l245 358l-232 342h117l175 -275z" />
    <glyph glyph-name="Psi" unicode="&#x3a8;" horiz-adv-x="746" 
d="M326 0v209q-62 0 -117.5 19.5t-86.5 51.5q-35 34 -50.5 88t-15.5 156v176h94v-177q0 -70 4.5 -101.5t15.5 -52.5q19 -40 59.5 -61.5t96.5 -19.5v412h94v-412q53 -2 94 18.5t62 62.5q10 21 15 52.5t5 101.5v177h94v-176q0 -103 -14.5 -155.5t-52.5 -88.5
q-33 -32 -88 -51.5t-115 -19.5v-209h-94z" />
    <glyph glyph-name="uni03A9" unicode="&#x3a9;" horiz-adv-x="766" 
d="M705 79v-79h-264v92q27 7 56 23.5t53 48t39.5 80t15.5 118.5q0 63 -15.5 115t-44.5 88.5t-70 56.5t-92 20t-92 -20t-70 -56.5t-44.5 -88.5t-15.5 -115q0 -70 15.5 -118.5t39.5 -80t53 -48t56 -23.5v-92h-264v79h130v5q-70 45 -100 117.5t-30 160.5q0 68 17 132.5t55 115
t99.5 81t150.5 30.5t150.5 -30.5t99.5 -81t55 -115t17 -132.5q0 -88 -30 -160.5t-100 -117.5v-5h130z" />
    <glyph glyph-name="Iotadieresis" unicode="&#x3aa;" horiz-adv-x="286" 
d="M96 700h94v-700h-94v700zM20 748v92h88v-92h-88zM178 748v92h88v-92h-88z" />
    <glyph glyph-name="Upsilondieresis" unicode="&#x3ab;" horiz-adv-x="605" 
d="M303 376l194 324h112l-259 -408v-292h-94v292l-259 408h111zM160 748v92h88v-92h-88zM358 748v92h88v-92h-88z" />
    <glyph glyph-name="alphatonos" unicode="&#x3ac;" horiz-adv-x="626" 
d="M476 508h88l-39 -239q3 -72 17.5 -140t40.5 -129h-88q-13 28 -21 56t-10 51h-2q-19 -58 -67.5 -92t-120.5 -34q-103 0 -165.5 66.5t-62.5 206.5q0 120 59.5 197t172.5 77q66 0 112.5 -27t70.5 -75h2zM448 267l-6 49q-9 65 -47 107.5t-99 42.5q-70 0 -113.5 -52.5
t-43.5 -159.5q0 -104 40.5 -158t113.5 -54q63 -1 101.5 47.5t48.5 132.5zM313 714h110l-100 -146h-80z" />
    <glyph glyph-name="epsilontonos" unicode="&#x3ad;" horiz-adv-x="522" 
d="M487 156q-1 -21 -9 -51.5t-32 -58t-68 -47t-117 -19.5q-67 0 -109 15.5t-66 38.5t-32.5 50.5t-8.5 51.5q0 30 9.5 53t24.5 39.5t34 26t39 12.5v2q-11 3 -26.5 9.5t-29 19t-23 32.5t-9.5 50q0 17 6 42t26.5 48.5t60.5 40.5t108 17q13 0 33 -1.5t42.5 -6.5t45.5 -15.5
t42 -28t31.5 -44t14.5 -64.5h-84q0 13 -5 30t-18 32t-36.5 25.5t-60.5 10.5q-39 0 -62 -10.5t-35 -25.5t-15 -30.5t-3 -25.5q0 -28 11.5 -44t28 -23.5t34.5 -9.5t32 -2h65v-62h-75q-10 0 -29 -1.5t-38 -10.5t-33.5 -27.5t-14.5 -51.5q0 -52 37 -76t95 -24q34 0 59.5 9.5
t42 25.5t25 36.5t8.5 42.5h84zM261 714h110l-100 -146h-80z" />
    <glyph glyph-name="etatonos" unicode="&#x3ae;" horiz-adv-x="572" 
d="M75 0v390q0 30 -9 43t-33 13h-10v62q9 2 18 3t21 1q47 0 72.5 -16.5t28.5 -50.5q29 41 74.5 62t99.5 21q78 0 122 -46t44 -144v-522h-88v517q0 66 -26.5 99.5t-79.5 33.5q-71 -1 -108.5 -49.5t-37.5 -139.5v-277h-88zM286 714h110l-100 -146h-80z" />
    <glyph glyph-name="iotatonos" unicode="&#x3af;" horiz-adv-x="238" 
d="M75 508h88v-390q0 -31 8.5 -43.5t33.5 -12.5h10v-62q-10 -1 -19 -2t-20 -1q-49 0 -75 19.5t-26 72.5v419zM119 714h110l-100 -146h-80z" />
    <glyph glyph-name="upsilondieresistonos" unicode="&#x3b0;" horiz-adv-x="552" 
d="M157 508v-284q0 -96 25.5 -139t84.5 -43q66 -1 97.5 52t31.5 173q-1 85 -11.5 142t-32.5 99l81 12q29 -45 42.5 -110t13.5 -143q0 -138 -53 -211.5t-167 -74.5q-101 0 -150.5 57.5t-49.5 184.5v285h88zM106 608v92h78v-92h-78zM368 608v92h78v-92h-78zM257 714h90
l-99 -146h-48z" />
    <glyph glyph-name="alpha" unicode="&#x3b1;" horiz-adv-x="626" 
d="M476 508h88l-39 -239q3 -72 17.5 -140t40.5 -129h-88q-13 28 -21 56t-10 51h-2q-19 -58 -67.5 -92t-120.5 -34q-103 0 -165.5 66.5t-62.5 206.5q0 120 59.5 197t172.5 77q66 0 112.5 -27t70.5 -75h2zM448 267l-6 49q-9 65 -47 107.5t-99 42.5q-70 0 -113.5 -52.5
t-43.5 -159.5q0 -104 40.5 -158t113.5 -54q63 -1 101.5 47.5t48.5 132.5z" />
    <glyph glyph-name="beta" unicode="&#x3b2;" horiz-adv-x="566" 
d="M75 -184v639q0 67 4.5 96.5t13.5 53.5q22 58 69.5 86.5t124.5 28.5q90 0 144.5 -46t54.5 -130q-1 -53 -29 -92t-74 -52v-3q68 -13 106 -65t38 -126q0 -105 -60 -165t-163 -60q-46 1 -81 13.5t-60 40.5v-219h-88zM163 468v-348q24 -39 61 -58.5t76 -19.5q60 0 98 45
t38 121q-1 79 -44 116.5t-130 38.5h-35v62h41q65 -1 97.5 30t32.5 83q0 59 -31 89.5t-85 30.5q-63 0 -91.5 -41.5t-27.5 -148.5z" />
    <glyph glyph-name="gamma" unicode="&#x3b3;" horiz-adv-x="526" 
d="M236 -184v234l-151 362q-9 19 -19 28.5t-30 9.5q-9 0 -15 -1t-12 -3v62q12 1 27.5 2.5t26.5 1.5q39 0 64 -17t43 -60l114 -288l145 361h94l-199 -458v-234h-88z" />
    <glyph glyph-name="delta" unicode="&#x3b4;" horiz-adv-x="572" 
d="M471 570h-88q-1 41 -25.5 64.5t-72.5 23.5q-46 0 -72.5 -21t-25.5 -58q0 -35 19.5 -53t128.5 -37q89 -15 140 -80.5t51 -172.5q-1 -122 -66 -188.5t-174 -66.5q-110 0 -175 66.5t-65 188.5q0 93 39 155.5t103 79.5v2q-45 10 -69.5 36.5t-24.5 71.5q-1 67 50 103t143 36
q89 0 137 -38.5t47 -111.5zM139 236q0 -99 39.5 -146.5t107.5 -47.5q67 -1 107 47t40 147q0 98 -40 147t-107 49q-68 -1 -107.5 -49.5t-39.5 -146.5z" />
    <glyph glyph-name="epsilon" unicode="&#x3b5;" horiz-adv-x="522" 
d="M487 156q-1 -21 -9 -51.5t-32 -58t-68 -47t-117 -19.5q-67 0 -109 15.5t-66 38.5t-32.5 50.5t-8.5 51.5q0 30 9.5 53t24.5 39.5t34 26t39 12.5v2q-11 3 -26.5 9.5t-29 19t-23 32.5t-9.5 50q0 17 6 42t26.5 48.5t60.5 40.5t108 17q13 0 33 -1.5t42.5 -6.5t45.5 -15.5
t42 -28t31.5 -44t14.5 -64.5h-84q0 13 -5 30t-18 32t-36.5 25.5t-60.5 10.5q-39 0 -62 -10.5t-35 -25.5t-15 -30.5t-3 -25.5q0 -28 11.5 -44t28 -23.5t34.5 -9.5t32 -2h65v-62h-75q-10 0 -29 -1.5t-38 -10.5t-33.5 -27.5t-14.5 -51.5q0 -52 37 -76t95 -24q34 0 59.5 9.5
t42 25.5t25 36.5t8.5 42.5h84z" />
    <glyph glyph-name="zeta" unicode="&#x3b6;" horiz-adv-x="446" 
d="M95 700h349v-62q-78 -7 -139 -44.5t-100 -97.5q-33 -51 -49 -113.5t-16 -131.5q0 -95 36 -142t122 -47h20q69 -1 109 -29t40 -88q0 -17 -5.5 -35t-13 -35.5t-16 -32.5l-14.5 -26l-79 25q17 30 28.5 53.5t11.5 42.5q0 33 -20 48t-60 15h-20q-120 0 -176 62.5t-56 187.5
q0 62 13 118.5t41 110.5q57 108 161 157v2h-167v62z" />
    <glyph glyph-name="eta" unicode="&#x3b7;" horiz-adv-x="572" 
d="M75 0v390q0 30 -9 43t-33 13h-10v62q9 2 18 3t21 1q47 0 72.5 -16.5t28.5 -50.5q29 41 74.5 62t99.5 21q78 0 122 -46t44 -144v-522h-88v517q0 66 -26.5 99.5t-79.5 33.5q-71 -1 -108.5 -49.5t-37.5 -139.5v-277h-88z" />
    <glyph glyph-name="theta" unicode="&#x3b8;" horiz-adv-x="626" 
d="M63 350q0 171 66.5 270.5t183.5 99.5q116 0 182.5 -99.5t67.5 -270.5q0 -172 -67 -270.5t-183 -98.5q-117 0 -183.5 98.5t-66.5 270.5zM158 407h310q-3 109 -43 179.5t-112 71.5q-73 0 -113 -71.5t-42 -179.5zM470 345h-314q-5 -135 37 -219t120 -84q77 0 119 84.5
t38 218.5z" />
    <glyph glyph-name="iota" unicode="&#x3b9;" horiz-adv-x="238" 
d="M75 508h88v-390q0 -31 8.5 -43.5t33.5 -12.5h10v-62q-10 -1 -19 -2t-20 -1q-49 0 -75 19.5t-26 72.5v419z" />
    <glyph glyph-name="kappa" unicode="&#x3ba;" horiz-adv-x="495" 
d="M380 508h103l-238 -236l251 -272h-105l-228 254v-254h-88v508h88v-222z" />
    <glyph glyph-name="lambda" unicode="&#x3bb;" horiz-adv-x="536" 
d="M98 0h-95l224 498l-35 106q-7 21 -17 29.5t-28 8.5q-9 0 -15 -1t-12 -3v62q12 1 27.5 2.5t26.5 1.5q39 -1 60.5 -18.5t36.5 -58.5l180 -518q11 -34 20.5 -43t28.5 -8q8 0 14.5 0.5t12.5 3.5v-62q-14 0 -27.5 -1.5t-22.5 -1.5q-42 0 -67 17.5t-44 76.5l-100 306z" />
    <glyph glyph-name="uni03BC" unicode="&#x3bc;" horiz-adv-x="586" 
d="M176 -185h-88v693h88v-277q0 -14 1.5 -44t12 -60.5t34.5 -53.5t69 -23q43 0 66.5 21t34.5 50t13.5 59.5t2.5 50.5v277h88v-386q0 -11 1 -22.5t5 -20.5t12.5 -14.5t24.5 -3.5l10 1v-62q-15 -2 -25 -3t-18 -1q-31 0 -50 6t-29.5 15.5t-14.5 21t-4 23.5q-13 -25 -28 -41
t-30.5 -25t-30.5 -12.5t-28 -3.5q-33 0 -65 18.5t-52 53.5v-237z" />
    <glyph glyph-name="nu" unicode="&#x3bd;" horiz-adv-x="466" 
d="M245 88l116 330q6 18 8.5 30.5t3.5 22.5q0 9 -2.5 18.5t-5.5 18.5l84 12q4 -13 6 -25t2 -22q0 -14 -3 -29.5t-8 -29.5l-153 -414h-104l-186 508h100z" />
    <glyph glyph-name="xi" unicode="&#x3be;" horiz-adv-x="466" 
d="M262 0q-108 0 -162.5 44t-54.5 137q0 75 37 120t98 59v2q-49 11 -77.5 50t-28.5 94q0 45 17.5 78.5t53.5 51.5v2h-94v62h370v-62h-96q-85 0 -124 -31t-39 -97q0 -32 8.5 -55t29 -38t53.5 -21.5t81 -6.5h72v-62h-72q-118 -1 -157 -39t-39 -109q0 -61 34.5 -89t94.5 -28h47
q69 -1 109 -29t40 -88q0 -17 -5.5 -35t-13 -35.5t-16 -32.5l-14.5 -26l-79 25q17 30 28.5 53.5t11.5 42.5q0 33 -20 48t-60 15h-33z" />
    <glyph glyph-name="omicron" unicode="&#x3bf;" horiz-adv-x="592" 
d="M139 255q0 -76 19 -119t45 -64t52 -25.5t41 -4.5t41 4.5t52 25.5t45 64t19 119t-19 119t-45 64t-52 25.5t-41 4.5t-41 -4.5t-52 -25.5t-45 -64t-19 -119zM46 254q0 51 13 100t42.5 87.5t77.5 62.5t117 24t117 -24t77.5 -62.5t42.5 -87.5t13 -100t-13 -100t-42.5 -87.5
t-77.5 -62.5t-117 -24t-117 24t-77.5 62.5t-42.5 87.5t-13 100z" />
    <glyph glyph-name="pi" unicode="&#x3c0;" horiz-adv-x="604" 
d="M115 446h-13q-17 0 -35.5 -6t-31.5 -14v62q23 13 43 16.5t42 3.5h449v-62h-64v-324q0 -11 1 -22.5t5 -20.5t12.5 -14.5t24.5 -3.5l10 1v-62q-10 -2 -19.5 -3t-23.5 -1q-36 0 -56 8t-29.5 21.5t-11 30t-1.5 33.5v357h-214v-446h-88v446z" />
    <glyph glyph-name="rho" unicode="&#x3c1;" horiz-adv-x="596" 
d="M69 -184v413q0 155 61.5 227t187.5 72q116 0 174 -76t58 -198q0 -126 -60.5 -199.5t-166.5 -73.5q-55 0 -99.5 24t-66.5 68v-257h-88zM151 252q0 -95 43 -152.5t113 -57.5q72 0 111 55.5t39 156.5q-1 98 -40.5 155t-114.5 57q-73 0 -112 -57t-39 -157z" />
    <glyph glyph-name="sigma1" unicode="&#x3c2;" horiz-adv-x="546" 
d="M294 0q-63 0 -109.5 18t-77.5 51.5t-46 81t-15 107.5q0 61 15 111t45.5 85.5t76 54.5t105.5 19q45 0 83.5 -12t67.5 -34.5t47.5 -56t24.5 -76.5h-84q-10 60 -46 88.5t-91 28.5q-77 0 -114 -57t-37 -151t42.5 -145t114.5 -51h66q69 -1 109 -29t40 -88q0 -17 -5.5 -35
t-13 -35.5t-16 -32.5l-14.5 -26l-79 25q17 30 28.5 53.5t11.5 42.5q0 33 -20 48t-60 15h-49z" />
    <glyph glyph-name="sigma" unicode="&#x3c3;" horiz-adv-x="598" 
d="M593 508v-62h-108q31 -39 46.5 -88.5t15.5 -107.5q0 -118 -64 -193.5t-186 -75.5q-117 0 -183.5 72.5t-66.5 200.5q-1 128 66 201t184 73q32 0 57.5 -5t51.5 -15h187zM140 255q-1 -108 41.5 -160.5t115.5 -52.5q72 0 114.5 52.5t42.5 160.5q0 107 -42.5 159t-114.5 52
q-73 0 -115 -52t-42 -159z" />
    <glyph glyph-name="tau" unicode="&#x3c4;" horiz-adv-x="438" 
d="M182 446h-72q-32 0 -56 -5t-48 -17v65q20 9 46 14t58 5h322v-62h-162v-328q0 -31 8.5 -43.5t33.5 -12.5h10v-62q-10 -1 -19 -2t-20 -1q-49 0 -75 19.5t-26 72.5v357z" />
    <glyph glyph-name="upsilon" unicode="&#x3c5;" horiz-adv-x="552" 
d="M157 508v-284q0 -96 25.5 -139t84.5 -43q66 -1 97.5 52t31.5 173q-1 85 -11.5 142t-32.5 99l81 12q29 -45 42.5 -110t13.5 -143q0 -138 -53 -211.5t-167 -74.5q-101 0 -150.5 57.5t-49.5 184.5v285h88z" />
    <glyph glyph-name="phi" unicode="&#x3c6;" horiz-adv-x="780" 
d="M346 -184v184q-156 3 -228 70t-72 186q0 109 66.5 180.5t175.5 71.5v-62q-69 -7 -109 -57t-40 -134q0 -93 54 -144.5t153 -48.5v446h88q154 0 227 -67.5t73 -183.5q0 -129 -79.5 -191.5t-220.5 -65.5v-184h-88zM434 446v-384q105 0 155.5 53t51.5 143q0 91 -52 140.5
t-155 47.5z" />
    <glyph glyph-name="chi" unicode="&#x3c7;" horiz-adv-x="456" 
d="M9 446v62q13 1 26.5 2.5t22.5 1.5q30 0 50 -12.5t32 -35.5l104 -209l122 253h88l-171 -333l130 -261q10 -21 20.5 -30.5t28.5 -9.5q8 0 14 1t13 3v-62q-15 -1 -29 -2.5t-24 -1.5q-30 0 -51.5 12t-33.5 38l-121 247l-147 -293h-93l199 376l-114 234q-8 14 -16.5 19
t-22.5 5q-9 0 -15 -1t-12 -3z" />
    <glyph glyph-name="psi" unicode="&#x3c8;" horiz-adv-x="742" 
d="M322 -184v184q-70 0 -122.5 23t-82.5 65q-25 32 -36.5 78.5t-11.5 160.5v181h88v-173q0 -86 9.5 -136t30.5 -78q21 -30 54.5 -45t70.5 -14v638h88v-638q21 -1 42.5 4t41.5 16q46 24 69 71t23 130q0 40 -3 64t-11 58q-9 36 -18 58t-22 45l91 12q12 -22 21.5 -46t17.5 -52
q8 -33 12.5 -68t4.5 -73q0 -94 -34 -160.5t-106 -97.5q-26 -12 -60.5 -17.5t-68.5 -5.5v-184h-88z" />
    <glyph glyph-name="omega" unicode="&#x3c9;" horiz-adv-x="746" 
d="M374 82h-2q-4 -20 -12.5 -37.5t-21.5 -29.5q-18 -16 -42 -25t-56 -9q-43 0 -73.5 11.5t-56.5 40.5q-31 33 -47.5 82.5t-16.5 120.5q0 56 9.5 96.5t31.5 77.5q32 54 82 80.5t111 27.5v-62q-39 -3 -68 -25t-46 -56q-13 -26 -20 -59.5t-7 -79.5q0 -56 9 -96t26 -62
q13 -17 30 -26.5t38 -9.5q20 0 36 7.5t27 20.5q12 16 18 43t6 97v68h88v-68q-1 -70 5 -97t19 -43q10 -13 26 -20.5t37 -7.5q20 0 37 9.5t31 26.5q16 22 25.5 62t9.5 96q0 46 -7.5 79.5t-19.5 59.5q-18 34 -47 56t-67 25v62q60 -1 110 -27.5t83 -80.5q21 -37 31 -77.5
t10 -96.5q-1 -71 -17.5 -120.5t-46.5 -82.5q-27 -29 -57.5 -40.5t-72.5 -11.5q-33 0 -57 9t-41 25q-14 12 -22.5 29.5t-11.5 37.5z" />
    <glyph glyph-name="iotadieresis" unicode="&#x3ca;" horiz-adv-x="238" 
d="M75 508h88v-390q0 -31 8.5 -43.5t33.5 -12.5h10v-62q-10 -1 -19 -2t-20 -1q-49 0 -75 19.5t-26 72.5v419zM172 700h88v-92h-88v92zM-26 700h88v-92h-88v92z" />
    <glyph glyph-name="upsilondieresis" unicode="&#x3cb;" horiz-adv-x="552" 
d="M157 508v-284q0 -96 25.5 -139t84.5 -43q66 -1 97.5 52t31.5 173q-1 85 -11.5 142t-32.5 99l81 12q29 -45 42.5 -110t13.5 -143q0 -138 -53 -211.5t-167 -74.5q-101 0 -150.5 57.5t-49.5 184.5v285h88zM328 700h88v-92h-88v92zM130 700h88v-92h-88v92z" />
    <glyph glyph-name="omicrontonos" unicode="&#x3cc;" horiz-adv-x="592" 
d="M139 255q0 -76 19 -119t45 -64t52 -25.5t41 -4.5t41 4.5t52 25.5t45 64t19 119t-19 119t-45 64t-52 25.5t-41 4.5t-41 -4.5t-52 -25.5t-45 -64t-19 -119zM46 254q0 51 13 100t42.5 87.5t77.5 62.5t117 24t117 -24t77.5 -62.5t42.5 -87.5t13 -100t-13 -100t-42.5 -87.5
t-77.5 -62.5t-117 -24t-117 24t-77.5 62.5t-42.5 87.5t-13 100zM296 714h110l-100 -146h-80z" />
    <glyph glyph-name="upsilontonos" unicode="&#x3cd;" horiz-adv-x="552" 
d="M157 508v-284q0 -96 25.5 -139t84.5 -43q66 -1 97.5 52t31.5 173q-1 85 -11.5 142t-32.5 99l81 12q29 -45 42.5 -110t13.5 -143q0 -138 -53 -211.5t-167 -74.5q-101 0 -150.5 57.5t-49.5 184.5v285h88zM276 717h110l-100 -146h-80z" />
    <glyph glyph-name="omegatonos" unicode="&#x3ce;" horiz-adv-x="746" 
d="M374 82h-2q-4 -20 -12.5 -37.5t-21.5 -29.5q-18 -16 -42 -25t-56 -9q-43 0 -73.5 11.5t-56.5 40.5q-31 33 -47.5 82.5t-16.5 120.5q0 56 9.5 96.5t31.5 77.5q32 54 82 80.5t111 27.5v-62q-39 -3 -68 -25t-46 -56q-13 -26 -20 -59.5t-7 -79.5q0 -56 9 -96t26 -62
q13 -17 30 -26.5t38 -9.5q20 0 36 7.5t27 20.5q12 16 18 43t6 97v68h88v-68q-1 -70 5 -97t19 -43q10 -13 26 -20.5t37 -7.5q20 0 37 9.5t31 26.5q16 22 25.5 62t9.5 96q0 46 -7.5 79.5t-19.5 59.5q-18 34 -47 56t-67 25v62q60 -1 110 -27.5t83 -80.5q21 -37 31 -77.5
t10 -96.5q-1 -71 -17.5 -120.5t-46.5 -82.5q-27 -29 -57.5 -40.5t-72.5 -11.5q-33 0 -57 9t-41 25q-14 12 -22.5 29.5t-11.5 37.5zM373 714h110l-100 -146h-80z" />
    <glyph glyph-name="afii10023" unicode="&#x401;" horiz-adv-x="619" 
d="M406 851h94v-79h-94v79zM190 851h94v-79h-94v79zM549 401v-79h-367v-243h417v-79h-511v700h500v-79h-406v-220h367z" />
    <glyph glyph-name="afii10051" unicode="&#x402;" horiz-adv-x="762" 
d="M16 700h527v-79h-227v-225q13 1 33.5 2l42 2l42.5 2t35 1q79 0 127.5 -20t74.5 -50t34.5 -66t8.5 -68q0 -99 -55.5 -155.5t-155.5 -56.5q-25 0 -43.5 3.5t-35.5 9.5v79q17 -5 35.5 -9t35.5 -4q16 0 38 4t41 17t32.5 38t13.5 67q0 27 -6.5 51t-25 42t-51.5 28.5t-86 10.5
q-15 0 -33.5 -1l-37.5 -2t-36 -2t-28 -2v-317h-94v621h-206v79z" />
    <glyph glyph-name="afii10052" unicode="&#x403;" horiz-adv-x="550" 
d="M182 0h-94v700h446v-79h-352v-621zM394 900l-102 -140h-84l74 140h112z" />
    <glyph glyph-name="afii10053" unicode="&#x404;" horiz-adv-x="730" 
d="M493 321h-345q2 -62 15 -105.5t33 -73t44.5 -46t50 -25t49.5 -11t42 -2.5q53 0 89 17t59.5 44t35 59.5t16.5 64.5h100q-5 -39 -20.5 -85t-49.5 -86t-89.5 -66.5t-140.5 -26.5q-73 0 -126.5 18.5t-90.5 48.5t-60 69.5t-35.5 81.5t-17 84t-4.5 77q0 56 13.5 120t49.5 118
t100 89.5t165 35.5q79 0 133 -22t87.5 -55.5t49.5 -73t20 -74.5h-100q-4 22 -15 48t-33 47.5t-57 36t-87 14.5q-59 0 -101 -20t-69.5 -53.5t-41 -77t-14.5 -91.5h345v-79z" />
    <glyph glyph-name="afii10054" unicode="&#x405;" horiz-adv-x="662" 
d="M142 222q-1 -35 12 -65t39 -52t63.5 -34.5t85.5 -12.5q47 0 79.5 11t53 29t30 41.5t9.5 48.5q0 32 -13 53.5t-33 35t-45.5 21.5t-49.5 13l-114.5 24.5t-96 32.5t-66 56.5t-24.5 95.5q0 49 19 87t54 63t84 38t108 13q65 0 112.5 -16.5t79 -44.5t48 -65t19.5 -77h-94
q-5 43 -25.5 68t-46.5 37.5t-53 15.5t-43 3q-73 0 -117.5 -31.5t-44.5 -85.5q0 -32 14.5 -51.5t38.5 -32t55.5 -19.5t66.5 -14q47 -9 94.5 -20.5t86 -34.5t62.5 -61.5t24 -101.5q0 -52 -16.5 -88t-42.5 -59.5t-58 -36.5t-62.5 -19t-57 -7t-40.5 -1q-37 0 -85.5 7t-92.5 31.5
t-75.5 73t-35.5 131.5h94z" />
    <glyph glyph-name="afii10055" unicode="&#x406;" horiz-adv-x="270" 
d="M182 700v-700h-94v700h94z" />
    <glyph glyph-name="afii10056" unicode="&#x407;" horiz-adv-x="310" 
d="M186 851h94v-79h-94v79zM30 851h94v-79h-94v79zM202 700v-700h-94v700h94z" />
    <glyph glyph-name="afii10057" unicode="&#x408;" horiz-adv-x="526" 
d="M120 232q0 -42 6 -74t19.5 -54.5t36.5 -34t59 -11.5q37 0 60 13t35.5 36t16.5 55.5t4 70.5v467h94v-458q0 -69 -11.5 -118.5t-36.5 -81.5t-65.5 -47.5t-97.5 -15.5q-27 0 -63.5 5.5t-70 27.5t-57 65.5t-23.5 118.5v36h94z" />
    <glyph glyph-name="afii10058" unicode="&#x409;" horiz-adv-x="1084" 
d="M620 79h189q9 0 32 2.5t47.5 15.5t43.5 38.5t19 72.5q0 57 -35.5 92.5t-118.5 35.5h-177v-257zM17 82q6 -2 12 -2h13q44 0 71.5 28.5t42.5 74.5t20.5 103t5.5 113v301h438v-285h201q10 0 30.5 -1.5t46 -8t52 -19.5t49 -36.5t36.5 -59t14 -85.5q0 -21 -6.5 -56t-29.5 -68
t-68.5 -57t-123.5 -24h-295v621h-251v-242q0 -80 -10.5 -150t-36 -121.5t-68.5 -81t-109 -29.5q-18 0 -34 3v82z" />
    <glyph glyph-name="afii10059" unicode="&#x40a;" horiz-adv-x="1089" 
d="M628 79h190q8 0 31 2.5t47 15.5t43 38.5t19 72.5q0 69 -40.5 98.5t-111.5 29.5h-178v-257zM182 0h-94v700h94v-285h352v285h94v-285h201q8 0 28 -1.5t45 -8t51.5 -19.5t49 -36.5t37 -59t14.5 -85.5q0 -34 -9.5 -70t-34.5 -66t-69 -49.5t-112 -19.5h-295v336h-352v-336z
" />
    <glyph glyph-name="afii10060" unicode="&#x40b;" horiz-adv-x="806" 
d="M619 0v205q0 41 -10 64.5t-31 35.5t-52.5 15.5t-74.5 3.5q-27 0 -65 -2.5l-70 -4.5v-317h-94v621h-206v79h527v-79h-227v-225q14 1 34 2l41.5 2l42 2t35.5 1q75 0 122.5 -10t74.5 -32t37 -57t10 -84v-220h-94z" />
    <glyph glyph-name="afii10061" unicode="&#x40c;" horiz-adv-x="633" 
d="M497 700h115l-333 -324l355 -376h-123l-329 365v-365h-94v700h94v-319zM435 900l-102 -140h-84l74 140h112z" />
    <glyph glyph-name="afii10062" unicode="&#x40e;" horiz-adv-x="588" 
d="M496 700h99l-237 -575q-21 -50 -43.5 -77.5t-45.5 -40t-45.5 -15t-43.5 -2.5q-23 0 -39.5 2t-38.5 8v82q17 -6 33 -8.5t33 -2.5q15 0 29.5 2.5t29 13t27.5 31t24 56.5l-266 526h115l201 -421zM192 870q1 -39 30.5 -61.5t74.5 -22.5q31 0 51 9t31.5 22t16.5 27.5t6 25.5
h78q-4 -21 -14 -45.5t-31 -45.5t-54 -35t-84 -14t-84 14t-54 35t-31 45.5t-14 45.5h78z" />
    <glyph glyph-name="afii10145" unicode="&#x40f;" horiz-adv-x="730" 
d="M543 700h94v-700h-227v-189h-90v189h-227v700h94v-621h356v621z" />
    <glyph glyph-name="afii10017" unicode="&#x410;" 
d="M436 260l-122 345l-122 -345h244zM100 0h-101l265 700h100l265 -700h-101l-66 181h-296z" />
    <glyph glyph-name="afii10018" unicode="&#x411;" horiz-adv-x="674" 
d="M182 79h196q28 0 56 5t50.5 18.5t36.5 37.5t14 62q0 42 -15 67.5t-38 39.5t-50.5 18.5t-53.5 4.5h-196v-253zM182 411h215q17 0 41.5 -1.5t50.5 -8.5t51.5 -20t45.5 -36.5t32.5 -58t12.5 -83.5q0 -35 -10 -71t-36 -65.5t-71 -48t-116 -18.5h-310v700h497v-79h-403v-210z
" />
    <glyph glyph-name="afii10019" unicode="&#x412;" horiz-adv-x="695" 
d="M182 79h195q24 0 52.5 3.5t52.5 16t40 37t16 67.5q0 34 -11.5 57t-32.5 37t-50.5 20.5t-66.5 6.5h-195v-245zM182 403h189q39 0 65 9t42 24t23 34.5t7 41.5q0 15 -4.5 34t-18.5 35.5t-40.5 28t-70.5 11.5h-192v-218zM395 700q64 0 104.5 -16.5t63.5 -42t32 -57t9 -62.5
q0 -28 -9 -53.5t-25 -45.5t-37 -33.5t-46 -17.5v-3q22 -4 47.5 -14t47.5 -30t37 -51.5t15 -78.5q0 -38 -11 -73t-39.5 -62t-76.5 -43.5t-123 -16.5h-296v700h307z" />
    <glyph glyph-name="afii10020" unicode="&#x413;" horiz-adv-x="550" 
d="M182 0h-94v700h446v-79h-352v-621z" />
    <glyph glyph-name="afii10021" unicode="&#x414;" horiz-adv-x="744" 
d="M293 621v-87q0 -69 -5.5 -130t-18.5 -116.5t-35 -107t-56 -101.5h355v542h-240zM728 79l-9 -237h-82v158h-544v-158h-82l-8 237h63q24 30 48 71.5t43 99t30.5 133t11.5 173.5v144h428v-621h101z" />
    <glyph glyph-name="afii10022" unicode="&#x415;" horiz-adv-x="618" 
d="M549 401v-79h-367v-243h416v-79h-510v700h499v-79h-405v-220h367z" />
    <glyph glyph-name="afii10024" unicode="&#x416;" horiz-adv-x="914" 
d="M410 349l-297 -349h-114l323 375l-309 325h112l285 -308v308h94v-308l285 308h112l-309 -325l323 -375h-114l-297 349v-349h-94v349z" />
    <glyph glyph-name="afii10025" unicode="&#x417;" horiz-adv-x="673" 
d="M142 215q2 -26 11 -53.5t30.5 -50.5t59.5 -38t98 -15q52 0 85.5 13t53.5 33t28 45t8 48q0 22 -6 45.5t-23.5 42.5t-48.5 31.5t-82 12.5h-92v79h83q12 0 35.5 2t47 13t41 33t17.5 63q0 45 -21 70t-48.5 37t-54 14t-37.5 2t-38.5 -2.5t-56.5 -15t-52.5 -40t-25.5 -78.5h-94
q3 51 19 87t40 59.5t52.5 37.5t58 20.5t57 8.5t47.5 2q57 0 103 -12t78.5 -36t50.5 -61t18 -87q0 -57 -32 -99.5t-87 -52.5v-2q81 -19 114 -67t33 -116q0 -35 -11.5 -72t-41 -67.5t-81 -50t-131.5 -19.5q-90 0 -147.5 21.5t-90.5 55.5t-46 76t-15 83h94z" />
    <glyph glyph-name="afii10026" unicode="&#x418;" horiz-adv-x="737" 
d="M555 700h94v-700h-94v567l-373 -567h-94v700h94v-563z" />
    <glyph glyph-name="afii10027" unicode="&#x419;" horiz-adv-x="737" 
d="M555 700h94v-700h-94v567l-373 -567h-94v700h94v-563zM272 858q1 -15 6.5 -29t17.5 -25t30 -18t43 -7t43 7t30 18t17.5 25t6.5 29h75q-8 -38 -25 -63t-39.5 -40.5t-50 -22t-57.5 -6.5t-57.5 6.5t-50 22t-39.5 40.5t-25 63h75z" />
    <glyph glyph-name="afii10028" unicode="&#x41a;" horiz-adv-x="633" 
d="M497 700h115l-333 -324l355 -376h-123l-329 365v-365h-94v700h94v-319z" />
    <glyph glyph-name="afii10029" unicode="&#x41b;" horiz-adv-x="708" 
d="M16 82q34 -6 64 5.5t52.5 47.5t35.5 100.5t13 163.5v301h439v-700h-94v621h-251v-242q0 -122 -21 -199.5t-56 -120t-82.5 -55.5t-99.5 -4v82z" />
    <glyph glyph-name="afii10030" unicode="&#x41c;" horiz-adv-x="896" 
d="M182 588h-2l2 -27v-561h-94v700h141l219 -576l219 576h141v-700h-94v561l2 27h-3l-227 -588h-76z" />
    <glyph glyph-name="afii10031" unicode="&#x41d;" horiz-adv-x="716" 
d="M182 0h-94v700h94v-292h352v292h94v-700h-94v329h-352v-329z" />
    <glyph glyph-name="afii10032" unicode="&#x41e;" horiz-adv-x="764" 
d="M148 350q0 -42 8.5 -93t33.5 -95.5t71 -74t121 -29.5q12 0 34 2t48 11t53 27.5t49 50.5t36 81t14 120q0 62 -14 115.5t-42.5 92.5t-73 61.5t-104.5 22.5q-53 0 -91.5 -16.5t-64.5 -42.5t-41.5 -58.5t-23.5 -65t-10.5 -61.5t-2.5 -48zM48 350q0 92 25 161.5t69 116
t105.5 70t134.5 23.5q58 0 117.5 -18t107.5 -60.5t78.5 -114t30.5 -178.5q0 -91 -22 -154.5t-55.5 -104.5t-73.5 -63.5t-77 -33.5t-66 -13t-40 -2t-40.5 2t-66.5 13t-77 33.5t-73.5 63.5t-55 104t-21.5 155z" />
    <glyph glyph-name="afii10033" unicode="&#x41f;" horiz-adv-x="716" 
d="M182 0h-94v700h540v-700h-94v621h-352v-621z" />
    <glyph glyph-name="afii10034" unicode="&#x420;" horiz-adv-x="645" 
d="M182 358h172q84 0 122 35t38 104q0 65 -39.5 94.5t-120.5 29.5h-172v-263zM373 700q54 0 97.5 -11t74.5 -35t48 -62.5t17 -92.5q0 -49 -13 -89.5t-42 -69.5t-76 -45t-115 -16h-182v-279h-94v700h285z" />
    <glyph glyph-name="afii10035" unicode="&#x421;" horiz-adv-x="718" 
d="M677 232q-5 -38 -20 -82t-48.5 -82t-88.5 -63.5t-139 -25.5q-78 0 -140 24.5t-104.5 71t-65.5 113t-23 150.5q0 93 20.5 157.5t52 107t70.5 66.5t75.5 35.5t66.5 14t45 2.5q84 0 138 -22t86.5 -56.5t47 -76.5t18.5 -82h-94q-2 19 -10.5 46t-29.5 52t-58.5 42.5
t-97.5 17.5q-66 0 -110 -25.5t-70.5 -67.5t-38 -96t-11.5 -111q0 -61 16 -113t47 -90t74.5 -59.5t99.5 -21.5q42 0 77.5 13t61.5 36.5t41.5 55t17.5 69.5h94z" />
    <glyph glyph-name="afii10036" unicode="&#x422;" horiz-adv-x="581" 
d="M16 621v79h549v-79h-227v-621h-94v621h-228z" />
    <glyph glyph-name="afii10037" unicode="&#x423;" horiz-adv-x="594" 
d="M496 700h99l-237 -575q-21 -50 -43.5 -77.5t-45.5 -40t-45.5 -15t-43.5 -2.5q-23 0 -39.5 2t-38.5 8v82q17 -6 33 -8.5t33 -2.5q15 0 29.5 2.5t29 13t27.5 31t24 56.5l-266 526h115l201 -421z" />
    <glyph glyph-name="afii10038" unicode="&#x424;" horiz-adv-x="896" 
d="M522 153q34 0 74.5 6.5t74.5 28t57 61.5t23 108q0 75 -28 116t-66 60.5t-76 23t-59 3.5h-27v-407h27zM401 560h-26q-57 0 -96 -11.5t-64.5 -30t-39.5 -41.5t-20.5 -45.5t-8 -42.5t-1.5 -32q0 -13 1.5 -33.5t8 -43t20.5 -45.5t39.5 -41t64.5 -29.5t96 -11.5h26v407z
M401 79h-39q-15 0 -44.5 2t-64.5 11t-72 26.5t-67 48.5t-49.5 77t-19.5 113q0 14 2.5 40t12.5 56.5t30 63t55.5 58.5t88 42.5t128.5 16.5h39v106h94v-106h39q30 0 65.5 -4t70.5 -15.5t68 -31t58 -50.5t40 -74t15 -102q0 -62 -17.5 -107t-45 -76t-62.5 -49.5t-70 -29
t-67.5 -13.5t-54.5 -3h-39v-105h-94v105z" />
    <glyph glyph-name="afii10039" unicode="&#x425;" horiz-adv-x="612" 
d="M481 700h117l-232 -342l245 -358h-121l-184 291l-184 -291h-121l245 358l-232 342h117l175 -275z" />
    <glyph glyph-name="afii10040" unicode="&#x426;" horiz-adv-x="745" 
d="M537 79v621h94v-621h98l-7 -237h-82v158h-552v700h94v-621h355z" />
    <glyph glyph-name="afii10041" unicode="&#x427;" horiz-adv-x="642" 
d="M155 700v-205q0 -41 10.5 -64.5t31.5 -35.5t53 -15.5t74 -3.5q15 0 33.5 1l37 2l36 2t29.5 2v317h94v-700h-94v304q-14 -1 -34.5 -2l-42 -2l-42.5 -2t-35 -1q-65 0 -111 7.5t-76 27.5t-44 56t-14 92v220h94z" />
    <glyph glyph-name="afii10042" unicode="&#x428;" horiz-adv-x="1024" 
d="M465 79v621h94v-621h283v621h94v-700h-848v700h94v-621h283z" />
    <glyph glyph-name="afii10043" unicode="&#x429;" horiz-adv-x="1056" 
d="M182 79h283v621h94v-621h283v621h94v-621h104l-9 -237h-82v158h-861v700h94v-621z" />
    <glyph glyph-name="afii10044" unicode="&#x42a;" horiz-adv-x="724" 
d="M262 79h190q8 0 31 2.5t47.5 15.5t43.5 38.5t19 72.5q0 28 -8 52t-26 40.5t-47.5 26t-72.5 9.5h-177v-257zM262 415h201q31 0 70.5 -7.5t74 -30t58 -64t23.5 -108.5q0 -69 -25 -109.5t-60.5 -61.5t-74.5 -27.5t-66 -6.5h-295v621h-152v79h246v-285z" />
    <glyph glyph-name="afii10045" unicode="&#x42b;" horiz-adv-x="864" 
d="M776 700v-700h-94v700h94zM182 79h189q19 0 43.5 4.5t46.5 18.5t37 39.5t15 66.5q0 49 -19.5 75t-49 38t-63 13.5t-60.5 1.5h-139v-257zM182 415h202q107 0 166 -55t59 -155q0 -69 -24.5 -109.5t-60 -62t-74 -27.5t-66.5 -6h-296v700h94v-285z" />
    <glyph glyph-name="afii10046" unicode="&#x42c;" horiz-adv-x="644" 
d="M182 79h190q8 0 31 2.5t47.5 15.5t43.5 38.5t19 72.5q0 22 -6 45t-22.5 41.5t-46.5 30t-78 11.5h-178v-257zM182 415h201q31 0 70.5 -7.5t74 -30t58 -64t23.5 -108.5q0 -69 -25 -109.5t-60.5 -61.5t-74.5 -27.5t-66 -6.5h-295v700h94v-285z" />
    <glyph glyph-name="afii10047" unicode="&#x42d;" horiz-adv-x="725" 
d="M577 401q0 14 -3 37t-11 49.5t-23 54t-39.5 50t-61 36.5t-87.5 14q-47 0 -82.5 -12t-60.5 -32t-39 -46.5t-18 -55.5h-94q3 41 21 81.5t53 72.5t87 51.5t124 19.5q70 0 121.5 -17t89 -45t61.5 -65t37.5 -77.5t19 -81.5t5.5 -77q0 -35 -4.5 -76.5t-17 -83.5t-35 -81.5
t-59.5 -70t-89.5 -49t-124.5 -18.5q-83 0 -138 26.5t-89.5 66t-51 85.5t-20.5 86h94q3 -21 13 -52.5t33.5 -61t62.5 -50.5t100 -21q69 0 112 24t67.5 59t34.5 75t12 73q1 16 0 33h-330v79h330z" />
    <glyph glyph-name="afii10048" unicode="&#x42e;" horiz-adv-x="999" 
d="M617 58q50 0 87 14t63 37t42.5 53t25.5 62.5t12.5 65t3.5 60.5q0 65 -12 112t-31.5 79.5t-45 52t-51.5 30.5t-50.5 14.5t-43.5 3.5q-18 0 -42.5 -3.5t-50.5 -14t-51.5 -30.5t-45 -52.5t-32 -79.5t-12.5 -112q0 -57 12.5 -110t40 -93.5t72 -64.5t109.5 -24zM287 408
q4 58 25 114t61 100t100 71.5t143 27.5q72 0 133.5 -23.5t106.5 -70t70 -116t25 -161.5q0 -77 -19 -144.5t-59.5 -117.5t-104 -79.5t-152.5 -29.5q-96 0 -159.5 32.5t-101 83t-53.5 112.5t-19 122h-101v-329h-94v700h94v-292h105z" />
    <glyph glyph-name="afii10049" unicode="&#x42f;" horiz-adv-x="686" 
d="M307 621q-47 0 -77 -12.5t-47 -32t-23 -42.5t-6 -44t6 -44.5t23.5 -43t50 -32.5t86.5 -13h184v264h-197zM345 278l-171 -278h-116l190 288q-24 1 -57 10t-62.5 31.5t-50 61.5t-20.5 100q0 43 12.5 81t40.5 66.5t74 45t114 16.5h299v-700h-94v278h-159z" />
    <glyph glyph-name="afii10065" unicode="&#x430;" horiz-adv-x="559" 
d="M388 260q-10 -8 -21 -11.5t-24 -5.5t-29.5 -3.5t-37.5 -4.5l-55.5 -9.5t-46.5 -14t-31.5 -27.5t-11.5 -48q0 -45 27.5 -69.5t70.5 -24.5q26 0 52.5 7.5t49 27t37.5 53.5t18 87zM58 358q0 25 8.5 55t32 55.5t66 42.5t109.5 17q31 0 66.5 -6t66 -24t50.5 -51.5t19 -89.5
l-5 -235q0 -15 0.5 -26.5t5.5 -19t16 -11.5t31 -3v-62q-9 -2 -17.5 -3t-22.5 -1q-18 0 -33.5 2.5t-27 10t-19 22t-11.5 39.5q-13 -24 -32 -41t-42 -28t-48.5 -16t-51.5 -5q-80 0 -129.5 36.5t-49.5 116.5q0 33 10 59.5t38 47t76 34t125 20.5q28 2 47 4t30.5 8.5t16.5 19.5
t5 38q0 9 -2 26t-13 34t-34 29.5t-65 12.5q-12 0 -34.5 -2t-44.5 -12.5t-38 -32t-15 -61.5h-84z" />
    <glyph glyph-name="afii10066" unicode="&#x431;" horiz-adv-x="598" 
d="M139 240q0 -29 6.5 -63.5t24 -64.5t49 -50t81.5 -20q79 0 119 53t40 141q0 30 -5 68.5t-21.5 72.5t-48 57.5t-84.5 23.5t-85 -23t-49 -56.5t-22 -71t-5 -67.5zM511 733q-3 -50 -30 -73t-66 -33t-83 -13t-79 -13q-28 -8 -53.5 -22t-44.5 -38.5t-31 -61t-13 -88.5h2
q7 19 20.5 41.5t36.5 42t57.5 32.5t82.5 13q65 0 111 -23.5t75 -61.5t42.5 -87.5t13.5 -101.5q0 -50 -14 -97.5t-44.5 -85t-78 -60.5t-113.5 -23q-61 0 -103.5 18.5t-71 48.5t-44.5 67.5t-24.5 75.5t-10.5 73t-2 60q0 101 16 165.5t43 104t63.5 58.5t77.5 28q51 12 85 15.5
t55.5 6.5t33 9t16.5 23h75z" />
    <glyph glyph-name="afii10067" unicode="&#x432;" horiz-adv-x="545" 
d="M163 62h129q11 0 30.5 1.5t38 9t32 23.5t13.5 44q0 33 -13 52t-31 28t-38 11.5t-35 2.5h-126v-172zM163 296h122q31 0 51 7.5t32 18.5t16.5 25t4.5 27q0 25 -10.5 39.5t-26 22t-33 9t-30.5 1.5h-126v-150zM317 508q19 0 46.5 -2.5t53 -14.5t43.5 -36.5t18 -67.5
q0 -34 -12 -56t-27.5 -35.5t-31 -19.5t-21.5 -8v-3q37 -9 59 -24t33.5 -33t15 -38t3.5 -38q0 -44 -17 -70t-43.5 -39.5t-59 -18t-63.5 -4.5h-239v508h242z" />
    <glyph glyph-name="afii10068" unicode="&#x433;" horiz-adv-x="439" 
d="M163 0h-88v508h348v-62h-260v-446z" />
    <glyph glyph-name="afii10069" unicode="&#x434;" horiz-adv-x="609" 
d="M232 446v-71q0 -35 -3.5 -76.5t-12 -83.5t-22.5 -82t-34 -71h266v384h-194zM67 62q19 28 34.5 61.5t26 77t16.5 98t6 124.5v85h364v-446h88l-7 -194h-74v132h-436v-132h-74l-8 194h64z" />
    <glyph glyph-name="afii10070" unicode="&#x435;" horiz-adv-x="576" 
d="M437 296q-1 25 -7 55t-21.5 55.5t-42.5 42.5t-70 17q-48 0 -79 -17.5t-48.5 -43.5t-23.5 -55.5t-6 -53.5h298zM525 147q-5 -27 -18.5 -56.5t-39 -54t-65.5 -40.5t-99 -16q-63 0 -106.5 17t-72 43.5t-44.5 58.5t-23.5 62t-9 54.5t-1.5 36.5q0 17 2 44.5t10 58t24 61.5
t43.5 56t68.5 40.5t100 15.5q76 0 121.5 -26.5t70 -66.5t33 -87.5t10.5 -88.5q0 -6 0.5 -12.5t0.5 -12.5h-391q0 -33 9 -67t28 -61.5t49.5 -45.5t74.5 -18q31 0 56 8.5t42.5 23t28 33.5t14.5 40h84z" />
    <glyph glyph-name="afii10072" unicode="&#x436;" horiz-adv-x="708" 
d="M310 251l-202 -251h-109l233 267l-220 241h104l194 -230v230h88v-230l194 230h104l-220 -241l233 -267h-109l-202 251v-251h-88v251z" />
    <glyph glyph-name="afii10073" unicode="&#x437;" horiz-adv-x="523" 
d="M119 156q0 -22 8.5 -42.5t25 -36.5t42 -25.5t59.5 -9.5q58 0 95 24t37 76q0 33 -14.5 51.5t-33.5 27.5t-38 10.5t-29 1.5h-75v62h65q13 0 31.5 2t35 9.5t28 23.5t11.5 44q0 10 -3 25.5t-15 30.5t-35 25.5t-62 10.5q-38 0 -61 -10.5t-36 -25.5t-18 -32t-5 -30h-84
q3 57 28.5 89t59.5 47.5t67.5 19.5t53.5 4q68 0 108 -17t60.5 -40.5t26.5 -48.5t6 -42q0 -30 -9.5 -50t-23 -32.5t-29 -19t-26.5 -9.5v-3q20 -3 39 -12.5t34 -25t24.5 -38.5t9.5 -54q0 -24 -8.5 -51.5t-32.5 -50.5t-66 -38.5t-109 -15.5q-73 0 -117 19.5t-68 47t-32 58
t-9 51.5h84z" />
    <glyph glyph-name="afii10074" unicode="&#x438;" horiz-adv-x="601" 
d="M428 508h98v-508h-88v406l-264 -406h-99v508h88v-405z" />
    <glyph glyph-name="afii10075" unicode="&#x439;" horiz-adv-x="601" 
d="M470 700q-3 -16 -10.5 -36t-22.5 -39t-39 -33.5t-60 -20.5q-20 -3 -40 -3q-38 0 -65.5 8.5t-47.5 23t-32.5 33.5t-19.5 40q-2 7 -3.5 13.5t-3.5 13.5h75q-1 -6 1.5 -19.5t16.5 -29.5q15 -16 35 -24q11 -4 22 -5t22 -1q40 0 69.5 20.5t27.5 58.5h75zM428 508h98v-508h-88
v406l-264 -406h-99v508h88v-405z" />
    <glyph glyph-name="afii10076" unicode="&#x43a;" horiz-adv-x="495" 
d="M380 508h103l-238 -236l251 -272h-105l-228 254v-254h-88v508h88v-222z" />
    <glyph glyph-name="afii10077" unicode="&#x43b;" horiz-adv-x="565" 
d="M16 65q45 -9 69.5 12.5t36.5 59.5t14 86.5t2 93.5v191h352v-508h-88v446h-182v-129q0 -66 -5.5 -129t-26 -109t-61.5 -69t-111 -10v65z" />
    <glyph glyph-name="afii10078" unicode="&#x43c;" horiz-adv-x="738" 
d="M163 408h-2l2 -27v-381h-88v508h121l173 -413l173 413h121v-508h-88v381l3 27h-3l-172 -408h-68z" />
    <glyph glyph-name="afii10079" unicode="&#x43d;" horiz-adv-x="577" 
d="M163 0h-88v508h88v-209h251v209h88v-508h-88v237h-251v-237z" />
    <glyph glyph-name="afii10080" unicode="&#x43e;" horiz-adv-x="592" 
d="M139 255q0 -76 19 -119t45 -64t52 -25.5t41 -4.5t41 4.5t52 25.5t45 64t19 119t-19 119t-45 64t-52 25.5t-41 4.5t-41 -4.5t-52 -25.5t-45 -64t-19 -119zM46 254q0 51 13 100t42.5 87.5t77.5 62.5t117 24t117 -24t77.5 -62.5t42.5 -87.5t13 -100t-13 -100t-42.5 -87.5
t-77.5 -62.5t-117 -24t-117 24t-77.5 62.5t-42.5 87.5t-13 100z" />
    <glyph glyph-name="afii10081" unicode="&#x43f;" horiz-adv-x="583" 
d="M163 0h-88v508h433v-508h-88v446h-257v-446z" />
    <glyph glyph-name="afii10082" unicode="&#x440;" horiz-adv-x="603" 
d="M157 252q0 -59 15 -99t38.5 -65t51 -35.5t52.5 -10.5q27 0 53.5 10.5t48 35t35 65t13.5 101.5q0 98 -40 155t-115 57q-17 0 -43 -6.5t-50 -28.5t-41.5 -64.5t-17.5 -114.5zM157 508v-70h3q19 29 41.5 46.5t45 27.5t43.5 13t38 3q47 0 88.5 -16t73 -49.5t49.5 -85.5
t18 -123q0 -74 -19 -126t-51 -85t-73 -48t-84 -15q-8 0 -28.5 2t-45.5 11.5t-50.5 28t-42.5 51.5v-258h-88v693h82z" />
    <glyph glyph-name="afii10083" unicode="&#x441;" horiz-adv-x="554" 
d="M515 181q-2 -23 -11.5 -57t-33 -66t-66 -55t-110.5 -23q-13 0 -36 2t-51 10t-56.5 25.5t-51.5 48t-38 77.5t-15 115q0 44 10 92t37 87.5t74 65t121 25.5q54 0 94 -14.5t67 -39.5t42.5 -57t19.5 -68h-84q-7 42 -25 66t-39 35t-41.5 13.5t-31.5 2.5q-41 0 -70 -16.5
t-47 -44.5t-26 -66t-8 -81t9 -82t27.5 -69t48.5 -47.5t72 -17.5q37 0 62.5 14t41.5 34.5t23 45t8 45.5h84z" />
    <glyph glyph-name="afii10084" unicode="&#x442;" horiz-adv-x="472" 
d="M16 446v62h440v-62h-176v-446h-88v446h-176z" />
    <glyph glyph-name="afii10085" unicode="&#x443;" horiz-adv-x="504" 
d="M94 -119q20 -3 29 -4t15 -1q19 0 32 7t22 19t14.5 27.5l11.5 32.5l12 38l-220 508h105l163 -411l135 411h88l-202 -568l-14 -40.5t-22.5 -42t-37.5 -33t-59 -13.5q-21 0 -39.5 1t-32.5 4v65z" />
    <glyph glyph-name="afii10086" unicode="&#x444;" horiz-adv-x="800" 
d="M444 49q68 0 110.5 20.5t66 51.5t32 68t8.5 69q0 25 -7.5 61t-30.5 68.5t-65.5 53.5t-113.5 17v-409zM356 458q-33 2 -71 -4.5t-70.5 -28.5t-54 -62.5t-21.5 -104.5q0 -69 23 -110t57 -63t71 -29t66 -7v409zM356 -13q-90 2 -149.5 25t-95.5 60.5t-50.5 85.5t-14.5 99
q0 24 4 53.5t16 59.5t33.5 58t56 49t83.5 33t117 10v180h88v-180q29 1 63.5 -2.5t69 -13.5t66.5 -28.5t56.5 -48t39.5 -71.5t15 -99t-16.5 -105.5t-53.5 -84.5t-96 -57t-144 -23v-172h-88v172z" />
    <glyph glyph-name="afii10087" unicode="&#x445;" horiz-adv-x="490" 
d="M375 508h98l-178 -243l192 -265h-98l-144 209l-144 -209h-98l192 265l-178 243h98l130 -188z" />
    <glyph glyph-name="afii10088" unicode="&#x446;" horiz-adv-x="602" 
d="M419 62v446h88v-446h88l-7 -194h-74v132h-439v508h88v-446h256z" />
    <glyph glyph-name="afii10089" unicode="&#x447;" horiz-adv-x="514" 
d="M136 508v-156q0 -20 2 -35.5t12.5 -26t34 -16t66.5 -5.5q14 0 29 0.5t29 1.5q11 1 21 1h21v236h88v-508h-88v210q-32 -2 -58.5 -2.5t-59.5 -0.5q-67 0 -104.5 10.5t-55.5 28.5t-21.5 41.5t-3.5 50.5v170h88z" />
    <glyph glyph-name="afii10090" unicode="&#x448;" horiz-adv-x="838" 
d="M375 62v446h88v-446h212v446h88v-508h-688v508h88v-446h212z" />
    <glyph glyph-name="afii10091" unicode="&#x449;" horiz-adv-x="856" 
d="M375 62v446h88v-446h212v446h88v-446h86l-8 -194h-74v132h-692v508h88v-446h212z" />
    <glyph glyph-name="afii10092" unicode="&#x44a;" horiz-adv-x="596" 
d="M236 62h123q17 0 37.5 3t38 13t29.5 29t12 51q0 35 -15 53t-36.5 25.5t-44 8t-37.5 0.5h-107v-183zM16 508h220v-201h127q27 0 62.5 -3.5t67 -18.5t53 -46.5t21.5 -86.5q0 -48 -16 -78t-41 -46.5t-55.5 -22t-60.5 -5.5h-246v446h-132v62z" />
    <glyph glyph-name="afii10093" unicode="&#x44b;" horiz-adv-x="720" 
d="M645 508v-508h-88v508h88zM163 62h123q16 0 36.5 3t38.5 13t30.5 29t12.5 51q0 33 -13 50.5t-33 26t-43.5 9.5t-44.5 1h-107v-183zM163 508v-201h128q27 0 62 -3.5t66.5 -18.5t53.5 -46.5t22 -86.5q0 -29 -8 -56t-28 -48.5t-53.5 -34.5t-84.5 -13h-246v508h88z" />
    <glyph glyph-name="afii10094" unicode="&#x44c;" horiz-adv-x="520" 
d="M163 62h122q43 0 67 11t35 26.5t13.5 31.5t2.5 27q0 35 -14.5 52.5t-35.5 25t-44 8t-39 0.5h-107v-182zM163 508v-202h127q28 0 63.5 -3.5t67 -18.5t52.5 -44.5t21 -81.5q0 -57 -21 -89t-49.5 -47t-58 -18.5t-45.5 -3.5h-245v508h88z" />
    <glyph glyph-name="afii10095" unicode="&#x44d;" horiz-adv-x="559" 
d="M201 295h219q-2 59 -19.5 93t-40.5 51.5t-46.5 22t-37.5 4.5q-69 0 -106.5 -34t-41.5 -83h-84q7 64 36 100t64 53.5t69.5 21.5t53.5 4q34 0 76.5 -8t80 -36.5t63.5 -84t26 -149.5q0 -87 -23 -140t-58.5 -82t-78 -38.5t-81.5 -9.5q-26 0 -61.5 4t-70 23.5t-62.5 58.5
t-38 110h84q8 -66 44 -100t104 -34q35 0 59.5 11t41 28t26 38.5t14.5 43t6 40t1 30.5h-219v62z" />
    <glyph glyph-name="afii10096" unicode="&#x44e;" horiz-adv-x="786" 
d="M336 255q0 -29 5 -66t21.5 -69.5t47.5 -55t82 -22.5q38 0 64 13t43.5 33t27 44.5t14 48.5t5.5 43.5t1 30.5q0 16 -3 51t-18 70.5t-46 62.5t-88 27q-14 0 -40.5 -4.5t-52 -25t-44.5 -63t-19 -118.5zM243 299q4 41 19.5 82t45 73.5t74.5 53t108 20.5q49 0 94 -15
t79.5 -47.5t55.5 -84.5t21 -126q0 -68 -16.5 -115t-42 -77.5t-55.5 -47.5t-57.5 -24.5t-48.5 -9t-28 -1.5q-71 0 -118 24.5t-75 62t-40.5 83t-15.5 87.5h-80v-237h-88v508h88v-209h80z" />
    <glyph glyph-name="afii10097" unicode="&#x44f;" horiz-adv-x="549" 
d="M259 446q-13 0 -33 -1.5t-39 -10.5t-32.5 -28.5t-13.5 -54.5q0 -14 5 -30t18.5 -29t37 -21.5t60.5 -8.5h124v184h-127zM137 0h-97l140 201q-26 3 -49.5 13.5t-41.5 29t-28.5 44.5t-10.5 60q0 24 6.5 52t25 52t52 40t87.5 16h253v-508h-88v200h-116z" />
    <glyph glyph-name="afii10071" unicode="&#x451;" horiz-adv-x="578" 
d="M368 700h88v-92h-88v92zM134 700h88v-92h-88v92zM439 296q-5 48 -16.5 80.5t-29 52.5t-42 28.5t-55.5 8.5q-48 0 -78.5 -18.5t-47.5 -44.5t-23.5 -55.5t-7.5 -51.5h300zM523 147q-6 -26 -19 -55.5t-38 -54t-65 -41t-99 -16.5q-74 0 -123 23.5t-78.5 62t-42 87t-12.5 99.5
q0 46 9.5 95t36.5 89t74 66t122 26q121 0 182.5 -68t61.5 -201v-25h-393q0 -33 9 -67t27.5 -61.5t49 -45.5t74.5 -18q18 0 38.5 3.5t40 15t36 32t25.5 54.5h84z" />
    <glyph glyph-name="afii10099" unicode="&#x452;" horiz-adv-x="590" 
d="M171 700v-63h211v-62h-211v-158q34 48 74.5 69.5t92.5 21.5q61 0 98 -21.5t57 -62.5t26 -100.5t6 -134.5q0 -64 -4.5 -130t-26.5 -120t-68.5 -88.5t-130.5 -35.5v65h22q44 0 67.5 28.5t34 73.5t12 99.5t1.5 105.5t-1.5 97.5t-12.5 82.5t-34.5 57.5t-68.5 21.5
q-52 0 -81 -20.5t-43 -49.5t-17 -61.5t-3 -57.5v-257h-88v575h-80v62h80v63h88z" />
    <glyph glyph-name="afii10100" unicode="&#x453;" horiz-adv-x="439" 
d="M163 0h-88v508h348v-62h-260v-446zM333 700l-96 -132h-80l70 132h106z" />
    <glyph glyph-name="afii10101" unicode="&#x454;" horiz-adv-x="560" 
d="M372 233h-233q1 -63 16.5 -100.5t37.5 -58t47.5 -26.5t47.5 -6t46 5t45 19.5t36.5 41t20.5 69.5h84q-2 -28 -12.5 -62t-36 -64t-69.5 -50.5t-113 -20.5q-16 0 -40.5 2t-51.5 10.5t-54 25t-48.5 46.5t-35 75.5t-13.5 110.5q0 63 12 108.5t31.5 76t44.5 49t51.5 28.5
t52.5 13t48 3q69 0 113 -18.5t69 -46t35 -58.5t12 -56h-84q0 30 -13.5 52t-35 36.5t-49 21.5t-55.5 7q-23 0 -46.5 -7t-43.5 -25.5t-33.5 -52t-15.5 -86.5h233v-62z" />
    <glyph glyph-name="afii10102" unicode="&#x455;" horiz-adv-x="512" 
d="M127 151q1 -30 13 -51t31.5 -34t44 -18.5t49.5 -5.5q44 0 68 12t35 28t12.5 32t1.5 24q0 12 -2.5 23.5t-13.5 22t-32.5 20t-58.5 18.5l-54 12q-32 7 -61 16t-51 25t-35 41.5t-13 65.5q0 42 17 70.5t45 45t62 23.5t69 7q65 0 104.5 -16t61.5 -39.5t30 -50t10 -47.5h-84
q-1 11 -5.5 26.5t-17 30t-35.5 24.5t-61 10q-4 0 -21 -1t-35.5 -8.5t-33.5 -24t-15 -46.5q0 -27 11.5 -43t31 -25t45 -14.5l52.5 -11.5q39 -9 72 -18.5t57.5 -25t38 -40.5t13.5 -64q0 -40 -14 -67.5t-35 -46t-46.5 -28.5t-49 -15t-41 -6t-23.5 -1q-57 0 -98.5 13.5t-69.5 37
t-42 54.5t-15 66h88z" />
    <glyph glyph-name="afii10103" unicode="&#x456;" horiz-adv-x="234" 
d="M73 700h88v-92h-88v92zM161 508v-508h-88v508h88z" />
    <glyph glyph-name="afii10104" unicode="&#x457;" horiz-adv-x="279" 
d="M165 700h88v-92h-88v92zM26 700h88v-92h-88v92zM184 508v-508h-89v508h89z" />
    <glyph glyph-name="afii10105" unicode="&#x458;" horiz-adv-x="237" 
d="M76 700h88v-92h-88v92zM164 508v-555q0 -34 -5.5 -60.5t-19 -44.5t-37 -27.5t-58.5 -9.5q-13 0 -30.5 1.5t-26.5 2.5v62q35 6 53 11t26 13.5t9 23t1 39.5v544h88z" />
    <glyph glyph-name="afii10106" unicode="&#x459;" horiz-adv-x="849" 
d="M491 62h123q38 0 61 9t36 23t17 31t4 33q0 28 -10.5 45t-29 27t-42.5 13.5t-51 3.5h-108v-185zM16 65q5 -1 9.5 -1.5t9.5 -0.5q36 0 56.5 20t31 54.5t13 81t2.5 98.5v191h353v-199h128q28 0 63.5 -3.5t66.5 -19t52.5 -47t21.5 -87.5q0 -54 -20 -84.5t-48 -45.5
t-57.5 -18.5t-48.5 -3.5h-246v446h-182v-129q0 -59 -3 -116.5t-19.5 -102.5t-51 -73t-96.5 -28q-17 0 -35 3v65z" />
    <glyph glyph-name="afii10107" unicode="&#x45a;" horiz-adv-x="861" 
d="M503 62h123q12 0 32 2t39 11t33 28.5t14 54.5t-15.5 53t-37.5 25.5t-44.5 8t-35.5 0.5h-108v-183zM163 0h-88v508h88v-201h252v201h88v-201h127h29q20 0 43 -3.5t46.5 -12t42.5 -26t31.5 -45t12.5 -68.5q0 -42 -13 -71t-36 -47t-55 -26t-70 -8h-246v245h-252v-245z" />
    <glyph glyph-name="afii10108" unicode="&#x45b;" horiz-adv-x="586" 
d="M171 700v-63h211v-62h-211v-158q35 48 77.5 69.5t96.5 21.5q63 0 96.5 -23.5t49 -55t18 -63t2.5 -48.5v-318h-88v291q0 15 -0.5 41t-10 51.5t-31.5 44t-65 18.5q-36 0 -61 -11.5t-41 -29.5t-25 -40t-13 -43t-4.5 -38.5t-0.5 -26.5v-257h-88v575h-80v62h80v63h88z" />
    <glyph glyph-name="afii10109" unicode="&#x45c;" horiz-adv-x="495" 
d="M380 508h103l-238 -236l251 -272h-105l-228 254v-254h-88v508h88v-222zM361 700l-96 -132h-80l70 132h106z" />
    <glyph glyph-name="afii10110" unicode="&#x45e;" horiz-adv-x="498" 
d="M154 700q2 -30 25 -54.5t73 -24.5t73 24.5t25 54.5h74q-3 -20 -13 -43t-30 -43t-51.5 -33t-77.5 -13q-47 0 -78 13t-51 33t-30 43t-13 43h74zM94 -119q20 -3 29 -4t15 -1q19 0 32 7t22 19t14.5 27.5l11.5 32.5l12 38l-220 508h105l163 -411l135 411h88l-202 -568
l-14 -40.5t-22.5 -42t-37.5 -33t-59 -13.5q-21 0 -39.5 1t-32.5 4v65z" />
    <glyph glyph-name="afii10193" unicode="&#x45f;" horiz-adv-x="584" 
d="M421 508h88v-508h-178v-185h-78v185h-178v508h88v-446h258v446z" />
    <glyph glyph-name="afii10050" unicode="&#x490;" horiz-adv-x="555" 
d="M182 0h-94v700h357v158h87l7 -237h-357v-621z" />
    <glyph glyph-name="afii10098" unicode="&#x491;" horiz-adv-x="439" 
d="M163 0h-88v508h266v133h73l9 -195h-260v-446z" />
    <glyph glyph-name="uni0531" unicode="&#x531;" horiz-adv-x="733" 
d="M173 703v-417q0 -24 1 -49t6 -48.5t16 -45t31 -39.5q26 -23 61 -33t70 -10q30 0 64 9t60 32q35 32 45 78t10 106v417h94v-429q0 -68 -9.5 -102t-19.5 -51l105 -83l-57 -69l-97 79q-11 -12 -26 -24t-38 -21t-55.5 -15t-77.5 -6t-93 8t-88 37q-35 25 -54.5 57t-28.5 65.5
t-11 66t-2 58.5v429h94z" />
    <glyph glyph-name="uni0532" unicode="&#x532;" horiz-adv-x="691" 
d="M79 410q0 41 3.5 77.5t14 69t29.5 60t49 50.5q45 34 91.5 44t88.5 10q18 0 39.5 -1t44.5 -5.5t46.5 -13.5t45.5 -25q30 -22 49.5 -50.5t31 -60.5t15.5 -67t4 -69v-12h-94v11q0 56 -10.5 100t-44.5 73q-25 22 -60 31.5t-67 9.5q-38 0 -74.5 -13.5t-59.5 -37.5
q-29 -30 -38.5 -75t-9.5 -99v-147h475v-79h-475v-191h-94v410z" />
    <glyph glyph-name="uni0533" unicode="&#x533;" horiz-adv-x="731" 
d="M507 417q0 60 -10.5 106.5t-45.5 77.5q-26 22 -60.5 31.5t-66.5 9.5q-40 0 -73 -12t-55 -32q-18 -17 -29 -36t-16.5 -38t-7 -37t-1.5 -31q0 -59 18 -93t36 -50t37.5 -24.5t41.5 -12.5t45.5 -5t47.5 -1h139v147zM507 191h-163q-51 0 -104 7.5t-99 41.5q-40 29 -66.5 81.5
t-26.5 124.5v14q2 37 13.5 82.5t43.5 86.5q24 30 52 48.5t57.5 28t58 12.5t52.5 3q18 0 39.5 -1t44.5 -5.5t46.5 -13.5t45.5 -25q30 -22 49.5 -50.5t31 -60.5t15.5 -67t4 -69v-159h97v-79h-97v-191h-94v191z" />
    <glyph glyph-name="uni0534" unicode="&#x534;" horiz-adv-x="735" 
d="M37 429q0 36 4 70.5t15 66t30.5 59t50.5 48.5q24 16 51 26t51.5 14.5t44 6t29.5 1.5q60 0 105.5 -14.5t78.5 -39.5q30 -23 48.5 -50.5t28 -60t12.5 -69t3 -77.5v-140h113v-79h-113v-191h-94v417q0 54 -9.5 99t-37.5 75q-23 26 -60 38.5t-75 12.5q-33 0 -67 -10.5
t-58 -30.5q-36 -31 -46.5 -77.5t-10.5 -106.5v-79h-94v91z" />
    <glyph glyph-name="uni0535" unicode="&#x535;" horiz-adv-x="711" 
d="M173 700v-164h475v-79h-475v-174q0 -24 1 -49t6 -48.5t16 -45t31 -39.5q26 -23 61 -33t67 -10q29 0 51.5 5.5t38.5 12.5t37 23q34 29 44.5 73t10.5 100v11h94v-12q0 -35 -4 -69.5t-15.5 -67t-31 -60.5t-49.5 -50q-22 -16 -45.5 -25t-47 -13.5t-44.5 -5.5t-39 -1
q-45 0 -91.5 8t-88.5 37q-33 22 -52 50.5t-28.5 60.5t-12.5 66.5t-3 69.5v429h94z" />
    <glyph glyph-name="uni0536" unicode="&#x536;" horiz-adv-x="646" 
d="M332 642q-41 0 -69.5 -14t-46.5 -36.5t-26.5 -51t-8.5 -58.5q0 -43 14 -71.5t37 -47.5t53 -27.5t63 -8.5q9 0 32 3t48 17.5t44 45t20 88.5q0 74 -41.5 117t-118.5 44zM161 192v-42q74 3 138 37.5t104 85.5q-17 -6 -37.5 -10.5t-46.5 -4.5q-42 0 -86 13t-74 35
q-29 21 -52.5 60t-25.5 110q0 54 17.5 97t44.5 73q27 29 73 52t119 23q36 0 65.5 -7t53.5 -17.5t42.5 -24t31.5 -26.5q38 -39 51 -81t13 -79q-1 -59 -17.5 -104.5t-44.5 -85.5q-29 -42 -72 -79.5t-98 -66.5h97q12 0 27 -1t30.5 -4t30.5 -9.5t26 -16.5q15 -14 23.5 -36
t8.5 -46v-37h-94v16q0 8 -3 19t-8 18q-11 14 -28.5 16t-31.5 2h-277v-71h-94v192h94z" />
    <glyph glyph-name="uni0537" unicode="&#x537;" horiz-adv-x="592" 
d="M186 700v-164h363v-79h-363v-378h176q12 0 29 -0.5t35.5 -4t37 -11.5t32.5 -22q16 -16 26 -43t10 -67v-28h-89v26q0 17 -4 28t-9 18q-15 19 -39.5 22t-47.5 3h-251v700h94z" />
    <glyph glyph-name="uni0538" unicode="&#x538;" horiz-adv-x="711" 
d="M79 421q0 40 4 76t15.5 68t31 59.5t49.5 48.5q45 32 92.5 40t83.5 8q17 0 38.5 -1t45 -5.5t48 -13.5t46.5 -25q56 -39 77 -101.5t21 -145.5v-91h-94v79q0 58 -10 106.5t-44 78.5q-24 21 -60 30.5t-68 9.5q-33 0 -67 -10t-59 -33q-19 -17 -30 -39t-17 -46t-7.5 -49
t-1.5 -48v-338h475v-79h-569v421z" />
    <glyph glyph-name="uni0539" unicode="&#x539;" horiz-adv-x="804" 
d="M496 421q-28 0 -54 -3.5t-46 -17.5q-16 -12 -27.5 -33.5t-11.5 -58.5v-4q1 -20 6.5 -41t23.5 -40q22 -22 48.5 -28t46.5 -6h6q26 0 49.5 8t41.5 34q19 26 22 58.5t3 63.5v68h-108zM781 500v-79h-83v-61q0 -24 -2 -50.5t-9.5 -53.5t-22.5 -53t-41 -47q-20 -17 -56 -31.5
t-90 -14.5h-5q-50 1 -90.5 14.5t-68.5 39.5q-18 17 -29 36t-17 38.5t-8 38t-2 34.5q0 32 8.5 68.5t40.5 67.5q19 19 41 29.5t44 15.5t42 6.5t35 1.5h136q-5 37 -18.5 63.5t-39.5 43.5q-32 23 -73 29t-76 6q-15 0 -34 -1.5t-39 -5.5t-40 -11.5t-37 -19.5q-25 -18 -39.5 -42.5
t-22 -51.5t-10 -54.5t-2.5 -51.5v-404h-94v409q0 30 3 64t13 67.5t29.5 64.5t52.5 56q27 21 57 33t61 18t62.5 7.5t60.5 1.5q17 0 38 -0.5t43.5 -4t46.5 -11.5t47 -22q30 -18 50 -41.5t32 -48t17 -48.5t6 -45h83z" />
    <glyph glyph-name="uni053A" unicode="&#x53a;" horiz-adv-x="726" 
d="M373 430q-49 0 -93 -6t-79 -37q-9 -8 -18.5 -20.5t-17.5 -29.5t-13 -40t-5 -53q0 -14 1.5 -31.5t7 -36.5t16.5 -38.5t29 -35.5q22 -20 55 -32t73 -12q32 0 66.5 9.5t60.5 31.5q35 31 45.5 77.5t10.5 106.5v147h-139zM606 700v-191h97v-79h-97v-159q0 -34 -4 -69
t-15.5 -67t-31 -60.5t-49.5 -50.5q-22 -16 -45.5 -25t-46.5 -13.5t-44.5 -5.5t-39.5 -1q-24 0 -52.5 3t-58 12.5t-57.5 28t-52 48.5q-32 41 -43.5 86.5t-13.5 82.5v14q0 72 26.5 124.5t66.5 81.5q46 34 99 41.5t104 7.5h163v191h94z" />
    <glyph glyph-name="uni053B" unicode="&#x53b;" horiz-adv-x="683" 
d="M526 198v159q0 20 -4 50.5t-22 53.5q-11 14 -26.5 22t-31.5 12t-32 5t-28 1q-25 0 -74.5 -8.5t-121.5 -42.5v-450h-94v700h94v-168q58 25 110 36.5t109 11.5q39 0 77 -9.5t65 -29.5q25 -18 39.5 -38.5t22 -42.5t9.5 -44t2 -42v-176h-94z" />
    <glyph glyph-name="uni053C" unicode="&#x53c;" horiz-adv-x="523" 
d="M526 0h-434v700h94v-621h340v-79z" />
    <glyph glyph-name="uni053D" unicode="&#x53d;" horiz-adv-x="796" 
d="M83 700h94v-191h256v-201q0 -28 5 -57t19 -46q12 -15 35.5 -24.5t53.5 -9.5t53.5 9.5t35.5 24.5q14 17 19 46t5 57v201h94v-207q0 -20 -1.5 -40.5t-7 -41t-17 -40t-30.5 -37.5q-27 -25 -66.5 -38t-84.5 -13q-42 0 -84 13t-69 38q-18 17 -29 37t-16.5 41t-7 42t-1.5 41
v126h-162v-430h-94v700z" />
    <glyph glyph-name="uni053E" unicode="&#x53e;" horiz-adv-x="753" 
d="M170 300q0 -17 1.5 -42t8.5 -52t21.5 -54.5t40.5 -49.5q33 -29 68 -36.5t64 -7.5q37 0 69.5 9.5t61.5 34.5q27 23 41.5 50t21.5 53.5t8.5 51.5t1.5 43q0 32 -4 63.5t-24 71.5q-11 23 -26 42.5t-36 34t-49 22.5t-65 8q-20 0 -43.5 -3.5t-48 -14.5t-47 -32t-38.5 -57
q-17 -35 -22 -70.5t-5 -64.5zM545 547q17 -8 39.5 -23.5t43.5 -44.5q31 -43 40.5 -91t9.5 -93q0 -49 -9.5 -90.5t-25.5 -74.5t-37 -58t-45 -42q-37 -26 -86 -38.5t-101 -12.5q-64 0 -110 15t-76 36q-18 12 -38.5 34t-38 54.5t-29.5 77t-12 103.5q0 42 9.5 89t40.5 91
q21 29 43.5 44.5t39.5 23.5h-8q-14 0 -30 1.5t-32.5 6t-31.5 13t-26 21.5q-17 20 -20 40.5t-3 41.5v29h94v-29q0 -25 13 -35t32 -10h514v-79h-160z" />
    <glyph glyph-name="uni053F" unicode="&#x53f;" horiz-adv-x="662" 
d="M161 700v-287q0 -14 0.5 -29t3.5 -30t9.5 -28.5t17.5 -24.5t27.5 -17.5t34 -10.5t33 -5t25.5 -1q47 0 91 7t90 28v252h94v-554h-94v219q-51 -19 -96.5 -25t-99.5 -6q-21 0 -46 2t-50.5 8.5t-48.5 18.5t-41 31q-15 17 -24 37t-13.5 39.5t-5.5 37.5t-1 32v306h94z" />
    <glyph glyph-name="uni0540" unicode="&#x540;" horiz-adv-x="577" 
d="M584 0h-547v78l241 471q9 18 12.5 29t3.5 23q-2 17 -13 25.5t-19 13.5l-43 25l42 72l64 -37q9 -5 18.5 -12t18.5 -17t15 -23.5t7 -38.5q0 -12 -5 -34.5t-23 -58.5l-219 -437h447v-79z" />
    <glyph glyph-name="uni0541" unicode="&#x541;" horiz-adv-x="684" 
d="M341 110q-29 29 -61.5 39t-61.5 10q-15 0 -28 -2t-23.5 -7.5t-16.5 -15t-6 -25.5t7 -26t17.5 -15t23.5 -7t26 -2q36 0 65.5 9.5t57.5 41.5zM68 441v18q0 52 17 99.5t52 83.5t88.5 57.5t125.5 21.5q30 0 60.5 -4t60 -14.5t57 -28.5t50.5 -47q29 -35 40.5 -75.5t11.5 -87.5
q-2 -57 -13 -97.5t-31.5 -80t-50.5 -79.5t-69 -84q25 -18 57.5 -31t67.5 -13h23v-79h-20q-38 0 -68 5.5t-53 14.5t-40 19t-29 19l-40 -34q-29 -24 -75 -34.5t-94 -10.5q-40 0 -67 11t-43 28t-22.5 38.5t-6.5 42.5q0 28 8.5 53t27 44t48 30.5t71.5 11.5q41 0 90 -11.5
t102 -54.5l37 43q15 18 31 44.5t28.5 58t21 65.5t9.5 76q0 25 -6.5 56.5t-26.5 60.5q-16 22 -34.5 35t-38.5 20t-39.5 9t-37.5 2q-56 0 -92 -18.5t-57 -46t-29 -60.5t-8 -63v-13h-94z" />
    <glyph glyph-name="uni0542" unicode="&#x542;" horiz-adv-x="752" 
d="M52 429q0 35 4.5 70t16 66.5t31 59t49.5 48.5q24 16 50.5 26t50.5 14.5t43.5 6t30.5 1.5q60 0 105.5 -14.5t78.5 -39.5q30 -23 48.5 -50.5t28 -60t12.5 -69t3 -77.5v-331h120v-79h-214v417q0 54 -9.5 99t-37.5 75q-24 26 -60.5 38.5t-74.5 12.5q-34 0 -67.5 -10.5
t-56.5 -30.5q-35 -31 -46.5 -77.5t-11.5 -106.5v-79h-94v91z" />
    <glyph glyph-name="uni0543" unicode="&#x543;" horiz-adv-x="678" 
d="M521 79v66q0 26 -1.5 53.5t-7.5 54.5t-17.5 51t-32.5 43q-17 16 -38 25t-43.5 13.5t-46 5.5t-45.5 1h-56q-8 -33 -14 -66.5t-11.5 -71t-10.5 -80.5t-9 -95h333zM165 471q5 20 14 45t23 50t33 48.5t45 40.5q24 16 49.5 25t51 13.5t49.5 5.5t43 1h107v-79h-107
q-32 0 -65.5 -5t-63.5 -21q-21 -11 -36.5 -26.5t-26 -32t-17 -33.5t-9.5 -32h58q20 0 46 -1.5t54 -7t56 -16t52 -29.5q32 -26 51 -58t28.5 -67.5t12 -71.5t2.5 -69v-151h-520q9 152 23 246.5t25 145.5h-90v79h112z" />
    <glyph glyph-name="uni0544" unicode="&#x544;" horiz-adv-x="769" 
d="M173 700v-417q0 -24 1 -49t6 -48.5t16 -45t31 -39.5q26 -23 61 -33t67 -10q29 0 51.5 5.5t38.5 12.5t25 14t12 9q35 32 45 78t10 106v417h224v-79h-130v-350q0 -35 -4 -69.5t-15.5 -67t-31 -60.5t-49.5 -50q-22 -16 -45.5 -25t-47 -13.5t-44.5 -5.5t-39 -1q-44 0 -92 8
t-88 37q-35 25 -54.5 57t-28.5 65.5t-11 66t-2 58.5v429h94z" />
    <glyph glyph-name="uni0545" unicode="&#x545;" horiz-adv-x="700" 
d="M179 191v-9q0 -24 11 -51t48 -47q23 -12 57 -19t63 -7t67 6.5t64 24.5q5 3 14.5 11t18.5 21t16 32t7 44q0 22 -6 45.5t-23.5 42.5t-48.5 31.5t-82 12.5h-320v79h311q12 0 35.5 2t47 13t41 33t17.5 63q0 33 -12.5 56t-31.5 37q-14 11 -30 17t-31.5 9t-30 3.5t-25.5 0.5
q-42 0 -70 -8t-45 -22q-11 -8 -25.5 -28.5t-14.5 -55.5v-5h-94q0 39 13.5 74t33.5 56q16 17 40 30t52 21.5t58 12.5t59 4q44 0 94 -9.5t88 -39.5q11 -9 23 -22t21.5 -31t15.5 -41t6 -53q0 -57 -31.5 -100t-85.5 -52v-2q46 -11 74 -31t44 -45t21.5 -53t5.5 -54
q0 -56 -25 -98.5t-57 -65.5q-20 -14 -44.5 -22.5t-51 -13.5t-53.5 -7t-50 -2q-72 0 -133.5 16.5t-97.5 60.5q-19 24 -30.5 60.5t-11.5 74.5h94z" />
    <glyph glyph-name="uni0546" unicode="&#x546;" horiz-adv-x="748" 
d="M695 270q0 -35 -4 -69.5t-15.5 -67t-31 -60.5t-49.5 -50q-22 -16 -45.5 -25t-47 -13.5t-44.5 -5.5t-39 -1q-44 0 -92 8t-88 37q-35 25 -54.5 57t-28.5 65.5t-11 66t-2 58.5v351h-130v79h224v-418q0 -24 1 -49t6 -48.5t16 -45t31 -39.5q26 -23 61 -33t67 -10
q29 0 51.5 5.5t38.5 12.5t25 14t12 9q35 32 45 78t10 106v97h94v-109z" />
    <glyph glyph-name="uni0547" unicode="&#x547;" horiz-adv-x="703" 
d="M660 232q-6 -49 -26.5 -97.5t-55.5 -83.5q-23 -23 -48.5 -37.5t-52.5 -22t-55 -10t-56 -2.5q-25 0 -57 3.5t-66.5 16t-68.5 35.5t-62 62q-23 32 -41.5 83t-18.5 126q0 63 17.5 110.5t42.5 80.5q12 16 29.5 33.5t41 32.5t53.5 26t66 16l-149 60l30 73l448 -170l-28 -73
l-154 58q-8 1 -18 1h-18q-45 0 -91 -10.5t-84 -40.5q-12 -10 -27 -25.5t-28 -38.5t-22 -54t-9 -71q0 -50 13.5 -97t42.5 -82q23 -27 65 -51.5t102 -24.5q42 0 77.5 12.5t64.5 44.5q16 18 31 46.5t18 70.5h94z" />
    <glyph glyph-name="uni0548" unicode="&#x548;" horiz-adv-x="706" 
d="M537 0v417q0 24 -1 49t-6 48.5t-16 45t-31 39.5q-26 23 -61 33t-67 10q-29 0 -51.5 -5.5t-38.5 -12.5t-25 -14t-12 -9q-35 -32 -45 -78t-10 -106v-417h-94v429q0 34 4 69t15.5 67t31 60.5t49.5 50.5q22 16 45.5 25t47 13.5t44.5 5.5t39 1q44 0 92 -8t88 -37
q35 -25 54.5 -57t28.5 -66t11 -66.5t2 -57.5v-429h-94z" />
    <glyph glyph-name="uni0549" unicode="&#x549;" horiz-adv-x="668" 
d="M103 208l146 -49q23 2 49 7.5t52 15t50 22.5t43 30q31 28 54 76.5t23 126.5q0 13 -1.5 32t-6.5 39.5t-15 41t-27 38.5q-27 27 -68 40.5t-84 13.5t-74.5 -13.5t-52.5 -33.5q-18 -18 -29 -39t-16.5 -42t-7 -39.5t-1.5 -29.5h-90v14q0 54 18 99.5t44 75.5q24 28 51.5 45
t56.5 26.5t57 12.5t54 3q30 0 60.5 -4t59.5 -14t56.5 -27.5t51.5 -44.5q23 -26 43.5 -74t20.5 -123q0 -80 -28.5 -143.5t-78.5 -104.5q-32 -26 -76.5 -45.5t-92.5 -26.5l174 -66l-29 -79l-415 157z" />
    <glyph glyph-name="uni054A" unicode="&#x54a;" horiz-adv-x="774" 
d="M605 0v421q0 25 -1 50t-6 48t-16 44t-30 40q-11 10 -35 24.5t-61 14.5h-36v-460h-94v460h-32q-41 0 -65.5 -15t-35.5 -26q-32 -32 -42 -77.5t-10 -102.5v-38h-94v42q0 37 5.5 81.5t25.5 86.5q12 25 27 43.5t30.5 31t30.5 20t28 12.5q42 16 81.5 18.5t75.5 2.5h38
q42 0 79.5 -2.5t78.5 -15.5q35 -11 67.5 -35.5t56.5 -74.5q21 -44 24.5 -85.5t3.5 -78.5v-429h-94z" />
    <glyph glyph-name="uni054B" unicode="&#x54b;" horiz-adv-x="648" 
d="M298 641q-54 -21 -71 -35q-24 -20 -40 -50.5t-16 -68.5q0 -40 14.5 -63.5t37.5 -37.5q19 -11 32.5 -16.5t25.5 -9.5l23.5 -8t25.5 -13q12 -8 24.5 -22.5t13.5 -38.5q0 -10 -2.5 -21.5t-7.5 -22.5q23 15 48.5 37.5t47.5 51.5t36 65.5t15 84.5q0 34 -10.5 66t-31.5 55
q-18 20 -49 34t-78 14zM62 197h94v-49q20 0 43 4t39 10q15 6 29 15.5t22 20.5q14 17 14 40q-3 24 -8 32q-9 14 -24.5 18.5t-29.5 6.5q-25 5 -57.5 15t-60.5 36q-6 6 -15 16.5t-17.5 26.5t-14 38t-5.5 50q0 50 19 95.5t52 77.5q45 44 97 57.5t99 13.5q24 0 49.5 -3t51.5 -11
t51 -22.5t48 -37.5q39 -39 53 -85.5t14 -93.5q0 -12 -3.5 -33.5t-14 -49t-30 -58.5t-51.5 -62q-34 -32 -81.5 -63t-98.5 -54h131q13 0 28 -0.5t30.5 -4.5t30.5 -11.5t27 -22.5q10 -12 16.5 -28.5t6.5 -36.5v-43h-94v27q0 14 -10 24q-11 12 -28.5 14.5t-32.5 2.5h-275v-69
h-94v197z" />
    <glyph glyph-name="uni054C" unicode="&#x54c;" horiz-adv-x="777" 
d="M79 429q0 34 4 69t15.5 67t31 60.5t49.5 50.5q22 16 45.5 25t47 13.5t44.5 5.5t39 1q44 0 92 -8t88 -37q35 -25 54.5 -57t28.5 -66t11 -66.5t2 -57.5v-114h113v-79h-113v-236h-94v417q0 25 -1 49.5t-6 48t-16 45t-31 39.5q-31 28 -66.5 35.5t-61.5 7.5t-61.5 -7
t-65.5 -34q-35 -32 -45 -77.5t-10 -106.5v-417h-94v429z" />
    <glyph glyph-name="uni054D" unicode="&#x54d;" horiz-adv-x="702" 
d="M169 700v-417q0 -32 3.5 -71.5t21.5 -73.5t54.5 -57t102.5 -23q52 0 87 14.5t56 43t30 70.5t9 97v417h94v-429q0 -71 -15 -120.5t-39.5 -82t-55 -50.5t-61.5 -26.5t-58.5 -10.5t-46.5 -2q-64 0 -109 13.5t-76 35.5t-49 52t-27.5 62t-12 65.5t-2.5 63.5v429h94z" />
    <glyph glyph-name="uni054E" unicode="&#x54e;" horiz-adv-x="699" 
d="M151 542v-131q0 -13 0.5 -28t3.5 -30t9.5 -29t17.5 -25q11 -10 27.5 -16.5t35 -10t37 -5t33.5 -1.5q67 0 106 11.5t59 22.5v400h94v-621h97v-79h-191v219q-49 -19 -93.5 -25.5t-99.5 -6.5q-22 0 -47 2t-49.5 8.5t-48 18.5t-41.5 32q-15 17 -24 36.5t-13.5 39t-5.5 38
t-1 32.5v148h94z" />
    <glyph glyph-name="uni054F" unicode="&#x54f;" horiz-adv-x="662" 
d="M142 222q-1 -35 12 -65t39 -52t63.5 -34.5t85.5 -12.5q47 0 79.5 11t53 29t30 41.5t9.5 48.5q0 32 -13 53.5t-33 35t-45.5 21.5t-49.5 13l-114.5 24.5t-96 32.5t-66 56.5t-24.5 95.5q0 49 19 87t54 63t84 38t108 13q65 0 112.5 -16.5t79 -44.5t48 -65t19.5 -77h-94
q-5 43 -25.5 68t-46.5 37.5t-53 15.5t-43 3q-73 0 -117.5 -31.5t-44.5 -85.5q0 -32 14.5 -51.5t38.5 -32t55.5 -19.5t66.5 -14q47 -9 94.5 -20.5t86 -34.5t62.5 -61.5t24 -101.5q0 -52 -16.5 -88t-42.5 -59.5t-58 -36.5t-62.5 -19t-57 -7t-40.5 -1q-37 0 -85.5 7t-92.5 31.5
t-75.5 73t-35.5 131.5h94z" />
    <glyph glyph-name="uni0550" unicode="&#x550;" horiz-adv-x="679" 
d="M79 410q0 41 3.5 77.5t14 69t29.5 60t49 50.5q45 34 91.5 44t88.5 10q18 0 39 -1t44.5 -5.5t47 -13.5t46.5 -25q58 -41 78.5 -101.5t20.5 -145.5v-91h-94v79q0 59 -10 106.5t-43 77.5q-25 22 -62 31.5t-67 9.5q-38 0 -74.5 -13.5t-59.5 -37.5q-29 -30 -38.5 -75t-9.5 -99
v-417h-94v410z" />
    <glyph glyph-name="uni0551" unicode="&#x551;" horiz-adv-x="658" 
d="M335 434q17 0 38.5 3.5t40 14.5t31 32t12.5 56q0 46 -30.5 74t-91.5 28q-45 0 -69.5 -13t-36 -30.5t-13.5 -34t-2 -23.5v-1q0 -35 12 -56t30 -32t39 -14.5t40 -3.5zM159 166q9 -43 37 -67q24 -22 63.5 -31.5t82.5 -9.5q28 0 61.5 7.5t61.5 30.5q22 18 36.5 49t14.5 69
q0 35 -13.5 58t-29.5 37q-26 23 -63 34.5t-75 11.5q-29 0 -63 -6t-57 -20q-26 -15 -36.5 -33t-14.5 -33h-94q6 35 24 60t51 45q22 14 44 21t43 9q-24 5 -47 18.5t-38 33.5t-21 46.5t-6 51.5q0 45 17 74t35 46q36 34 79 43.5t84 9.5q40 0 84 -9.5t80 -43.5q18 -17 35 -46.5
t17 -73.5q0 -22 -5.5 -52t-22.5 -52q-14 -19 -38 -33t-47 -21q30 -4 53 -13t38 -19q47 -29 64 -69.5t17 -83.5q0 -40 -15.5 -79.5t-38.5 -66.5t-50.5 -43t-56 -24t-57.5 -10.5t-55 -2.5q-23 0 -49.5 1.5t-53 7t-52.5 16.5t-49 29q-21 17 -34.5 35t-20.5 35.5t-10 33.5t-3 29
h94z" />
    <glyph glyph-name="uni0552" unicode="&#x552;" horiz-adv-x="570" 
d="M79 700h94v-138h48q29 0 54.5 -4.5t52.5 -29.5q13 -12 22.5 -26t18 -29t16 -32.5t17.5 -36.5l37 -75q10 -21 23 -33t25.5 -17.5t23 -6.5t17.5 -1h29v-79h-59q-28 0 -47.5 7t-30.5 15q-16 11 -31 29t-25 38l-58 118q-8 15 -20 34.5t-26 30.5q-17 13 -34.5 16t-32.5 3h-20
v-483h-94v700z" />
    <glyph glyph-name="uni0553" unicode="&#x553;" horiz-adv-x="770" 
d="M434 176h9q35 0 73 11.5t64 35.5q18 16 28 35.5t15.5 39t6.5 37.5t1 32q0 13 -1 31t-6.5 37.5t-15.5 39t-28 36.5q-26 24 -64 35.5t-73 11.5h-9v-382zM340 558h-11q-41 0 -75.5 -13.5t-57.5 -33.5q-19 -17 -29.5 -36.5t-16 -38.5t-6.5 -37t-1 -32t1 -32t6.5 -37t16 -38.5
t29.5 -36.5q23 -20 57.5 -33.5t75.5 -13.5h11v382zM434 700v-63h5q51 0 104 -16t93 -48q30 -24 47.5 -52.5t27 -56t12 -53t2.5 -44.5t-2.5 -44.5t-12 -53.5t-27 -56t-47.5 -52q-38 -30 -93 -47t-109 -17v-97h-94v97q-54 0 -109 17t-93 47q-30 24 -47.5 52t-27 56t-12 53.5
t-2.5 44.5t2.5 44.5t12 53t27 56t47.5 52.5q40 32 93 48t104 16h5v63h94z" />
    <glyph glyph-name="uni0554" unicode="&#x554;" horiz-adv-x="656" 
d="M346 643q-22 0 -49 -6.5t-51 -28.5q-29 -26 -37.5 -58t-8.5 -61q0 -27 6.5 -58t32.5 -56q20 -19 49.5 -29t57.5 -10q29 0 56 8t47.5 26.5t33 47.5t12.5 71t-12.5 71.5t-33 48t-47.5 26.5t-56 8zM106 450q0 22 1.5 47.5t7.5 51t17.5 51t31.5 47.5q28 32 74.5 53.5
t110.5 21.5q53 0 96.5 -15t75 -42.5t49 -67t19.5 -88.5v-15q0 -49 -14 -92t-42.5 -75.5t-71 -51t-100.5 -18.5q-34 0 -60 6.5t-45.5 16.5t-33 22t-22.5 23v-150h403v-79h-403v-100h-94v100h-89v79h89v275z" />
    <glyph glyph-name="uni0555" unicode="&#x555;" horiz-adv-x="764" 
d="M148 350q0 -42 8.5 -93t33.5 -95.5t71 -74t121 -29.5q12 0 34 2t48 11t53 27.5t49 50.5t36 81t14 120q0 62 -14 115.5t-42.5 92.5t-73 61.5t-104.5 22.5q-53 0 -91.5 -16.5t-64.5 -42.5t-41.5 -58.5t-23.5 -65t-10.5 -61.5t-2.5 -48zM48 350q0 92 25 161.5t69 116
t105.5 70t134.5 23.5q58 0 117.5 -18t107.5 -60.5t78.5 -114t30.5 -178.5q0 -91 -22 -154.5t-55.5 -104.5t-73.5 -63.5t-77 -33.5t-66 -13t-40 -2t-40.5 2t-66.5 13t-77 33.5t-73.5 63.5t-55 104t-21.5 155z" />
    <glyph glyph-name="uni0556" unicode="&#x556;" horiz-adv-x="696" 
d="M303 408q-45 1 -84.5 9t-69 26t-47 48.5t-17.5 77.5q0 26 8 53.5t27.5 50t52 36.5t81.5 14h143v-247q36 -1 64.5 -7t49.5 -12.5t33 -13t15 -8.5l1 -1q17 -11 33.5 -28.5t29 -41.5t21 -55.5t9.5 -70.5q0 -45 -9 -85t-33 -75q-21 -31 -50.5 -50t-64 -30t-73.5 -15t-78 -4
q-18 0 -42.5 1t-51.5 4.5t-53 9t-46 14.5q-40 19 -71 59t-34 112h94v-1q0 -38 17 -61.5t42 -36.5t52 -17.5t47 -4.5h4v350zM397 58h6q24 0 51.5 7t50.5 25q12 9 22 20.5t17.5 29t11 41.5t3.5 58q-5 78 -44 116.5t-118 43.5v-341zM303 644h-53q-42 0 -59.5 -22t-17.5 -55
q1 -25 11 -39.5t22.5 -22.5t25.5 -10.5t20 -3.5l51 -4v157z" />
    <glyph glyph-name="uni0559" unicode="&#x559;" horiz-adv-x="136" 
d="M123 600q-22 -2 -42 4.5t-35 20t-24 33.5t-9 46q0 25 9 45t24 33.5t35 20t42 5.5v-62h-6q-18 0 -30 -12t-12 -30q0 -20 12 -30.5t29 -10.5h7v-63z" />
    <glyph glyph-name="uni055A" unicode="&#x55a;" horiz-adv-x="317" 
d="M208 700v-140q0 -30 -10 -51t-25 -34.5t-32 -21t-32 -10.5v55q21 2 35.5 20.5t14.5 41.5v31h-50v109h99z" />
    <glyph glyph-name="uni055B" unicode="&#x55b;" horiz-adv-x="213" 
d="M200 807l-129 -207h-58l88 207h99z" />
    <glyph glyph-name="uni055C" unicode="&#x55c;" horiz-adv-x="352" 
d="M13 600v17q0 14 1.5 26.5t10.5 29.5q11 22 29 32.5t47 17.5q18 5 41.5 7.5l67.5 7.5q20 2 34 4.5t23 9.5q11 8 13 18.5t2 19.5v17h57v-17q0 -14 -1.5 -26.5t-10.5 -29.5q-11 -22 -29 -32.5t-47 -17.5q-18 -5 -41.5 -7.5l-67.5 -7.5q-20 -2 -34 -4.5t-23 -9.5
q-11 -8 -13 -18.5t-2 -19.5v-17h-57z" />
    <glyph glyph-name="uni055D" unicode="&#x55d;" horiz-adv-x="213" 
d="M200 600h-58l-129 207h99z" />
    <glyph glyph-name="uni055E" unicode="&#x55e;" horiz-adv-x="351" 
d="M13 600q-1 31 3.5 56t12.5 44t18.5 32.5t21.5 22.5q21 17 52.5 27t72.5 10q25 0 56 -6t56 -27q17 -15 24.5 -33t7.5 -40q0 -14 -4 -29t-13 -27q-10 -14 -32 -25.5t-60 -11.5q-11 0 -35 3t-43 19q-11 10 -20.5 28t-5.5 45h54q-1 -9 2 -19t9 -17q7 -8 15.5 -10t16.5 -2
t17.5 1t17.5 9q13 13 13 34q0 11 -3 22t-14 19q-14 11 -32 13.5t-30 2.5q-35 0 -55 -10t-30 -20q-16 -17 -26 -46.5t-5 -64.5h-62z" />
    <glyph glyph-name="uni055F" unicode="&#x55f;" horiz-adv-x="317" 
d="M154 600q-20 0 -47 2.5t-50 16.5q-30 19 -37 45.5t-7 45.5v83h99v-83h-21q-1 -20 7.5 -29.5t16.5 -13.5q8 -5 19.5 -6t28.5 -1h141v-60h-150z" />
    <glyph glyph-name="uni0561" unicode="&#x561;" horiz-adv-x="878" 
d="M715 0v69q-27 -43 -68 -66t-88 -23q-33 0 -58 9.5t-42.5 25t-28.5 35t-16 39.5q-7 -15 -20.5 -33.5t-35 -35.5t-51 -28.5t-69.5 -11.5q-43 0 -71 14t-45 31q-32 31 -39.5 69t-7.5 86v328h88v-322q0 -20 1.5 -40t8.5 -39q11 -29 31.5 -47t56.5 -18q22 0 46 7t43.5 25.5
t32 50t12.5 80.5v303h88v-321q0 -28 4 -54t15 -46.5t30 -32.5t49 -12q27 0 51.5 11.5t43 32.5t29 51t10.5 68v303h88v-508h-88z" />
    <glyph glyph-name="uni0562" unicode="&#x562;" horiz-adv-x="582" 
d="M163 508v-71q30 44 72.5 67.5t101.5 23.5q43 0 73 -12t49 -31q16 -16 25 -34.5t13 -38t5 -38.5t1 -36v-178h-88v156q0 33 -3.5 63.5t-23.5 54.5q-16 19 -36 25.5t-43 6.5q-26 0 -49 -8t-46 -28q-19 -17 -29 -35.5t-15 -38t-6 -39.5t-1 -40v-215h356v-62h-356v-185h-88
v693h88z" />
    <glyph glyph-name="uni0563" unicode="&#x563;" horiz-adv-x="636" 
d="M139 254q0 -35 6 -71.5t24 -68.5q13 -24 29 -38t32 -21.5t32 -10t29 -2.5q31 0 65.5 17t60.5 61q20 34 25 68.5t5 63.5q0 15 -1 33.5t-4.5 38.5t-10.5 41t-19 39q-17 25 -45 43.5t-71 18.5q-25 0 -44.5 -6t-34 -15t-25 -20t-17.5 -21q-24 -35 -30 -76t-6 -74zM531 508
v-446h102v-62h-102v-185h-88v257q-4 -8 -14.5 -23.5t-30 -30.5t-49.5 -26.5t-73 -11.5q-47 0 -91.5 16.5t-82.5 64.5q-35 45 -45.5 95.5t-10.5 97.5q0 54 13 106.5t55 99.5q35 39 75.5 53.5t89.5 14.5q32 0 60 -8t56 -28q19 -14 31 -27.5t20 -26.5h3v70h82z" />
    <glyph glyph-name="uni0564" unicode="&#x564;" horiz-adv-x="622" 
d="M163 508v-71q30 44 72.5 67.5t101.5 23.5q43 0 73 -12t49 -31q16 -16 25 -34.5t13 -38t5 -38.5t1 -36v-276h116v-62h-116v-185h-88v501q0 33 -3.5 63.5t-23.5 54.5q-16 19 -36 25.5t-43 6.5q-26 0 -49 -8t-46 -28q-19 -17 -29 -35.5t-15 -38t-6 -39.5t-1 -40v-277h-88
v508h88z" />
    <glyph glyph-name="uni0565" unicode="&#x565;" horiz-adv-x="581" 
d="M163 700v-192h355v-62h-355v-254q0 -33 3.5 -63.5t23.5 -54.5q16 -19 36 -25.5t43 -6.5q26 0 49 8t46 28q19 17 29 35.5t15 38t6 39.5t1 40v117h88v-348h-88v71q-30 -44 -72.5 -67.5t-101.5 -23.5q-43 0 -73 12t-49 31q-16 16 -25 34.5t-13 38t-5 38.5t-1 36v530h88z" />
    <glyph glyph-name="uni0566" unicode="&#x566;" horiz-adv-x="619" 
d="M139 254q0 -35 6 -71.5t24 -68.5q13 -24 29 -38t32 -21.5t32 -10t29 -2.5q31 0 65.5 17t60.5 61q20 34 25 68.5t5 63.5q0 15 -1 33.5t-4.5 38.5t-10.5 41t-19 39q-17 25 -45 43.5t-71 18.5q-25 0 -44.5 -6t-34 -15t-25 -20t-17.5 -21q-24 -35 -30 -76t-6 -74zM529 508
v-631h117v-62h-205v257q-7 -14 -19.5 -29.5t-32.5 -29.5q-26 -18 -55.5 -25.5t-59.5 -7.5q-46 0 -91.5 16.5t-82.5 64.5q-33 44 -43.5 96t-10.5 97q0 19 1.5 44.5t8.5 52.5t20 55t36 54q35 39 76 53.5t89 14.5q32 0 60 -8t56 -28q19 -14 31 -27.5t20 -26.5h3v70h82z" />
    <glyph glyph-name="uni0567" unicode="&#x567;" horiz-adv-x="492" 
d="M163 700v-192h306v-62h-306v-384h134q48 0 76 -10.5t41.5 -26.5t17 -35t3.5 -35v-25h-84v20q0 7 -2 16t-8 16.5t-17.5 12.5t-30.5 5h-218v700h88z" />
    <glyph glyph-name="uni0568" unicode="&#x568;" horiz-adv-x="578" 
d="M163 508v-71q30 44 73 67.5t101 23.5q42 0 73 -12t50 -31q16 -16 24.5 -34.5t12.5 -38t5 -39t1 -35.5v-338h-88v317q0 13 -0.5 28.5t-2.5 31.5t-7.5 31t-14.5 26q-11 14 -31.5 23t-49.5 9q-26 0 -49 -8t-46 -28q-19 -17 -29 -35.5t-15 -38t-6 -39.5t-1 -40v-400h356v-62
h-444v693h88z" />
    <glyph glyph-name="uni0569" unicode="&#x569;" horiz-adv-x="695" 
d="M459 265q-45 0 -66 -3.5t-31 -8.5q-15 -8 -24 -20.5t-13.5 -26.5t-7.5 -48q0 -28 5.5 -51.5t25.5 -43.5q25 -25 62 -25q32 0 51.5 11t31.5 28q14 18 22 49.5t8 85.5v53h-64zM157 508v-70h3q15 17 34.5 33.5t45 29t57.5 20t71 7.5q60 0 103.5 -18t73 -47t45.5 -64.5
t21 -71.5h67v-62h-62v-51q0 -40 -14.5 -86.5t-42.5 -80.5q-18 -21 -37 -34.5t-38.5 -20.5t-39 -9.5t-37.5 -2.5q-37 0 -71.5 12.5t-61.5 45.5q-39 47 -39 123q1 29 8 51.5t17.5 38.5t22 27t20.5 17q25 17 57 24.5t66 7.5h92q-4 32 -18.5 57.5t-36.5 43.5t-50 27.5t-59 10.5
h-4q-45 0 -89.5 -18.5t-70.5 -57.5q-20 -31 -23.5 -60t-3.5 -53v-462h-88v693h82z" />
    <glyph glyph-name="uni056A" unicode="&#x56a;" horiz-adv-x="636" 
d="M322 446q-20 0 -39.5 -1.5t-38.5 -8.5t-37 -20t-34 -35q-20 -28 -28.5 -65.5t-8.5 -81.5q0 -37 9 -71.5t27.5 -61.5t47.5 -43t69 -16q26 0 46 6t34.5 15.5t25 20.5t16.5 21q7 11 13 26.5t10 32.5t6.5 35t2.5 34v213h-121zM531 700v-192h102v-62h-102v-192
q0 -63 -16.5 -113.5t-48.5 -86.5t-78 -55t-104 -19q-57 0 -102 19.5t-76 54.5t-47 85t-16 110q0 63 19 116t65 90q45 35 91.5 44t93.5 9h131v192h88z" />
    <glyph glyph-name="uni056B" unicode="&#x56b;" horiz-adv-x="578" 
d="M163 700v-263q30 44 72.5 67.5t101.5 23.5q43 0 73 -12t49 -31q16 -16 25 -34.5t13 -38t5 -38.5t1 -36v-338h-88v316q0 33 -3.5 63.5t-23.5 54.5q-16 19 -36 25.5t-43 6.5q-26 0 -49 -8t-46 -28q-19 -17 -29 -35.5t-15 -38t-6 -39.5t-1 -40v-462h-88v885h88z" />
    <glyph glyph-name="uni056C" unicode="&#x56c;" horiz-adv-x="285" 
d="M163 508v-631h159v-62h-247v693h88z" />
    <glyph glyph-name="uni056D" unicode="&#x56d;" horiz-adv-x="821" 
d="M163 700v-192h263v-311q0 -46 5 -75t19 -47q14 -20 32.5 -26.5t40.5 -6.5q26 0 46 7t42 29q25 25 36 52t11 67v311h88v-508h-88v72q-23 -36 -63 -64t-100 -28q-11 0 -25 1t-29.5 5.5t-31 13t-29.5 23.5q-27 29 -34.5 66t-7.5 82v275h-175v-631h-88v885h88z" />
    <glyph glyph-name="uni056E" unicode="&#x56e;" horiz-adv-x="611" 
d="M346 380q-30 0 -64.5 -3t-65 -17.5t-52.5 -46t-25 -88.5q0 -44 9 -75.5t28 -55.5q19 -23 47.5 -37.5t60.5 -14.5q33 0 66 12t54 38q23 29 27.5 62.5t4.5 68.5v157h-90zM207 711v-70h62q27 0 54 -1t53.5 -5t50 -13.5t43.5 -25.5q37 -31 45.5 -69.5t8.5 -84.5h84v-62h-84
v-153q0 -45 -11 -88t-44 -83q-22 -26 -47 -41.5t-49.5 -23t-47.5 -9.5t-41 -2q-17 0 -39.5 2t-47.5 9.5t-50.5 23t-47.5 41.5q-26 31 -39.5 74t-13.5 94q2 60 21.5 102t54.5 69q32 25 68.5 36t72.5 11h173v17q1 32 -8.5 54t-33.5 38q-27 18 -71.5 23t-108.5 5h-95v132h88z
" />
    <glyph glyph-name="uni056F" unicode="&#x56f;" horiz-adv-x="578" 
d="M163 700v-508q0 -33 3.5 -63.5t23.5 -54.5q16 -19 36 -25.5t43 -6.5q26 0 49 8t46 28q19 17 29 35.5t15 38t6 39.5t1 40v277h88v-693h-88v256q-30 -44 -72.5 -67.5t-101.5 -23.5q-43 0 -73 12t-49 31q-16 16 -25 34.5t-13 38t-5 38.5t-1 36v530h88z" />
    <glyph glyph-name="uni0570" unicode="&#x570;" horiz-adv-x="578" 
d="M163 700v-263q35 48 77.5 69.5t96.5 21.5q42 0 71 -11t47.5 -29t28 -39.5t14 -42.5t5 -39.5t0.5 -28.5v-338h-88v311q0 22 -1 49t-11 50.5t-31.5 39.5t-62.5 16q-18 0 -43 -6t-48 -25.5t-39 -57t-16 -100.5v-277h-88v700h88z" />
    <glyph glyph-name="uni0571" unicode="&#x571;" horiz-adv-x="560" 
d="M298 674l-37 -47l134 -114l-59 -69l236 -444h-100l-33 63q-15 -24 -40 -40t-54 -25.5t-59.5 -13.5t-57.5 -4q-42 0 -76.5 12.5t-59.5 34.5t-38.5 52.5t-13.5 67.5q0 51 21.5 91t51.5 74l176 200l-136 106l81 105zM187 273q-23 -24 -42 -51.5t-19 -66.5q0 -5 0.5 -10.5
t1.5 -11.5q3 -18 11 -34t22 -29t34.5 -20.5t47.5 -7.5q34 0 63 9t49 20q21 11 33.5 21t22.5 27l-133 251z" />
    <glyph glyph-name="uni0572" unicode="&#x572;" horiz-adv-x="585" 
d="M163 508v-71q30 44 72.5 67.5t101.5 23.5q49 0 78.5 -14.5t43.5 -28.5q31 -30 37.5 -66t6.5 -81v-461h109v-62h-197v503q0 27 -3 59t-23 57q-17 20 -37.5 26t-42.5 6q-26 0 -49 -8t-46 -28q-19 -17 -29 -35.5t-15 -38t-6 -39.5t-1 -40v-277h-88v508h88z" />
    <glyph glyph-name="uni0573" unicode="&#x573;" horiz-adv-x="595" 
d="M161 241q-8 -18 -13.5 -43.5t-5.5 -51.5q0 -17 4 -33.5t12 -29.5q7 -11 28 -26t62 -15h2q24 0 51 7.5t53.5 21t50 32.5t41.5 41l-12 70q-12 69 -22.5 98.5t-15.5 38.5q-21 39 -55 52.5t-83 13.5h-28zM58 479h117l29 73q14 35 31 69.5t46 54.5q21 14 45.5 19t50.5 5h98
v-62h-45q-28 0 -53.5 -2t-43.5 -14q-17 -11 -28.5 -35t-23.5 -53l-22 -55h46q49 0 90 -17t68 -61q21 -34 32 -80.5t24 -114.5l38 -206h-82l-16 79l-29 -25q-14 -12 -34 -25t-46 -24t-56.5 -18t-64.5 -7h-3q-18 0 -42 3.5t-48 14t-44 31t-31 54.5q-8 27 -8 53q0 38 12.5 78.5
t30.5 82.5l50 120h-88v62z" />
    <glyph glyph-name="uni0574" unicode="&#x574;" horiz-adv-x="586" 
d="M163 508v-311q0 -35 4.5 -67t22.5 -55t40 -28t40 -5q27 0 50 7.5t46 28.5q26 24 38 52t12 67v503h168v-62h-80v-638h-88v72q-24 -37 -66.5 -64.5t-107.5 -27.5q-45 0 -74 12t-48 31q-29 29 -37 66t-8 82v337h88z" />
    <glyph glyph-name="uni0575" unicode="&#x575;" horiz-adv-x="253" 
d="M180 508v-555q0 -34 -5.5 -60.5t-19 -44.5t-37 -27.5t-58.5 -9.5q-13 0 -30.5 1.5t-26.5 2.5v62q22 4 37.5 3.5t29.5 11.5q8 7 12.5 16.5t6.5 19.5t2.5 19.5t0.5 16.5v544h88z" />
    <glyph glyph-name="uni0576" unicode="&#x576;" horiz-adv-x="589" 
d="M426 0v72q-24 -37 -66.5 -64.5t-107.5 -27.5q-45 0 -74 12t-48 31q-29 29 -37 66t-8 82v467h-80v62l168 1v-504q0 -35 4.5 -67t22.5 -55t40 -28t40 -5q48 0 74.5 18.5t41.5 39.5q14 18 22 40t8 57v311h88v-508h-88z" />
    <glyph glyph-name="uni0577" unicode="&#x577;" horiz-adv-x="471" 
d="M291 224q23 22 43.5 55.5t20.5 80.5q0 35 -10.5 56t-27 32t-36 14.5t-36.5 3.5q-20 0 -45.5 -5t-47.5 -27q-11 -11 -21 -31t-10 -48v-6h-82v10q0 45 20 82q14 27 35 44t45 26.5t50 13t57 3.5q55 0 93 -13t62 -35t35 -51.5t12 -66.5q0 -42 -14 -72t-34 -58
q-12 -17 -22 -27.5t-54 -52.5l-180 -168q-13 -12 -27 -26.5t-16 -39.5q0 -22 11 -30t22 -9.5t36 -1.5h267v-62h-223q-53 0 -80 1t-45 5q-14 3 -28 9t-24.5 16t-17 25t-6.5 39q1 41 17.5 63.5t39.5 44.5z" />
    <glyph glyph-name="uni0578" unicode="&#x578;" horiz-adv-x="579" 
d="M163 508v-71q26 38 70 64.5t104 26.5q50 0 82.5 -15.5t51 -41.5t26 -60.5t7.5 -72.5v-338h-88v311q0 20 -1.5 47t-11 51t-31.5 40.5t-63 16.5q-18 0 -43 -6t-48 -25.5t-39 -57t-16 -100.5v-277h-88v508h88z" />
    <glyph glyph-name="uni0579" unicode="&#x579;" horiz-adv-x="321" 
d="M194 -185q-60 0 -86.5 1t-41.5 5q-32 7 -52.5 27t-20.5 61q0 34 15 59l30 50l156 249l-43 33q-27 21 -39.5 41.5t-12.5 39.5q0 28 14 53t26 43l34 50l71 -52l-30 -40q-8 -11 -15 -26t-7 -28v-2q1 -19 11.5 -31.5t23.5 -22.5l70 -57l-176 -278q-20 -32 -24 -48t-4 -23
q0 -15 7.5 -23.5t18 -12.5t22 -5t19.5 -1h173v-62h-139z" />
    <glyph glyph-name="uni057A" unicode="&#x57a;" horiz-adv-x="878" 
d="M163 508v-322q0 -20 2.5 -45t12.5 -47t29.5 -37t53.5 -15q22 0 46 7t43.5 25.5t32 50t12.5 80.5v303h88v-321q0 -28 4 -54t15 -46.5t30 -32.5t49 -12q34 0 63 16.5t47 45.5q17 27 20.5 53t3.5 48v303h88v-693h-88v254q-27 -43 -68 -66t-88 -23q-33 0 -58 9.5t-42.5 25
t-28.5 35t-16 39.5q-8 -15 -21.5 -33.5t-34.5 -35.5t-50.5 -28.5t-69.5 -11.5q-32 0 -61 10.5t-54 34.5q-32 32 -40 69.5t-8 85.5v328h88z" />
    <glyph glyph-name="uni057B" unicode="&#x57b;" horiz-adv-x="553" 
d="M294 107q9 5 19.5 13.5t20.5 18.5t18.5 19.5t13.5 16.5q52 59 52 154q0 50 -18 78t-42 41t-47.5 15.5t-34.5 2.5q-6 0 -29 -2.5t-47.5 -15.5t-44 -40.5t-19.5 -78.5q1 -29 8 -49.5t24 -37.5q8 -8 19 -16.5t21 -15.5q13 -8 20.5 -12t18.5 -12q17 -12 27.5 -25.5
t10.5 -33.5q0 -5 -0.5 -9t-3.5 -18zM262 -185h-30q-17 0 -35 0.5t-34 1t-26 1.5q-7 0 -21.5 2.5t-28.5 10.5t-25 23t-11 44q1 36 22 59.5t58 49.5l30 20.5t29.5 22t23 24t9.5 27.5q0 26 -16.5 37.5t-35.5 19.5q-20 8 -44.5 20t-44.5 34q-22 24 -30.5 52t-8.5 65
q2 53 21.5 91t45.5 60q35 30 77.5 39t86.5 9q22 0 46.5 -2t49 -9t48 -19.5t44.5 -34.5q27 -29 37.5 -63.5t10.5 -73.5q-1 -62 -21 -104.5t-63 -85.5q-38 -37 -71.5 -58l-66.5 -41q-28 -17 -51 -33t-45 -33q-5 -3 -11.5 -9t-13.5 -13.5t-11.5 -16t-4.5 -21.5q1 -13 8 -20
t16.5 -10t19 -3.5t14.5 -0.5h281v-62h-228z" />
    <glyph glyph-name="uni057C" unicode="&#x57c;" horiz-adv-x="597" 
d="M75 0v508h88v-71q35 51 80.5 71t93.5 20q38 0 69 -12.5t54 -32.5q18 -16 29 -35.5t18 -40t10 -41t3 -38.5q0 -70 -32.5 -138.5t-100.5 -127.5h142v-62h-222v53q23 21 45.5 50t38.5 60q17 31 26.5 69.5t9.5 84.5q-1 29 -5.5 50t-10.5 34.5t-11.5 21.5t-8.5 11
q-10 11 -29 21.5t-53 10.5q-26 0 -49 -8t-46 -28q-19 -17 -29 -35.5t-15 -38t-6 -39.5t-1 -40v-277h-88z" />
    <glyph glyph-name="uni057D" unicode="&#x57d;" horiz-adv-x="579" 
d="M416 0v72h-2q-19 -33 -46 -51.5t-52.5 -27.5t-46 -11t-27.5 -2q-56 0 -89.5 19t-50.5 48t-22 62t-5 62v337h88v-311q0 -48 8 -78t22 -47.5t33.5 -23.5t43.5 -6q55 0 85 24.5t43.5 56.5t15.5 63t2 45v277h88v-508h-88z" />
    </font>
</defs>
</svg>
